/* XPM */
static char *result[] = {
/* columns rows colors chars-per-pixel */
"64 64 254 2 ",
"   c #45887F",
".  c #327898",
"X  c #1D79BA",
"o  c #2B78AE",
"O  c #357BA9",
"+  c #237BBC",
"@  c #2B7BB8",
"#  c #347EB8",
"$  c #6A6E9E",
"%  c #5779B8",
"&  c #5177AC",
"*  c #6778B7",
"=  c #7779B6",
"-  c #6D6EAB",
";  c #5F709E",
":  c #1C78C6",
">  c #247CC4",
",  c #2B7ECB",
"<  c #277BC8",
"1  c #327FCA",
"2  c #297DD3",
"3  c #5C7BC3",
"4  c #845BA8",
"5  c #8279BC",
"6  c #8561AB",
"7  c #8479C5",
"8  c #3B8B98",
"9  c #2A83B9",
"0  c #3B8CBC",
"q  c #3885B8",
"w  c #3896BB",
"e  c #3988A9",
"r  c #1F82BB",
"t  c #4C949E",
"y  c #568E92",
"u  c #54A698",
"i  c #4687A8",
"p  c #5696AB",
"a  c #4888B8",
"s  c #5789B9",
"d  c #4798B9",
"f  c #5898B9",
"g  c #4E8DA9",
"h  c #658AB8",
"j  c #6798BA",
"k  c #728AAE",
"l  c #57B6AA",
"z  c #4BA8B9",
"x  c #58A6BA",
"c  c #4DB2B8",
"v  c #57B8B9",
"b  c #4FABA6",
"n  c #68BAAC",
"m  c #67A4BC",
"M  c #64B9BB",
"N  c #75B2B2",
"B  c #64829E",
"V  c #76CB9D",
"C  c #5BC5BC",
"Z  c #53CABA",
"A  c #6CC7AB",
"S  c #7CD4A8",
"D  c #68C7B9",
"F  c #75CAB6",
"G  c #6BD3BD",
"H  c #6DDBBE",
"J  c #68D1BC",
"K  c #72DDBD",
"L  c #78D8B9",
"P  c #72CCA6",
"I  c #74E4BC",
"U  c #7BE5BD",
"Y  c #7CE9BD",
"T  c #7DE2B6",
"R  c #6EE0BE",
"E  c #1D8BC3",
"W  c #2482C3",
"Q  c #2B83C5",
"!  c #2C8BC5",
"~  c #2482CC",
"^  c #2B83CB",
"/  c #2D8BCC",
"(  c #2689C9",
")  c #3384C4",
"_  c #348CC5",
"`  c #3B8AC4",
"'  c #3384CC",
"]  c #328CCC",
"[  c #3A8CCB",
"{  c #3B85C5",
"}  c #2D93CD",
"|  c #2D98C8",
" . c #3393C4",
".. c #3B93C4",
"X. c #3D9CC6",
"o. c #3393CD",
"O. c #3A94CB",
"+. c #359BCE",
"@. c #3C9CCB",
"#. c #3299C2",
"$. c #2582D1",
"%. c #2B84D3",
"&. c #2B8CD3",
"*. c #2C8BDB",
"=. c #2985D8",
"-. c #328CD2",
";. c #3689D5",
":. c #2D93D3",
">. c #2B99D7",
",. c #3394D1",
"<. c #349BD2",
"1. c #3B9DD3",
"2. c #3695D6",
"3. c #35A4CE",
"4. c #3DA3CB",
"5. c #34ABCF",
"6. c #3CA7C8",
"7. c #2CA6DB",
"8. c #35A3D3",
"9. c #3AA2D3",
"0. c #34AAD2",
"q. c #36A6D8",
"w. c #3FB2C7",
"e. c #2C88E1",
"r. c #328CE2",
"t. c #2FA8E3",
"y. c #468AC7",
"u. c #5688C5",
"i. c #4395CB",
"p. c #449CCC",
"a. c #4B9BCC",
"s. c #4796C5",
"d. c #5899C6",
"f. c #4799D4",
"g. c #4D92D3",
"h. c #6598C5",
"j. c #7599C6",
"k. c #6E8CC3",
"l. c #43A4C5",
"z. c #4BA4C5",
"x. c #45ACC5",
"c. c #4CACC4",
"v. c #43A3CB",
"b. c #4AA4CA",
"n. c #45A9CC",
"m. c #4BACCA",
"M. c #53ACC4",
"N. c #57A6C8",
"B. c #4CB5C4",
"V. c #4CB3CA",
"C. c #49B8C5",
"Z. c #54B3C5",
"A. c #5BB5C5",
"S. c #54BBC4",
"D. c #5BBCC4",
"F. c #54B3CA",
"G. c #5AB4CC",
"H. c #55BCCA",
"J. c #5CBACA",
"K. c #48A7D3",
"L. c #54A4D7",
"P. c #5EB6D3",
"I. c #49B2D5",
"U. c #66A8C7",
"Y. c #75A7C6",
"T. c #66B8C8",
"R. c #74B8CA",
"E. c #67A8D6",
"W. c #67B7D8",
"Q. c #79B9D8",
"!. c #499AE1",
"~. c #55AAE6",
"^. c #6CB6E5",
"/. c #77B7E3",
"(. c #69AFE7",
"). c #5DC3C4",
"_. c #5CCAC4",
"`. c #58C6C8",
"'. c #5AD3C4",
"]. c #62C4C4",
"[. c #64CCC3",
"{. c #6ACCC3",
"}. c #63C3C9",
"|. c #64CCC9",
" X c #6BC7C9",
".X c #73CAC8",
"XX c #64D1C2",
"oX c #6AD4C2",
"OX c #6CD9C1",
"+X c #69D2C9",
"@X c #77D9C8",
"#X c #6BC9D4",
"$X c #77D8D4",
"%X c #74CAD7",
"&X c #7CE5C2",
"*X c #79E5C4",
"=X c #78C6EC",
"-X c #8288BF",
";X c #8DACB0",
":X c #8BD89D",
">X c #95DC9A",
",X c #9DE19C",
"<X c #88DBA7",
"1X c #94DEA4",
"2X c #85DCB7",
"3X c #82C8B0",
"4X c #8CE1AA",
"5X c #96E3A7",
"6X c #84E4BC",
"7X c #82EBBE",
"8X c #89E5B6",
"9X c #92EEBD",
"0X c #8AF1BD",
"qX c #95F1BC",
"wX c #8887C3",
"eX c #83BAD7",
"rX c #8BB7CA",
"tX c #82BCEC",
"yX c #84DCC9",
"uX c #8BCBD3",
"iX c #84EBC2",
"pX c #8CECC3",
"aX c #8BE3CB",
"sX c #86E4C7",
"dX c #93EDC3",
"fX c #9BEDC4",
"gX c #9CECCB",
"hX c #94E7C9",
"jX c #8CF2C5",
"kX c #86F1C4",
"lX c #92F2C5",
"zX c #9AF3C3",
"xX c #9CF2CB",
"cX c #95F3C9",
"vX c #88E8D5",
"bX c #97E9D5",
"nX c #A3EEC5",
"mX c #A2EECA",
"MX c #A3F1C5",
"NX c #A5F2CB",
"BX c #AAF5C9",
"VX c #A6F4D5",
"CX c #A1EED5",
"ZX c #86C8E9",
"AX c #86CCF9",
"SX c #8BD6FB",
"DX c #98D9FE",
"FX c #94CDEF",
"GX c #A5D8F0",
"HX c #94E6F9",
"JX c #A5E8FF",
"KX c #B1F3FB",
"LX c #B5D4D7",
"PX c #C6F1FD",
/* pixels */
"NXVXNXBXNXNXMXMXMXMXNXxXxXxXgXxXcXcXcXcXcXjXlXjXlXjXjXjXkXkXjXkX0X0XjXjXjXkXjXjXcXjXlXcXlXfXzXqXzXqXzXqXzXzXVXNXzXVXNXBXnXBXMXBX",
"NXNXNXNXBXMXMXMXMXMXMXzXzXcXgXcXcXcXpXlXdXjXjXpXjXjXjXjXkX0XkXkX0X0X0XkX0XkXkXjXjXjXlXdXdXlXdXqXqXqXzXzXxXxXzXdXxXBXNXNXBXBXBXBX",
"NXNXNXNXBXNXnXnXnXzXfXfXcXcXhXjXpXpXpXpXpXjX0XpX7XkXkXiX0XY 0XY Y 0X0X0X7XkXkXkXpXiXpXpXpX9XlX9XqXqXqXlXcXxXxXNXxXNXNXNXBXnXnXBX",
"NXNXNXNXNXMXNXnXfXfXfXdXdXpXhXpXpX0XpXpXiXiX7XiX7X7XY Y Y Y Y Y Y Y Y Y kXkXkX7XiXiX7XpXpXpXpXpXjXlX8X0XpXgXlXgXxXCXCXNXBXnXnXnX",
"mXmXNXmXNXnXnXfXfXfXdX9XpXpXpXpXiXiXiXiX7X7X7X7XY Y Y Y Y Y Y Y 7X&XY Y &XkXiX7X7X7XiXiXsXkXkXkX7XjXpXjXcXsXF F hXCXCXCXBXBXnXBX",
"NXmXNXmXNXnXnXnXfXdXdXhXpXpXiXsXiX7X6XY sXY Y Y Y Y Y Y Y Y I I &X&XY sXkX7X7X7X7XY 7X7X&X&XiXiX7XjXsXkXbXL A F yXbXhXhX9XCXLXmX",
"gXmXgXmXmXnXfXhXhX9XpXpXiXiX&X&XY &XY Y U I I I Y I Y I I I I I U U 6X6X6X8X8X8X8X8X6XT Y Y &X&XY jXsXiXvX&XL vXN aX3XyX3XVXfXmX",
"gXnXmXgXgXhXhX9XhXpXpXiXiXiXY &XU U U I U I I I I U R I I I I I @X2XiX6X8X8X4X9X8X8X4X8XT U U U I sX*X*XvX@XD aXM bXyXuX3XVXhXbX",
"hXgXgXgXhXhXhXhXhXsX6XsXU U U *XI I K I I *XI I I I I R I R I K L 2X6X2X8X1X4X1X5X4X4X4XT S I Y *X*X*X*XvXvX$X{.n l aXF bXyXCXgX",
"gXgXhXhXhXhXaXhXaXsXsXsX&X*XI R I *XOXI K H R R R H R R R R H K U 6X9X8X<X1X5X>X1X:XS 4X8XL L I OX*X*XR +X$XvX@X.X.XM yXbXGXbXhX",
"gXhXhXaXhXaXaXyXyXyX&X&X@X*XK H R R H H H H H H H H H H H R H K yX2X2X4X1X1X>X>X,X>X:X4X9X6X6XK *X*XOXb l c v 8 v .Xb @X.XvXaXbX",
"aXaXhXaXhXyXyXyXyXsXyX@XK H K H OXOXH H H OXH H H H H H H H H H L 2X2X2X>X>X,X,X,X,X:X:X4X6XL K '.*XR b +X@X$XM v  XT..X.XA D bX",
"aXaXvXaX.XyXyXyXyXyX@X@XOXK K OXG OXOXOXOXOXOXOXH OXOXOXOXOXOXOXH L 2X2X<X5X,X,X,X,X>X<X<XL L H OXOXOXl +X].].v S.8 b b @XyXG aX",
"aXaXaX@XF G yXyX@X@X@X@XG G G OXoXOXOXXXXXJ oXG oXG oXoXoXoXoXoXoXG L S <X:X>X>X,X5X5X4X2XL H H G H @XZ +X].#X#Xc v $X$Xl l l vX",
"vXyXaX@XA D yXG D D oXoX{.J G G XXXXXXJ XXJ XXXXoXG XXJ oXJ XXG J G F P V :X:X>X>X:X:XS P A J J J J OX[.[.}.#X}.$XZ.$X$X+XvX*XvX",
"sX@XaX@XM D .XM v v D XX[.J J G J oX{.XX[.XX{.D XX'.XX[.oX[.[.XXG G L S <X1X5X5X,X,X<XV P A oXXXoXJ [.XX|.$X+Xc _.c +X$X$XOXvXOX",
"@X@X$XyX%Xv x v c [._.XXXX_.XX[.[..X.X[.C '..X.X'.'.'.].XX|.[.{.D A L pXS S :XV 1X:X2XP L l OXC Z '.XXXX[.|..X Xb b [.OX*X$X*X*X",
"$X.X+X%X#XA.c.c H.`._._._._.].D v ].].[.'.|. XD Z '.`._.[.|._.J .XA F S P V S V V 2XS 2XD J C _.Z '.'._.]. X+X X].[.+X+X+X+XOX$X",
"$XD c b b d d z Z.H.S.).|.]. XT..X|._.'._.`.).`.|.+X X{._._.`._.D n G yXL P P V P 2XF hXA oXC _.Z _._.[.[. X|.|.+XXX'.XXXX+X@X$X",
"OX[.].#X#Xz z d c z c T. X X.XR.T.M T.).C ).).).x M N R.).`._.`.C M .X*XK J A n F F .XF  XD )._.C C _.].[.}.|.].`._._._.XX+X@XOX",
"$X_.S.F.c.s.z F.Z.z z  XR..XR.m y B k k R..XR.j ; B B R.T.}.).C ].v ].[.C D C D M n  Xl  Xv }.).D.C ].].}.}.)._.`._._.].|.+X.X@X",
"'.|.#X%X#XF.N.G.P.H.T.#XR.R.R.p k k 5 k m R.rXB k k B Y.M J.J.H.}.D.v v S.v v ].M M T.T.}.].].v v v v T.}.T.T.D.).)._._.].[..X+X",
"|.`.`.J.c.z z.P.}.P.T.#XT.R.R.i .XR.m p x T.j B eXrXB Y.x S.H.S.S.S.S.`.`.H.S.S.J.}.T..X X#XD.).S.A.A.T.T.T.m T.x A.D.).).}. X#X",
"+X}.}.#XP.c.z.B.P.H.D.}.J.T. Xg f T.Y.f f Y.Y.s j Y.& Y.J.H.`.B.S.Z.B.C.`.H.V.F.J.J.T.T.D.v D.D.D.S.D.T.U.m m x f T.T.}.T.).).|.",
"`.}.D.J.F.F.F.V.S.`.H.S.D.A.T.m g Y.Y.j.- wXk k Y.s s U.G.N.V.B.c B.Z.B.V.C.V.V.P.P.J.J.J.T.D.).B.B.A.U.U.Y.j h j m U.T.T.).`.).",
").D.D.J.Z.F.F.B.C.S.`.S.D.D.A.m s h s j.6 $ - wXk h x U.U.m M.c.M.B.B.B.C.V.V.V.F.F.F.J.J.v v S.c C.B.N.h.j h h h j x U.J.S.`.`.",
"D.D.D.F.F.V.V.C.w.C.c C.S.D.A.M.G.d f j -X= 5 7 - j U.N.j.j.E.E.A.M.c c.x.C.V.V.V.M.M.G.A.A.v B.w.C.V.N.f h h k.B h m U.F.`.`.`.",
"D.H.S.F.F.V.x.x.w.c C.C.Z.x N.N.N.N.f s = wX-X- * j.h.s h h & i d.M.z.M.c.m.x.x.m.N.F.F.F.Z.c.B.w.w.x.d.f d.h h u.h.N.N.F.C.I.I.",
"H.F.F.V.m.m.n.n.x.w.z c.z N.N.d.d.Y.h.k.$ = - = ; & % % h s % f d d.N.N.m.z.x.x.x.m.N.F.M.c.c.x.w.w.6.z.d.d.h.d.d.h.N.N.m.m.V.V.",
"F.V.m.m.K.v.v.l.6.z z.c.M.d.N.h.h.h.h j.- 5 = = wXwX= = j.j.h k.s d.d.N.z.l.b.v.b.z.b.m.m.m.b.n.5.6.l.l.b.N.L.d.d.z.b.m.c.c.V.H.",
"V.V.n.K.K.v.K.v.l.l.z.z.d.u.u.s % h * * - 7 = - - 4 - = = = wXk.% d.N.L.p.z.v.l.l.b.z.b.b.v.v.v.6.6.6.v.b.b.a.v.v.l.n.x.m.m.F.G.",
"I.I.I.v.K.9.9.p.v.v.p.d.d.s & % s s h * - - * 5 4 4 = - ; % * & s d.d.d.p.b.v.p.l.p.v.p.p.v.p.4.6.6.4.l.4.X.l.v.4.6.n.l.x.b.b.F.",
"m.n.v.v.v.4.3.@.@.@.a.d.u.& % k.u.d.d.y.3 % - 7 - = k.d.y.a.g.y.i.p.p.@.1.@.1.p.p.L.#.l.@.v.O.3.@.4.@.4.4.p.X.4.X.l.l.l.l.n.m.m.",
"K.I.K.v.@.@.@.4.3.@.p.a.y.a % k.h.u.g.y.3 3 - 7 - = h.s.p.1.f.;.O.@.@.9.9.1.1.p...#.s.s.@.w I.4.+.@.@.X.@.@.X.X.X.X.X.4.v.v.v.I.",
"n.n.l.v.@.@.O.+.@.O.i.i.s.s % u.u.u.y.y.g.3 3 = = 3 a s.X.O.g.i.i.@.p.1.+.#.O.O.L.=Xs.d s.v.0 @.@.+.+.+.@.X.@.X.X...X.X.4.v.K.n.",
"K.v.4.p.@.@.O.+.O.O...y.y.y.s 3 y.3 y.' y.g.3 * * % a d @...y.g.i.@.O.#.O...#.s.E.z.=Xd s.w L.#.+.#. .@.O.O...X.X.X.X.X.@.4.v.K.",
"4.4.4.@.p.p.O.O.O.O.o.O.i.y.y.1 y.y.y.` g.u.% * * % % [ +.O.[ g.O.O. .O.@.p.d 0 Q.d.T.i ZXAXd q O.O. .o.O.O.O.O.p.p.@.@.@.4.v.K.",
"9.6.4.p.p.f.p.i.O.O.O.[ [ i.;.[ [ [ 1._ ;.3 % 3 * 3 & `  . .] O.[ _ O.......e e d p Q.ZXf =Xa y._ } o.o.o.o.o.O.1.p.O.@.@.@.4.1.",
"4.3.O.p.f.a.g.i.[ o._ ] _ ,.;.] ] _ o./ [ y.% % % % q ` w ( ' ' [ ] [ [ ` w s.x i p eXh.eXh.y.y._ ] o.o.o.o.o.[ ,.O.O.+.+.1.1.1.",
"3.+.#.X.i.a.a.a.` ` _ ' / ] -.-./ ] ] ! ;.3 1 3 % s y._ _ o.] ;.' ] ,._ ` m.^.ZX%XuXFXR.ZXf d.% [ / / o.] _ [ ,.-.[ o.O.1.1.1.9.",
"8.#.@.p.p.y.L.y.q { [ Q o.-.Q 2.[ [ ] -.] ' y.y.L.E.g.O._ [ ;.1 ;.;.] [ i.b.L.E.p x eXeXeX/.E.(.' / / ] -./ ' ] ] o.,.o.O.<.1.1.",
">.8.]  .a.g.q y.# { ` _ ^ 9 ,.X ' ' ' -./ Q ' y.L.L.f.f._ ' 1 y.' ' ' [ [ p.d.N.U.g FXtXE.tXE.(.[ -.&.&.' ] -.] -.] ] ,.2.<.1.1.",
"8.>.#._ { g.SXSX(.e q ` _ + f.) ' ^ ^ &.^ ' ;.i.~.f.f.f.[ ) 1 ;.' ' ^ ' ' O.i.s.a a U./.& q (.y.' / &.' %.] ] ] ] ] ] ,.,.<.<.<.",
"q.( <.p.q ^.AXE.DXa q # q ` @ 1 ~ / ~ ^ Q ' ;.;.f.f.L.f.O.^ ^ %.%.^ %.^ / ' [ { q O /.(.# # ) { ' ~ ' ^ ^ ^ ^ -.] -.,.o.} ,.>.2.",
"t.:.1.O.q DXq O /.W.e y.u.AXL.) ( $.~ =.' 1 ' { g.f.f.O./ / &.&.^ ^ %./ %.~ ^ ) # { (.L.y.' < ] ~ ^ ^ ^ ^ ' ^ / -./ ] o.,.:.<.<.",
">.<.2.! [ E./.a s E.s O DXE.JXg./ ~ $.%.%.1 1 1 [ O.y.Q + W ~ ~ ~ ~ ~ %.$.%.^ ^ > [ < ' i.+ &.> ^ ^ , ^ ^ ^ ' / ] ] &.:./ ,.:.<.",
"t.*.( _ L.# AXi e DX. /.u.s FX3 ' 2 2 1 =.~ ~ W W W Q ) ' Q , , ^ ^ ~ $.=.$.$.2 ' < 1 > 2 -.: &.~ ~ < ~ ^ Q ^ ^ / / / ,.:.,.<.2.",
">.2.1. .@ i.a =X& KXj FXO & DXa ) < 2 , %.$.~ ~ E 9 ! f.!.;., , , < ^ ~ ~ $.$.$.< %.< %.2 : =.: W < < Q Q ^ ^ ^ ' / -.} o.>.<.<.",
"<.<...s._ 0 0 a eXuXPXm U.JXE.o @ W : 2 e.: *.~ W W ^ f.f.!.@ @ # { [ o + ! / : ~ $.$.2 $.$.~ ~ , < ^ < Q Q Q ^ / / / } o.o.<.<.",
"K. .w q p.` s.i GX;X; uXFXe . q @ / ~ 2 e.2 : ~ ^ + 2 ~.!.{ # q O a W.E.q o 9 W ~ $.$.$.$.: ~ < < ^ < ^ ^ ^ ^ ' / / o.o.<.<.<.q.",
">.3.=XJXJX/.f U.GXrXFXeXd.e & & o + ^ , 2 =.X ~ %.< < 2 ' @ b.M.i f . %X. e w + W ~ 2 $.2 ~ ~ ~ ^ ^ ^ ^ ' / / ] ] ] o.<.<.<.<.q.",
"| ~.KXx N.Q.DXKXLXuXrXm DX/.Q.Q.(.{ > ' : < / 9 > ;.e.2 ' # G.t x N t i 8 %X^.q Q < ^ ~ 2 2 , , ^ ^ ^ ^ ^ / ' ! ] o.,.,.<.<.<.q.",
"V.G.=XM.q s.0 f uX;X;XrXY.h./.E.AX=XQ 1 , ~ &.W X / < > ) q E.t y V u N .X. N.b.9 < Q , , , ^ Q Q ~ W / ^ / ' / ] o.,.,.<.<.8.8.",
"w G.SXw w 0 ^.ZXLXLX;XPXKXJXa & e DX[ < ;.2 : / W / X + # O d f u 3X3Xy R.R.p o 1 1 , 1 , , 1 , Q ^ ^ / ^ ] / / ] o.+.+.<.+.8.8.",
"4.l.G.SXHXAXN.g j PXrXeXs /.DXh.& ZXy.1 2 2 : ( / 1.-.[ ) o . 8   ;XN N t 8 O q 1 1 , 2 %.Q Q Q W W ^ / / / o.] ,.,.<.+.<.+.8.q.",
"3.3.d d s.w s.d eXrXFXx i # d.JXKXAX# 1 < e.*.: W q.,.+ + 0 O f F u 3Xu M . e o 1 1 2 2 ~ ^ Q ! / / / / o.] ,.o.o.+.+.+.0.8.8.0.",
"0.5.4.d p.X...d FXx ZXz.0 0 a q a q 1 1 1 %.~ ~ $.2 =.e., # s.T.t t 8 x d.N.+ Q ~ ;.r.=.$.~ ( ( / / / / / ] o.o.<.+.+.9.8.0.8.0.",
"0.3.6.4.+.8.+.@.JXt Q.W.0 Q i.q ` { { ' ' ~ ( ( $.e.2 2 , ) y.N.f d d N.N.L.) -.%.r.r.*.$.&.} ( } / } o.o.o.<.o.<.+.+.3.3.0.0.0.",
"3.5.3.8.7.7.7.<.HXx %XP. .} 2.-.[ ) ' &.=.%./ ( $.$.2 e.=.1 ` s.0 0 9 9 O.] < > =.e.e.=.&.( } ( } } } <.o.<.o.+.1.+.8.8.3.3.3.3.",
"3.0.3.q.7.t.7.<.#XJXKXN.9 >.:.:. .o.;.*.*.*./ ( ( ~ 2 =.%.^ Q ) ) W 9 + ' W ~ &.=.e.>.*.&.} } } } } o.:.o.+.+.+.+.3.3.3.5.5.3.0.",
"t.5.5.5.q.q.q.8.6.w #.E 7.7.( 4.#.| &.*.e.*.&.( } ! / :.&.=.%.&.&.%.-.( ,.W ,.:.&.*.&.&.:.} } } } } <.<.<.<.+.3.3.8.3.3.5.5.5.5.",
"t.7.5.5.0.0.q.3.#.6.C.| E 7.q.9 | | :.*.e.*.&.( ! | ,.,.*.=.&.*.=.$.2.&./ : / / &.&.:.&.:.} } +.} +.<.+.+.<.+.1.9.5.3.5.5.5.5.5.",
"0.5.5.5.7.7.7.0.x.w #.6.| 7.7.>.>.>.>.>.>.} | w ! } *.*.e.*.&./ -.&.2.,.o./ 2./ -.] -.,.,.,.<.o.<.<.<.<.1.8.9.9.9.3.0.0.5.5.5.5.",
"5.5.n.5.7.t.7.5.l.c z #.0.7.>.7.7.7.>.>.>.| #.#.w -.2.r.r.>.>.:.*.=.&.,.} +.<.! <.,.,.<.,.<.<.<.<.<.8.8.9.9.9.0.9.9.0.5.5.5.5.5."
};
