/* XPM */
static char *f800da80def74c07df61ac212632da2a6iPkGVD6PJXFM2C8[] = {
/* columns rows colors chars-per-pixel */
"64 64 232 2 ",
"   c #B8E779",
".  c #7A77B1",
"X  c #2C7EC6",
"o  c #267FCF",
"O  c #2A7ECA",
"+  c #287FD0",
"@  c #A34FAF",
"#  c #A651B2",
"$  c #AB56B8",
"%  c #8F70BA",
"&  c #B35DC1",
"*  c #B962C7",
"=  c #C36AD2",
"-  c #CC72DD",
";  c #D67BE8",
":  c #3A86BC",
">  c #3C97BB",
",  c #5D8EBC",
"<  c #469BBD",
"1  c #6A8BBA",
"2  c #7585B7",
"3  c #6697BC",
"4  c #7596BA",
"5  c #49A6BC",
"6  c #55ACBC",
"7  c #57B4BE",
"8  c #6CA9B2",
"9  c #5FC5BA",
"0  c #71CCAB",
"q  c #7BD3AC",
"w  c #68C9BD",
"e  c #6BD5BB",
"r  c #6EDBBF",
"t  c #72DEBD",
"y  c #7ADBB9",
"u  c #6EE0BE",
"i  c #74E3BE",
"p  c #7BE5BE",
"a  c #77E8BD",
"s  c #7BE9BF",
"d  c #2D83C6",
"f  c #2E8AC5",
"g  c #2680CE",
"h  c #2A84CD",
"j  c #2D8ACD",
"k  c #3282C3",
"l  c #3888C4",
"z  c #3286CC",
"x  c #328DCC",
"c  c #3A8DCE",
"v  c #2E92CE",
"b  c #2F98CF",
"n  c #3897C6",
"m  c #3493CC",
"M  c #3A94CB",
"N  c #349BCD",
"B  c #3C9CCB",
"V  c #2780D0",
"C  c #2A84D0",
"Z  c #2B8CD0",
"A  c #368BD1",
"S  c #2D93D1",
"D  c #2F99D2",
"F  c #3196D1",
"G  c #3D91D1",
"H  c #339CD2",
"J  c #3A9DD0",
"K  c #35A2CE",
"L  c #3DA1CC",
"P  c #34A4D2",
"I  c #3BA1D1",
"U  c #35A9D3",
"Y  c #438CC7",
"T  c #5C83C2",
"R  c #4296CD",
"E  c #4799C8",
"W  c #439ACC",
"Q  c #5799C7",
"!  c #428DD5",
"~  c #4993D6",
"^  c #5497D7",
"/  c #649ECF",
"(  c #45A5C6",
")  c #4AA5C4",
"_  c #46A9C6",
"`  c #4BACC5",
"'  c #42A3CA",
"]  c #4AA2CB",
"[  c #46A9CA",
"{  c #4AADCA",
"}  c #54ABC8",
"|  c #4DB2C6",
" . c #4EB2CB",
".. c #53B4C5",
"X. c #5AB5C6",
"o. c #54BAC5",
"O. c #5BBCC5",
"+. c #54B5CA",
"@. c #5AB5C9",
"#. c #55BACA",
"$. c #5BBBC9",
"%. c #41A7D0",
"&. c #59A5D4",
"*. c #69A6C8",
"=. c #76ABCB",
"-. c #62BDC5",
";. c #62B9C8",
":. c #7FB3CD",
">. c #68A7D8",
",. c #77A7DD",
"<. c #6DB6D1",
"1. c #77B6D5",
"2. c #6A9EE2",
"3. c #6DA0E1",
"4. c #78A6E3",
"5. c #5DC4C4",
"6. c #5EC8C3",
"7. c #5DC2C9",
"8. c #63C4C6",
"9. c #63CCC4",
"0. c #6ACCC6",
"q. c #63C4C9",
"w. c #65CBC9",
"e. c #6AC8C9",
"r. c #75CAC6",
"t. c #66D1C2",
"y. c #6BD4C3",
"u. c #6EDAC1",
"i. c #6CD4CA",
"p. c #71D5C5",
"a. c #73DCC3",
"s. c #7BDCC4",
"d. c #75D6CA",
"f. c #75DAC9",
"g. c #7DDDC9",
"h. c #75CAD2",
"j. c #75E1C1",
"k. c #7BE4C1",
"l. c #7EEAC0",
"z. c #7FE1C9",
"x. c #8ED796",
"c. c #99DC96",
"v. c #B1DE9D",
"b. c #9CE18E",
"n. c #9AE196",
"m. c #9AE29A",
"M. c #A9E48A",
"N. c #B4E583",
"B. c #A5E395",
"V. c #87DAA7",
"C. c #96DBA9",
"Z. c #82DEB2",
"A. c #89E1A9",
"S. c #97E4A4",
"D. c #83E4B8",
"F. c #BB99DA",
"G. c #88B7CC",
"H. c #93BBCB",
"J. c #84ACD5",
"K. c #87BBD4",
"L. c #A4BBDC",
"P. c #8BA7E7",
"I. c #93ABEA",
"U. c #85B6E1",
"Y. c #96B6E6",
"T. c #AAAAEF",
"R. c #A5B6EA",
"E. c #B5BAEF",
"W. c #B8ACF4",
"Q. c #B6B5F2",
"!. c #E386F6",
"~. c #E487F8",
"^. c #E78AFB",
"/. c #EB8DFF",
"(. c #EA92FF",
"). c #E79FFF",
"_. c #E99CFF",
"`. c #CBB8EA",
"'. c #C7ABF7",
"]. c #D6ABFA",
"[. c #DCACFC",
"{. c #CAB3F6",
"}. c #C8B5F6",
"|. c #DCB3FC",
" X c #D9B9F9",
".X c #E6A4FF",
"XX c #E8A1FF",
"oX c #E4ABFE",
"OX c #E4B4FF",
"+X c #E3BEFF",
"@X c #82DFC5",
"#X c #85DBCA",
"$X c #89C5D7",
"%X c #99C5D2",
"&X c #98D2D3",
"*X c #A5C5CD",
"=X c #B7D2CA",
"-X c #A8CBD5",
";X c #B2CBD8",
":X c #AED5D6",
">X c #B8D4D9",
",X c #83E4C2",
"<X c #8BE4C5",
"1X c #84EAC1",
"2X c #8AECC2",
"3X c #84E4CA",
"4X c #8BE3C9",
"5X c #8CE9CB",
"6X c #91E6C6",
"7X c #93EAC6",
"8X c #9BECC6",
"9X c #93E5CA",
"0X c #95EBC9",
"qX c #9BEBC9",
"wX c #9DF0C9",
"eX c #A1EDC9",
"rX c #A4EEC8",
"tX c #A6EEC9",
"yX c #A6F0CA",
"uX c #9EC3E4",
"iX c #A4C6E5",
"pX c #BBC7EA",
"aX c #B6CFE9",
"sX c #C5D8D9",
"dX c #D1DED7",
"fX c #CCE2DB",
"gX c #D6E5DC",
"hX c #EBECD8",
"jX c #CFC9ED",
"kX c #C6C3F2",
"lX c #E1C6FF",
"zX c #E0ECE5",
/* pixels */
"eXrXyXyXyXyXrXrX8X8X8X7X2X7X2X2X2X2X1X2X1X1X1XD.l.l.l.l.s s s s s D.l.D.1X1X2X1X2X2XD.1X1X2X2X2X2X2X2X2X2X7X5X4X8XyXyXyXrXrXrXyX",
"wXyXyXyXrXrXrXeXyXC.8X2X2X2X2X2X1X1X1Xl.l.s l.s l.l.l.l.s a s s l.l.l.1X2X2X2X2Xs 2X1Xl.l.l.1X1X1X2X2X2X7X,X7 6 6X8XeXeXrXrXrXyX",
"qXrXyXyXrXeX8X8XwX7X7X7X1X2X1X1X1Xl.1Xs s l.a a a l.a a a a a i a a s 1XD.2X,X,X,X,X2Xs l.l.l.1X1X1X1X2X<Xr.@X3Xw eX9X:.qXeXrXyX",
"eXrXyXrXeX8X7X8X0X0X2X2X2X1X1X1Xs l.k.s s a a j.a a a l.i i a i a a 1XD.,X2XD.S.S.k.l.k.l.l.j.l.l.l.1X1X2Xg.w 5Xr.qXw #Xr.eXeXqX",
"eXqX8X8X8XqX7X7X7X7X<X<X,Xl.l.k.l.k.i k.j.i i i u u i i i i j.u t p ,X,Xl.k.S.M.N.D.z.k.p p p a l.l.l.,X1X,Xw #X-.#X#XqXr.8XqXqX",
"qXqXqXqX8X9X7X6X<X<X<X<Xz.k.k.j.j.j.j.j.j.i u j.u j.u i u j.j.j.i k.l.D.k.k.m.Z.m.A.k.k.t i i a j.k.,Xl.l.,X3Xw ;.6 #X;.9XqXqXqX",
"qXqX0XqX9X6X6X<X<X<X,X,Xs.k.k.j.i u.j.j.j.u i u j.z.g.z.j.u u u.t y B.M.A.s.S.Z.m.D.k.i y t i i j.j.z.z.g.z.l.0.-.#XX.@X5X7X7X0X",
"qXqX0X9X6X<X<X<X,X,X,Xz.j.j.i a.j.r r u r a.&XkXkXOXoXoX XaX9Xa.p.S.n.A.B.A.A.V.M.y y n.N.M.u a j.j.j.+.> 5 O.5 @.;.o.5X5X5X5X0X",
"7X9X6X6X<X<X@X@X,X@X@Xy j.a.u.r r r r y.&XjX_./././././././._. X&Xc.V.s.Z.M.M.c.B.y c.c.e n.q u u.u u.5 f.f.q.@.q.q.q.X.7 ..3X5X",
"<X6X6X4X,X<X@X@X@X@Xs.t u.u.u.u.u.u.a.aX.X/./.!.- - ~./././.^.^.oXsXB.Z.y V.B.V.N.B.c.y q b.q u u.y.f.5 a.a.8.5 ) } : e.3Xd.8.5X",
"4X4X4X4X#X#X@X@Xs.@Xp.p.u.y.y.y.u.p.jX(././.; # # @ $ ^././.& $ ; (.jXS.C.m.B.c.x.c.M.M.M.b.e u.r y.y.9.5 5 9.f.` ) d.o.X.g.-.3X",
"3X4X3X#X8 ;.g.@Xs.p.p.y.y.y.r y.y.kX(././.^.$ @ @ @ @ ; /./.$ @ * /.(. Xr.q N.c.c.  c.q e e y.t.y.e y.y.u.u.y.6.-.6 s.s.e.6 d.3X",
"3Xg.@Xr.d.e.d.r.6 0.t.t.t.t.t.t.pX(./././.!.@ @ @ @ @ ; /./.; # = /././.pXq N.x.V.  w e 9.w t.t.t.t.t.t.t.y.y.7 i.7 f.f.s.g.g.3X",
",Xs.g.f.7 0.r.7 w...t.t.t.t.y.iX(././././.; @ # @ @ $ ^././.^.^././././.XXv.x.N.M.c.V.w.t.t.t.t.9.t.t.9.9.e t.X.$.` p.a.f.g.g.z.",
"g.s.f.a.w.O.< O.` 5.w t.9.9.d..X/./././././.$ # # & !././././././././././.jXV.V.M.0 M.0 9.9.t.t.9.t.9.9.9.t.t.w.> ` y.d.a.f.f.z.",
"g.f.f.i.y._ #._ 7 9.9.9.6.6.kX/././././././.^.!.~././././././././././././.XXC.8.V.0 0 c.6.6.6.6.6.6.9.6.9.9.9.w.w.y.y.y.d.a.f.f.",
"f.e.5 _ } > ( ) q.5.8.6.6.h.)././././././././././././././././././././././.(.-X8.0 c.0 M.9 6.6.6.6.6.6.9 9.0.0.9.9.w.t.t.y.i.a.f.",
"d.$.q.0.8.] ` ( 5 ( 5 7.8.pX/./././././././././././.; & - /./././././././.(.}.5.9 x.  x.5.5.5.5.6.6.6.5.0.0.0.8.9.9.w.w.0.y.i.f.",
"d.e.7 O...` E < < #.} q.r.oX/.(.(./././././././././.# @ @ ; /./././././././.oXq.7.5.9 7 6.7.5.5.5.5.7.8.e.8.8.9.6.6.6.9.w.w.i.i.",
"y.0.q.7.8.5 _ #.;.< 5 e.$X(./.OX+X(././././././././.$ @ @ = /./././././././.(.h.o.o.O.8.8.7.O.5.o.5.o.8.8.8.8.8.5.7.7.8.w.w.w.i.",
"0.w.8.9.8.5 | o.O.-.q.8.-X/.(.+X+X(././././././././.- # $ ; /./././././././.(.$Xo.o.5.8.8.-.;.O.o.o.5.o.5.7.q.q.O.O.7.6.6.9.w.i.",
"w.w.q.7.7.E < ..O.-.8.;.Q./._.+X+X(./././././././././.^.^./././././././././.(.$Xo.7.-.q.-.-.q.O.o.o.o.o.-.4 8 *.2 O.O.7.6.7.w.w.",
"e.8.7.O.#.+.( o.o.O.-.$. X/._.+X+X_././././././././././././././././././././..X1.#.O.-.-.$.-.-.$.o.o.o.o.8 *.4 3 3 ;.o.7.7.7.7.w.",
"q.7.7.7.#.o.| o.X.$.$.$.[./.(.+X+XoX/././././././././././././././././././.^.OX$.+.$.;.;.-.$.@.$.7 ..| o.+.3 1 2 1 X.@.#.o.7.7.7.",
"7.7.7.#.#.o.| | | $.$.@.[.(.(.lX+XXX/./././././././././././././././././././.lX}.1.$.$.X.@.@.@.@...| | | } @.2 2 2 2 1 X.#.$.7.7.",
"7.#.#...| | | { | +.X.@.[./._.+X+X/./././././././././././././././././././.(.lX/.{.@.@.X.X.X.@.+.| | ` | 3 1 2 2 . 2 2 X.+.#.#.7.",
"#.#.O.@.| | ` | ` } +.@.[./.XX+X+X/././././././././././././././././././.(.lX_./.|.iXiXuXK.;.@.+._ ` ` ` 2 ) Q . 1 } }  .| #.#.#.",
"#.+.#.+.{ ` ` _ [ _ ` ` ]./.oXlX+X_./././.!.; ^././././././././././././.+X.X/.(.+X(./.(._. XY...` _ _ ` Q , ) 1 1 _ { .. . .#.#.",
"#. . . .[ ` _ _ [ _ _ _ {.^..X+X+XOX/./.- @ @ $ ; ^./././././././././.XX.X/./.OX.X/././././._.E.{ ( [ ` ( ( _ , 1 ) [ {  . . .#.",
"+. . .{ [ [ ( ( ( _ ( ( E./.(.OX+X+X/.^.# @ @ @ # ; /././././././././.oX(./.+XlX.X_./././././.(.R.[ _ L ( ( ( _ ' _ [ [ [  . . .",
" .{ { { [ ' ( ( ' ' ' ' Y././.(.+XOX/.; @ @ @ @ @ $ /././././././././..X^.[.>.} >.K.E.OX(./././.oX&.' ' ' ( ' ' ' ( [ [ %.{ {  .",
" .{ %.%.' ' L ' ' ' B ' >._./.(.lXOX/.; @ @ @ @ @ # /./././././././.(.(./.pXY.Y.U.} ' &.E.(././.(.Y.' L W ' ' ' B ' ' [ %.[ {  .",
"{ { ( ( ( L B B W B W B ' [./.(.lXOX/.^.# @ @ @ @ # ^./././././././././.XXOX(.(.(.oXE.&.' }./././.{.B W B W L ( B B L L [ [ [  .",
"[ [ ' ' L L B B B B B W E F././.OX+XXX/.* @ @ @ @ * /./././././././././..X_././././.(.|.1.,./././.oXW B B B n B B E < L L ' [ [ ",
"%.[ ' L B B B B B B B M B % .X^.oXlXOX(.^.$ @ @ & ~././././././././././.OX(././././././..XU..X/.^..X] B B W B B B B B L ' ' %.{ ",
"%.' ' B L n B n n n n n n T F.(.(.+XlX(././.!.; ^./././././././././././.+X/./././././././.|.|././..X&.B B M n B n B B B B ' %.%.",
"%.%.L B J N M M n M M n n c T ]./._..X/./././././././././._.^././././..XlX{.{.|.)././././.(.+X/./._.^ N B n n M R ' M B B L %.%.",
"%.' J B W W W M c m M x x n m >.oX/././././././././././..X(././.oXoX X4.B n M R J.OX/./././.oX/./.XX&.m n c m M W W W M B B ' I ",
"I W B B ] ] W W x c x c M A x m >.oX/./././././././.XXOXOX/./.oX>.R M x m l m n n *.+X/././..X(./._.>.x x m m m R W B M J W J I ",
"L N J J ^ E W W M F x x x m x x j >.|.(./././././.XX+X_././.(.kXx x x x n R R < l l aX_././.(././.(.>.A x G m M M B M N J J ' I ",
"I I N B W W W R c x x x x x j x x x R I.|._././._.lX(./././.oXR.m x f x R R G.-X%X%X%X`././././././.P.j x x x c x x M G m J J J ",
"I H M N W W R R x x x x x x x x x j x j G 4.R.lXlXXX/.(._.OXlXP.x j x x R R G.R l 3 H.R./././././.(.'.x x x x x m G F m N J J I ",
"H N M m W R R G z x j x h x h j j j j x j j M oX(./.oXlXlX.X(.3.j j f x M R *.G.=., =XL.(./././././._.>.A j x x x m x x M J J J ",
"H H H m F M *.=.l Z C h h j h j h j h j Z j j ]./.(.OX/.OX/._./ f f j l c M c Y n d G.L./././.(./././.W.j A x h j x F F F m H H ",
"J H F S x *.gX;XsXk h C z h h h h C Z h h h h >.}.+X(.(.+X/._.~ h f d z c c c A h d =.H./././._./././..Xc z j x Z j x m m m F H ",
"H F F m x %XQ j ;XQ h f h l z V f z h h h h h c ,.(./.XXoX/._.^ h h h h z f z f h d %XE./././. X/././.[.c h h j j A F x F F F H ",
"H F F j A %XE x *.1.z C H.zX;XX + h V h h h h z Y././.[.[./.(.>.h h h h h h h h h h < T./././.W.[./._.I.z h h h x x x m F F F P ",
"H F D S S *.G.C Y K.O Y ;X: sXQ h C O h h h h h T././.'.'././.P.h O h h h h h O h h o P./././.T.~ I.,.X X z C j j x j j F F H H ",
"H D S S S v -Xc l -XO K.Y + H./ g g h g g h g g '././.T.T././.'.h g h g h h h V V h O P./././.T.h O X O X z h h h x Z S S F F H ",
"H D D S Z Z n K.k fX3 ;XX l sXX + g g g g g o h ]././.Q.Y.^./.XX~ d g g g g g g + + + P./././.'.h O O V h X C Z h x m j v F H H ",
"P D F D Z S S E J.-XhX*.Q sX*.X o g o g g g g V [././.}.>.)././.}.~ : X g d h V o g o P./././.[.O o O h h X j h d j n S S F H H ",
"D D F F S S Z j ;X8 / =.fX/ + O g g g g g g g g ]././.[.Q }././.(..X X}.Q.Q.T.I.3.z O 4.^./.^.[.V + O z h h j z j Z c m F H H P ",
"P D { %XK.E x : sXH.=.sXQ X z O o o o g g g o g '././.(.4.4.(./././././././././._.{.! ! [.^./.W.V V V h h h f z j v x F H J H P ",
"P I gX>X-XfX>XsXhXH.G.=.*XX X X O + o o o g g g T./.^./.].Q  X/././././././././././.T.+ 4.|.{.^ V h h z k z z j x x F F H H H P ",
"P <.>Xn b n @.%X4 =.*X: J.sXgXzX>XY g g g g g g P.^./././.|.jXoX/./././././././././..XA o z h V V C C Z z x Z x v v D D H H P P ",
"U <.%XD b b m :.gX%X< dX;X< X l =.>Xo o o g o g ! )././././._..X(.^.(.oX`.jX_./././._.~ o g h X h X h h f z j x v b D D H H P P ",
"P ( :XL N W $X<.*XsXH.hXgXdXQ h h -XY + + o g g h W././././././././.(.OXsX8 =.[.(./.oXA o g h O h h d d z f f v f m m N N H P P ",
"U K @.:X>X:XE D =.-X-X=.f =.gX*.k ;XY + o o g g z J._./././././././././._.,.O Y Q.oXI.V h V X h V Z j j f v m m m F N N B P P U ",
"U U P N L K D D $X<.-X} S Z Q >XgX:XC g g V V g z ~ R.(././.^./././././.^.[.Y + V ~ h h V C h h C Z j f l x v f m N N K N P P U ",
"U U P K K K N b =X( %X) Z j f z E x C h h h h C h h z R.oX.XOXOX.X(./././.(.2.o h A x h h C f h h A j j v m m m N B N N K I P U ",
"U U P P P P D b :XN K.&.S S Z j Z Z g g g g g h h h V g G ~ 3 8 Q ;X.X/./.(.2.C Z c c h h C C j j j j S v v m N H K N N L K U U ",
"P U P P P P P b fXn $X@.S S S Z Z Z Z Z Z Z C C V C h C C C f 8 8 l 3.oX(.[.G C h x A Z j Z Z Z S S S S m b m N H N K L I U U P ",
"U U P U P P P K =X*XfX&.D S S S Z Z Z Z Z Z h C C h C C C C C h O V V ~ 4.~ V C C v j C Z Z Z S Z v D D N N F B P P K U U U U U ",
"U U U U P P P K W &X%Xm D D S v S Z Z Z Z Z Z Z Z C h Z h C h C C C Z C C j h Z C Z Z Z Z S S S S D D D N D N N K P U K U U U U "
};
