/* XPM */
static char *b1b711a4d6554c29fa46b740e58b5d325TYm7hAIZsOcPPrE[] = {
/* columns rows colors chars-per-pixel */
"64 64 237 2 ",
"   c #B8E779",
".  c #7976B3",
"X  c #2C7EC6",
"o  c #267FCE",
"O  c #2A7FCB",
"+  c #277FD0",
"@  c #A34FAF",
"#  c #A652B2",
"$  c #AB56B8",
"%  c #B05ABE",
"&  c #BC64CA",
"*  c #C46BD3",
"=  c #C86FD8",
"-  c #CE74DF",
";  c #D67BE8",
":  c #2C83BC",
">  c #3886BA",
",  c #3B96BB",
"<  c #5CA29D",
"1  c #75B19F",
"2  c #4499BC",
"3  c #5296B3",
"4  c #6A8BBA",
"5  c #7585B7",
"6  c #6796BC",
"7  c #7596BA",
"8  c #48A7BB",
"9  c #59A9B4",
"0  c #58B4BE",
"q  c #72AFAC",
"w  c #6BA6BA",
"e  c #5FC5BA",
"r  c #70CBAD",
"t  c #78CEAA",
"y  c #7BD3AC",
"u  c #67C8BB",
"i  c #6CD6BC",
"p  c #77DBBA",
"a  c #76E4BD",
"s  c #7CE4BE",
"d  c #77E8BD",
"f  c #7BE9BF",
"g  c #2C82C4",
"h  c #2E8AC5",
"j  c #2680CE",
"k  c #2B84CD",
"l  c #2D8ACD",
"z  c #3282C3",
"x  c #3786C4",
"c  c #3286CB",
"v  c #328CCC",
"b  c #398CCC",
"n  c #2E92CE",
"m  c #2F98CF",
"M  c #399AC6",
"N  c #3493CD",
"B  c #3A94CB",
"V  c #349BCD",
"C  c #3C9CCB",
"Z  c #2780D0",
"A  c #2A84D0",
"S  c #2B8CD1",
"D  c #338AD2",
"F  c #398CD2",
"G  c #2D93D1",
"H  c #2F99D2",
"J  c #3196D1",
"K  c #3A93D1",
"L  c #339CD2",
"P  c #3A9DD0",
"I  c #35A2CE",
"U  c #3DA1CC",
"Y  c #34A4D2",
"T  c #3BA1D1",
"R  c #35A9D3",
"E  c #438CC8",
"W  c #4999C7",
"Q  c #4395CC",
"!  c #439BCC",
"~  c #4B9CCE",
"^  c #589AC7",
"/  c #519CCC",
"(  c #448FD3",
")  c #4894D4",
"_  c #589AD9",
"`  c #6595C2",
"'  c #639DD9",
"]  c #45A6C6",
"[  c #4AA5C4",
"{  c #4BACC6",
"}  c #42A3CA",
"|  c #49A6C9",
" . c #46A9CA",
".. c #4AADCA",
"X. c #52AEC5",
"o. c #55A4CE",
"O. c #5DA6CE",
"+. c #53AEC9",
"@. c #4EB2C6",
"#. c #4EB2CB",
"$. c #54B4C5",
"%. c #5AB5C6",
"&. c #54BBC5",
"*. c #5BBCC5",
"=. c #53B5CA",
"-. c #5AB5C9",
";. c #55BACA",
":. c #5BBCC9",
">. c #41A7D0",
",. c #54A2D2",
"<. c #68A6C8",
"1. c #75ABCA",
"2. c #63BBC7",
"3. c #68A7D8",
"4. c #74A6DC",
"5. c #6AB4D2",
"6. c #79B7D8",
"7. c #7AA7E3",
"8. c #7DB2E0",
"9. c #5CC4C4",
"0. c #5EC8C3",
"q. c #5CC2C9",
"w. c #63C4C6",
"e. c #69C5C6",
"r. c #63CCC4",
"t. c #6ACCC6",
"y. c #63C4C9",
"u. c #65CCC9",
"i. c #6CCCC9",
"p. c #75C9C5",
"a. c #65D1C2",
"s. c #6BD4C4",
"d. c #6FDAC2",
"f. c #6CD4CA",
"g. c #73DBC5",
"h. c #7ADCC4",
"j. c #74D5C9",
"k. c #75DAC9",
"l. c #7CDCC9",
"z. c #79C2D5",
"x. c #70D0D2",
"c. c #76E1C2",
"v. c #7BE3C2",
"b. c #7EEAC0",
"n. c #7FE1C9",
"m. c #82BE9C",
"M. c #83BEA0",
"N. c #8FD194",
"B. c #99DC96",
"V. c #AADD90",
"C. c #9CE18E",
"Z. c #9BE298",
"A. c #A9E48A",
"S. c #B4E583",
"D. c #A4E293",
"F. c #92CFA1",
"G. c #87D9A6",
"H. c #82DEB5",
"J. c #89E1A9",
"K. c #96E4A4",
"L. c #83E4B8",
"P. c #89B7CD",
"I. c #92BACB",
"U. c #85ACD6",
"Y. c #86BBD5",
"T. c #BDB2DD",
"R. c #87ACE6",
"E. c #98ACE9",
"W. c #8CB5E4",
"Q. c #9AB7E9",
"!. c #9CB4EB",
"~. c #A6BAEC",
"^. c #B0B1EE",
"/. c #B9B8F3",
"(. c #DF83F1",
"). c #E386F6",
"_. c #E689FA",
"`. c #EB8DFF",
"'. c #EA93FF",
"]. c #E99BFF",
"[. c #D4AEFA",
"{. c #DCAEFC",
"}. c #C6B7F6",
"|. c #CCB1F3",
" X c #D4B4FA",
".X c #DCB3FC",
"XX c #DABAFA",
"oX c #E7A4FF",
"OX c #E8A1FF",
"+X c #E5ACFE",
"@X c #E4B3FF",
"#X c #E3BEFF",
"$X c #99C8CE",
"%X c #84DCC8",
"&X c #95D7CB",
"*X c #85C3D7",
"=X c #98C6D2",
"-X c #AEC9CE",
";X c #A8CBD5",
":X c #B1CED8",
">X c #A9D7DA",
",X c #B8D4D9",
"<X c #82E4C2",
"1X c #8BE4C5",
"2X c #84EAC1",
"3X c #8AEBC3",
"4X c #84E4CA",
"5X c #8BE3C9",
"6X c #8CE9CB",
"7X c #91E6C6",
"8X c #93EAC6",
"9X c #9BECC6",
"0X c #93E5CB",
"qX c #95EBC9",
"wX c #9BEBC9",
"eX c #9CEBCC",
"rX c #A1EDC9",
"tX c #A4EEC8",
"yX c #A6EEC9",
"uX c #A4F1CA",
"iX c #ABF0CB",
"pX c #A4E1D7",
"aX c #97C5E3",
"sX c #B5CAEB",
"dX c #B7D9E5",
"fX c #CEDDD2",
"gX c #C6D8D9",
"hX c #CCE2DB",
"jX c #D6E5DC",
"kX c #EBECD8",
"lX c #C8CDE8",
"zX c #C5D6EA",
"xX c #C9C9F2",
"cX c #D8C6FB",
"vX c #E2C4FF",
"bX c #E1C9FF",
"nX c #E0ECE5",
/* pixels */
"uXuXuXiXiXiXtXtX9X9X9X8X3X3X3X3X3X2X2X2X2X2X2X2Xb.b.b.b.f f f f f f f L.3X3X2X3X3X2X2X2X2X3X3X3X3X3X3X3X8X8X6X6X9XuXtXtXtXtXiXyX",
"9XuXyXiXiXtXtX9XyXL.9X3X3X3X3X3X2X2X2X2X2Xb.b.2Xf f f b.f f f f f f s 2X3X3X2X2X<X2X2X2Xb.2X2X2X2X2X3X3X3X<X0 9 5X9XrXrXyXyXtXyX",
"wXyXyXiXyXyX9XwX9X8X8X8X3X3X3X3XpXhXzXcXzXxXzX>XeX4Xa d f d a a f d s 2X3XL.2X<X2Xf 2Xf b.b.b.2X2X2X2X3X3Xp.%X4Xp.9X5Xz.eXrXyXyX",
"wXrXyXrXrX9X7X9X9X8X8X1X<X0XzX#XOX'.`.`.'.'.'.'.OX@XzXpXv.a a a a s L.2X2X2XL.K.K.L.<Xs v.b.v.f b.b.2X3X1Xl.u 6Xp.wXu %Xp.rXrXrX",
"uXwXwX9X9X9X8X7X8X8X1X3XpX#X'.`.`.`.`.`.`.`.`.`.`.`.`.].XXdX4Xa a s <X2X<Xn.K.A.S.L.n.v.v.c.d c.b.v.v.2X2X2Xu 4X2.%X%X0Xp.9XeX9X",
"wXwXwX9XwX8X8X7X1X1X1X>X+X`.`.`.`.`.`.; & $ $ % - ).`.`.`.].XX>Xg.v.<XL.v.p Z.L.Z.J.n.c.a c.d d c.v.2Xv.b.<X4Xu -.0 &X2.0X9X0XwX",
"wXwXqXwX7X8X7X1X1X<X5XXX`.`.`.`.`.`.; $ @ @ @ @ @ @ ; `.`.`.`.].lXH.D.A.J.p Z.L.Z.L.a a a a a i c.c.v.n.l.n.v.i.y.%X%.%X8X8X8XqX",
"wXwXqX0X7X1X1X1X1X<XdX`.`.`.`.`.`.`.* @ @ @ @ @ @ @ # _.`.`.`.`.'.gXZ.G.D.s K.G.A.p p Z.S.A.a d c.c.c.$., 8 2.8 -.-.$.6X6X6X6XqX",
"0X0X7X7X1X1X<X%X%X1X.X`.`.`.`.`.`.`.% @ @ @ @ @ @ @ # - `.`.`.`.`.oX&Xp H.A.A.B.D.p Z.D.i C.y i d.g.d.8 k.h.y.=.w.e.y.$.0 %.4X6X",
"1X7X7X7X1X1X%XH.h.>X'.`.`.`.`.`.`.`.% # @ @ @ @ @ @ @ - `.`.`.`.`.`.lXH.p G.Z.G.S.D.B.p y C.y d d.i f.8 g.g.w.8 [ +., e.%Xx.w.6X",
"5X1X5X5X%X%X%X%X%XxX`.`.`.`.`.`.`.`.- # @ @ @ @ @ @ @ ; `._.; `.`.`.+XZ.F.D.Z.B.G.B.V.A.A.C.i d.i s.s.r.8 8 r.g.{ [ j.%.-.4X0 6X",
"5X4X%X%X9 2.l.h.%X+X`.`.`.`.`.`.`.`.`.- $ @ @ @ @ @ $ _.; $ @ & `.`.].&Xi p S.B.B.  B.y i i a.a.a.i s.s.d.d.f.r.2.0 g.h.e.8 k.5X",
"4Xn.%Xj.j.e.l.p.Y.].`.`.`.`.`.`.`.`.`.`._.= $ # @ # - `.% @ @ $ `.`.'.>Xs.y S.N.F.  i i u i a.s.a.a.a.a.a.s.s.0 f.$.g.g.l.l.n.4X",
"n.h.h.j.0 t.p.%.sX`.`.`.`.`.`.`.`.`.`.`.`.`.`.; ; (.`.`.& # @ * `.`.'.:XG.A.B.  A.C.y u a.0.a.a.a.a.a.a.a.a.s.$.2.[ g.g.k.l.l.n.",
"l.h.k.g.u.:.2 *.}.'.`.'.].`.`.`.`.`.`.`.`.`.`.`.`.`.`.`.`.; ; `.`.`.`.fXB.y G.t V.r A.u a.a.0.0.r.a.t.r.a.r.a.t., { d.j.g.k.l.l.",
"l.k.j.f.s.{ ;.8 [.`.].#XvX+X`.`.`.`.`.`.`.`.`.`.`.`._.`.`.`.`.`.`.`.'.-Xu e.G.w.G.t t C.0.0.0.a.0.0.r.0.0.r.r.r.t.s.s.f.f.k.g.k.",
"k.t.8 { { , W o.+X`.@XvX#X#X].`.`.`.`.`.`.`.`.`._.; $ % _.`.`.`._._.OX$Xe r G.0.r B.r   e 0.0.0.0.0.0.0.w.t.t.r.t.r.a.a.f.f.k.k.",
"j.*.y.t.y.| X.-.OX'.#X#X#X#XOX`.`.`.`.`.`.`.`.`._.* @ @ * `.`.`.'.'.+XgXt B.r 9.9.N.  G.9.9.9.0.0.0.e 9.t.t.t.w.0.r.r.u.t.s.f.k.",
"j.t.0 *.$.[ W <.OX].vX#X#X#X+X`.`.`.`.`.`.`.`.`.`.* @ @ $ `.`.`.`.`.OX].lX0 0.9.9.&.e 0 9.9.9.9.9.9.9.w.e.u w.r.0.0.r.u.u.u.s.f.",
"f.t.y.2.w.{  .z.'.].#X#XvX#X+X`.`.`.`.`.`.`.`.`.`.= @ @ # _.`.`.`.'.'.'.oXp.&.9.&.9.9.2.y.w.9.*.9.*.&.w.w.y.y.w.q.9.q.0.r.u.u.f.",
"f.w.w.w.w.8 @.z.'.OXvX#X#X#X+X`.`.`.`.`.`.`.`.`.`.; # @ $ `.`.`.`.`.`.`.].z.q.&.&.&.q.w.y.2.w.*.&.&.9.9.9.*.w.y.*.q.q.9.r.r.u.u.",
"t.u.u.q.q.W M *X'.OXvX#X#X#X+X`.`.`.`.`.`.`.`.`.`.`.= # * `.`.`.`.`.`.`.oXz.&.&.&.&.w.e.w.w.:.*.&.&.@.9.2.7 w <.5 *.&.q.q.q.u.u.",
"y.w.q.:.:.=.[ *X'.OX#X#X#XvX+X`.`.`.`.`.`.`.`.`.`.`.`._._.`.`.`.'.`.`.`.@X-.&.&.&.q.2.2.2.2.2.*.&.&.&.&.<.w 6 6 7 %.;.q.q.q.0.u.",
"y.y.q.:.;.&.;.z.'.].vX#X#X#XOX`.`.`.`.`.`.`.`.`.`.`.`.`.`.`.`.`.].`.`.`.sX@.@.@.=.-.2.:.-.2.-.*.$.@.@.@.0 6 7 5 4 %.-.;.q.q.q.q.",
"q.q.;.;.&.@.@.z.].].#X#X#X#XOX`.`.`.`.`.`.`.`.`.`.`.`.`.`.`.`.].'.'.`.].aX$.#.@.$.%.%.%.-.*.-.-.$.@.@.@.$.=.4 5 5 5 4 %.:.;.q.q.",
"q.;.;.&.@.@.@.5.].'.#X#X#X#XOX'.`.`.`.`.`.`.`.`.`.`.`.`.`.`.'.#X`.`.`.#XY.=.#.{ { %.-.%.%.-.%.%.{ @.@.{ 6 4 . 5 @ 4 5 $.=.;.;.q.",
";.;.:.-.@.@.{ 5.OX`.#X#X#X#XOX`.`.`.`.`.`.`.`.`.`.`.`.`.`.`.#XOX`.`.].#X X=.{ { { $.%.$.%.%.+.$.{ { { { 5 [ 6 . 9 ..+.#.=.;.;.;.",
";.=.:.=.@.{  .$.+X`.@X#XvX#X+X`.`.`.`.`.`.`.`.`.`.`.`.`.`.OX@X`.`.`.vX'.'.~. .{  .+.+.+.+.+.+.{  . . .[ W 6 o.4 6  .{ +.#.@.;.;.",
";.#.#..... . .{ {.`.OX#XvX#X+X`.`.`.`.`.`.`.`.`.`.`.`.`.'.bX`.`.`.@X+X`.'.OX6. . . .{ +.+.+.{ [  .] ] { [ [  .3 4  .......#.#.;.",
"=.#.#... . .] ] }.`.].#X#X#X#X'.`.`.`.`.`.`.`.`.`.`.`.`.vXOX`.`.OXvX`.`.`.`..X5.] [ [ ..{  .[ ] [  .{ U ] ]  .] ]  . . ...#.#.#.",
"#....... .] ] } Q.`.`.#X#XvX#X#X'.`.`.`.`.`.`.`.`.`.`.#X+X`.`.OXvX'.`.'.`.`.`. X5.} } } } } } } } } U  .} } } ] } } }  . .....#.",
"#...>. .] U U } 5.].`.oX#X#X#X#X#X+X`.`.`.`.`.`.`.`.+X@X'.`.'.bX].`.`.OX`.`.`.`.+X6.} } M } ] } M ] U U } ! } } M } }  .}  ...#.",
"....] } } U M C ! |.`.'.@XvX#X#XvX#X'.`.`.`.`.`.`.+X+X`.`.'.vXOX'.`.`.'.@X`.`.`.`.OXsXo.C C M } ! U ! U ! U U ! U ] U } }  . .#.",
"..}  .} } U ! C C 6.].`.].@X#XvX#X@X`.`.`.`.`.`.].oX`.`.`.+X@X`.`.].`.`.#X+X`.`.`.`.'. XW.o.C C C C M M C C M M M M U } } ] >...",
">.>.} } M M C C C ! }.'.`.`.'.].'.`.`.`.`.`.`.`.`.`.`.`.].cX].`.`.].].`.`.cX+X`.`.`.`.`.].@X/.Q.8.3.o.! B C C C M C C C !  .>...",
">.} U } C M M M M B _  X'.`.`.`.`.`.`.`.`.`.'.`.`.`.'.'.cX,./.'.`.`.+X`._.{.sX+X`.`.`.`.`.`.'.'.].oX@X}.Q.~ M M M C M ! C ! >.>.",
">.} T C V C B N B B B _ }.OX'.`.`.`.`.OX@X].`.`.`.`.'.bX+XQ.~ }.`.`.OXOX`.`. XW.@X_._.`.`.`.`.`.'.`.`.`.'.~.N M ! ! B C U } } >.",
">.} ! C ! >.! B B B B N ~ ~.vX#X#XvXvX@X'.`.`.`.`.'.vXOX`.].Q.3.+X`.'.#X`.`.'.}.W.XX'.`.`.`.`.`.`.`.`.`._.|.N B ! } ! B V C C >.",
"T ! V C ~ ~ ! Q b N v N N v ) 3.4.4.@X_.`.`.`.`.'.vXoX`.`.`.].Q.!.'.`.OX@X`.`.`..XsXxXOX`.`.`.`.`.`.`.`.].R.n B ! ! C B V T T T ",
"T V P P ~ ~ ! ! B v v v N v v N N v ~.'.`.`.`.].cX|.].`.`.`.`.OXR. X`.`.#XOX`.`.`.].|.xXcXoX'.`.`.`.'.+X!.K v B B B K V ! ! C T ",
"I T V C ! ! ! Q B c v v v v l v l v B ^.@X+X.XE.. ` ^.].`.`.`.`.+X~.].`.'.vX'.`.`.`.`.].XXsXsX/.}./.!.O.v v v v v v v K V C P >.",
"T P B V ! ! Q B v v v v v h v v D h v v ) O.B v ~ O./ ~.].`.`.`.'.}. X`.`.].cX'.`.`.`.`.`.'.+X}.7.K D l v v v B N B J N N V P P ",
"P P N N ! Q Q K c c l h l v l l l l l l l l h E 3.O./ ~ R.oX`.`.`.].xX'.`.`.oX#X'.`.`.`.`.`.`.'.oX XR.K D l v c v N v N K P P L ",
"L P L n K B <.1.b A S k k l k k l l l k S k l Q ^ / / / v 7.oX`.`.`. X[.`.`.`.cXXX'.`.`.`.`.`.`.`.`.].!.v D v l l v J K K N P L ",
"L P J J J <.hX:XgXz l l k O k k c k c k k k k Q / / / / h k W.OX`.`.]./.'.`.`.OX7./.].`.`.`.`.`.`.`.`.+X) k c v S v J N n n L L ",
"L J J G l ;X6 k -X' k k k E c A k k A A k k j Q / / / W c k c ^.`.`.`.~.+X`.`.`./.c zX@X'.`.`.`.`.`.`.]._ k k l l v D v N H J L ",
"L J G v S =X! l <.1.A c I.nX;XX k k k k k k k c ) / ~ v k c k ( {.`.`.^.^.`.`.`.].' E ' E..X].`.`.`.`.oX( c k l v v v N n J P L ",
"L J J J S <.P.l E Y.O E :X> gX^ A k k k k k k j A c z O j k g k E.`.`.[.' OX`.`.`.|.D O l ( R..X]._.'.~.X c A l l v l l J H J L ",
"L H G G G h ;Xb c ;Xz Y.E + I.` j j k j k j j k A k k k c k k k ) OX`.OX( /.`.`.`.'.7.A k j j F 7.^.E.D X c A k l D S G n J J L ",
"L H L G S S B *Xz jX` -XX x zXx + j j j j j j j j o k / / x O j k [.`.]._ 4.'.`.`.`.[.D j j o o o O O + z k A A k l v n n J L L ",
"Y H J G G S l W 6.-XkX1.^ hX<.X + j Z j j j j j + + c ^ W ( o k O ^.`.'.4.O [.`.`.`.'.E.j j o + o o O k k k k k h h v G G J L L ",
"L H J J G G n n :X7 O.<.gX^ O O j j j j j j j j o + z ~ / b o g O R.`.`.E.+ R.'.`.`.`.oX_ Z o o o O X k k g l l l l B K H L L Y ",
"Y H { $XY.W h > fXI.1.gX^ X + + + + o j j o j j S + o ( K k : > o 1.'.`.|.j c {.`.`.`.`./.+ + o Z A j c k g v c l n v L L P L Y ",
"Y Y jX,X$XhX,XgXkXI.P.U.;XX x X X + o o j j j j o + j j o : M.m.3 ^ ].`.OXP.q 4.].`.`.`.]._ o + j j j D k c c l v v n J L L L Y ",
"Y 6.,XV V N <.$X7 1.;X> U.gXjXnX,XE j j j j j j o o j j o > q : q M.oX`.`.T.< 3 /.`.`.`.`.R.+ A A A A A c c v h n n H H L L L Y ",
"Y 5.$Xm H H V 6.jXI.W fX-X2 z X 1.,Xo + o j j j j j Z j o O 1 9 3 1 {.`.`.'.-X2 (  X`.`.`.R.O X X X A A c h n v N n H L L L Y Y ",
"R [ :X] m W *X5.$XfX=XkXhXjXW g k -XE A O o j j O b k o o o X : > N.|.`.`.`.OX~.F ) [.].{.) k X k k h g h v h n n N N M V Y Y Y ",
"R I +.>X>XdXW H 1.;X-X1.: 1.jX1.g :Xb + j o j Z c / b o o o O X > N.T._.`.`.`.'.}.F D 7.' + X k k A k l l l N h n N V V V Y Y Y ",
"R Y Y I ] M H H *X5.;Xo.l S W gXjX;XS j j A j Z A ) v k o j X 3 m.< -X_.`.`.`.`.`.R.j k + A k l A S l l x N N N N V I I V Y Y R ",
"R R Y I Y I V m -X{ $Xo.S l S h / c j j A j A k k k j j j o 2 t : 3 4 '.`.`.`.`.`.}.v k Z Z k k l D l n n h n M V B V V U T Y R ",
"Y Y Y Y Y Y H V :XV 6.O.G G S S S S j j A A A k j A j j k j 3 < > 9 c [.`.`.`.`.`.^.F k k A A S l l J G n N V m L V I C I Y R R ",
"R R Y R Y Y Y m hXV =X5.G G G S S S S S A A A j k j k A A j h 1 q z o 4.OX_.`.`.OX7.K l l S S S l G n G n N N V L V I U T Y Y R ",
"R R R Y Y Y Y I -X$XhXo.H G G G G S S S S A A A A A A A A A k k j j A A 7..X+X+XE.S l l S S S G S n H H N m V V Y Y I R R R R R ",
"R R R R Y Y Y V | &X=XN H H G n G n n S S S S l S l k A A A k A A k A A S K _ ) S S S S S S G S H G H H V L V V I Y I R R R R R "
};
