/* XPM */
static char *result[] = {
/* columns rows colors chars-per-pixel */
"64 64 242 2 ",
"   c #231F20",
".  c #2F2B27",
"X  c #464229",
"o  c #6B6732",
"O  c #396D7F",
"+  c #536164",
"@  c #71786E",
"#  c #97651F",
"$  c #AA650D",
"%  c #B76E17",
"&  c #B1742B",
"*  c #C87B1C",
"=  c #CC7826",
"-  c #C8702F",
";  c #CD7637",
":  c #8D754A",
">  c #937D57",
",  c #7E8650",
"<  c #718B77",
"1  c #79AA7A",
"2  c #8E900D",
"3  c #B68D15",
"4  c #979134",
"5  c #AF8A32",
"6  c #A5A62C",
"7  c #AFB026",
"8  c #B5B739",
"9  c #CC841B",
"0  c #D2851D",
"q  c #D4891C",
"w  c #C88930",
"e  c #CB8A3C",
"r  c #D28A3D",
"t  c #C9B92B",
"y  c #B7C227",
"u  c #CAC733",
"i  c #D9D73C",
"p  c #E0D83F",
"a  c #948E52",
"s  c #B48C46",
"d  c #96AC52",
"f  c #B4AC44",
"g  c #BBBA47",
"h  c #AEB250",
"j  c #8B926E",
"k  c #AD936F",
"l  c #8CAE6F",
"z  c #AEAF69",
"x  c #B9B965",
"c  c #D48C43",
"v  c #C49143",
"b  c #D49242",
"n  c #D99545",
"m  c #DD9948",
"M  c #E0964B",
"N  c #E29D4B",
"B  c #C4AB49",
"V  c #C3BA46",
"C  c #E5A04D",
"Z  c #C69C61",
"A  c #C3B86D",
"S  c #E9BC77",
"D  c #BAC153",
"F  c #96C373",
"G  c #A8C46B",
"H  c #C6C44A",
"J  c #D3CC4B",
"K  c #DBD54B",
"L  c #C7C956",
"P  c #D0CF55",
"I  c #D7D556",
"U  c #E4DC49",
"Y  c #F1D854",
"T  c #EAE349",
"R  c #F3EB4C",
"E  c #F9EB4F",
"W  c #EDE552",
"Q  c #F4E852",
"!  c #FBEC52",
"~  c #FEF453",
"^  c #D4D666",
"/  c #D8DB6E",
"(  c #EECC6F",
")  c #DEE072",
"_  c #E2E477",
"`  c #1B7391",
"'  c #397094",
"]  c #3979A6",
"[  c #2C77B4",
"{  c #367CB7",
"}  c #4E7A8D",
"|  c #5179B3",
" . c #7969B3",
".. c #7277B4",
"X. c #297ECA",
"o. c #267FD0",
"O. c #946684",
"+. c #9E4FA5",
"@. c #895CAA",
"#. c #9455A6",
"$. c #8765AB",
"%. c #8A71AD",
"&. c #3885B9",
"*. c #3591BB",
"=. c #598A90",
"-. c #688E90",
";. c #5CA59A",
":. c #73AD8E",
">. c #4F90B2",
",. c #698ABA",
"<. c #7585B7",
"1. c #6797BC",
"2. c #7596B9",
"3. c #4AA5BC",
"4. c #59A8B1",
"5. c #57B4BE",
"6. c #6BADA8",
"7. c #67B9A8",
"8. c #6BB0B2",
"9. c #79C696",
"0. c #5AC6BF",
"q. c #70CAAF",
"w. c #6CD5BC",
"e. c #6EDBBF",
"r. c #76DCBA",
"t. c #6EE0BE",
"y. c #74E4BE",
"u. c #7BE5BE",
"i. c #7BE9BF",
"p. c #2C82C5",
"a. c #2680CD",
"s. c #2B84CD",
"d. c #2D8ACD",
"f. c #3588C9",
"g. c #328DCC",
"h. c #2E92CE",
"j. c #2F98CF",
"k. c #3A96C5",
"l. c #3493CC",
"z. c #3A94CB",
"x. c #349BCD",
"c. c #3C9CCB",
"v. c #2580D0",
"b. c #2A84D0",
"n. c #2B8CD0",
"m. c #358ED0",
"M. c #2D93D1",
"N. c #2F99D1",
"B. c #3196D1",
"V. c #339CD2",
"C. c #3A9DD0",
"Z. c #35A2CE",
"A. c #3DA1CC",
"S. c #34A4D2",
"D. c #3BA1D1",
"F. c #35A9D3",
"G. c #428DC8",
"H. c #548DC6",
"J. c #4798CA",
"K. c #439BCC",
"L. c #579AC6",
"P. c #6190C2",
"I. c #45A6C6",
"U. c #49A6C6",
"Y. c #4BACC5",
"T. c #42A3CA",
"R. c #46A9CA",
"E. c #4AADCA",
"W. c #54ABC6",
"Q. c #4DB2C6",
"!. c #4EB2CB",
"~. c #4FB9C8",
"^. c #53B4C5",
"/. c #5AB5C6",
"(. c #56B8C7",
"). c #5BBCC6",
"_. c #54B4CA",
"`. c #55BACA",
"'. c #5BBCC9",
"]. c #41A7D0",
"[. c #69A6C6",
"{. c #64BAC6",
"}. c #73B0CF",
"|. c #5CC7C3",
" X c #5DC4C4",
".X c #5DC2C9",
"XX c #63C4C6",
"oX c #63CCC4",
"OX c #67C8C8",
"+X c #75C9C5",
"@X c #67D1C2",
"#X c #6BD4C3",
"$X c #6EDAC1",
"%X c #6CD3CA",
"&X c #73DBC3",
"*X c #7BDCC4",
"=X c #77D9C9",
"-X c #75E2C1",
";X c #7BE4C2",
":X c #7EEAC0",
">X c #7FE1C9",
",X c #9F9995",
"<X c #87BB8C",
"1X c #B6AD91",
"2X c #BBB7AD",
"3X c #CAAF8F",
"4X c #E5BA8A",
"5X c #E4BE97",
"6X c #CCBAA8",
"7X c #91CA8C",
"8X c #9AE39C",
"9X c #ABE58C",
"0X c #82D6A9",
"qX c #8FE3A6",
"wX c #82E4BB",
"eX c #E9C282",
"rX c #E5C19F",
"tX c #C7C5A9",
"yX c #89B8CE",
"uX c #84DDC8",
"iX c #99C7D3",
"pX c #A9CAD5",
"aX c #B1D0D5",
"sX c #83E4C3",
"dX c #8BE4C5",
"fX c #84EAC1",
"gX c #8AEBC3",
"hX c #89E5CA",
"jX c #93EAC6",
"kX c #9BECC6",
"lX c #93E8C8",
"zX c #9BEBC9",
"xX c #9DF0C9",
"cX c #A4EEC8",
"vX c #A4EEC9",
"bX c #A6F0CA",
"nX c #CACECE",
"mX c #D5E4DD",
"MX c #E6EADC",
"NX c #E3E8E6",
"BX c #F6F5F4",
"VX c #FFFFFF",
/* pixels */
"bXbXcXbXvXcXvXcXlXhXwXkXjXjXgXgXgXgXfXfXfXfXfXgXgXfXgXfXfXi.i.i.:X:Xi.i.i.i.wX:XfXwXfXfXfXfXfXfXgXgXgXgXjXkXkXkXxXbXbXbXbXbXbXbX",
"bXcXcXcXcXvXcXuX4.W.uX0X<Xl q.gXgXsX:XsX:XfXfX:XsXgXgXgXfXwXi.i.i.i.i.i.i.i.i.:Xi.:X:X:XfXfXfXfXgXfXgXgXjXkXkXkXkXcXbXbXbXbXcXcX",
"vXvXcXzX+XhXkX+XsXhX1 U H g J G q.9.1 :.r.7Xl ;XwXfXfXfXwXwXu.y.i.i.y.i.y.i.i.i.i.i.i.i.:X:X:X:X:XgXgXgXgXjXjXkXkXkXkXbXbXbXcXvX",
"zXvXcX+XuX+XzX+XhX6.J :.sXgXr.l H g J J L x W F 8XwXsXsXwXu.u.u.y.y.y.y.i.y.i.i.y.y.y.i.:X:X:X:X:XfXgXgXdXjXjXjXkXjXkXkXcXcXvXkX",
"zXzXxX+XzXuXuX{.hXd l fX:XsX;X;X7XK K T U r.l F 9XqX;XsXsX;Xu.y.t.-Xy.y.y.y.y.y.t.y.y.-Xy.;X;Xi.:X:X:XsXdXgXdXjXlXlXkXzXkXcXzXvX",
"lXzXxXhX{.hXW.{.5.V q.sX;XsX;X-Xq.H E ~ L H 0X8XwX8Xr.y.wXu.y.r.y.d y d t.t.t.t.-Xy.-X-X-X-X-X-X;X;X;X>XdXdXdXdXdXlXlXzXzXkXzXzX",
"lXlXlXlXuX/.=X{.8.g u.>X>X>X-X-X-Xq.1 D 9.G G 8XqXqXu.qX9XD 7 7 y R R D F t.t.t.t.t.t.-X-X-X-X-X-X;X-X;XsXsXdXdXdXlXlXlXzXzXzXzX",
"lXlXhXhXhX/.{.'.>.h 3.*.^.-X-X-Xt.y.F D z l l 9X7X6 6 6 8 R ~ ~ R R ~ I D G 9.t.e.e.e.e.e.e.e.t.$X-X-X-X>XsXsXdXdXwXdXdXlXlXlXzX",
"lXhX^.W./.XXOX{.3.4 r.=X3.&X$X$Xe.r.F K l F 9.G K ~ ~ ~ ~ ! ~ ~ i y T J _ _ 6 t.e.e.e.e.e.e.#Xe.e.e.-X&X*X*XuXsXuXdXdXlXlXlXlXkX",
"hX{.=XhXOX*.W.U.3.h q.&XU.#Xe.$Xw.qXF 1 y u y T ~ ~ ~ ~ K 8 4 o i y i P _ _ / D 1 t.w.e.e.$Xe.#X$X#Xe.e.&X*X*XsXwXuXuXlXuXlXlXdX",
"hX.XuX/./.=X3.Y.%Xl =.3.|.#X#X9.1 D y i ~ ~ ~ R W f o .       X ~ i R I _ _ _ _ d $Xw.@Xe.@Xe.#X$X#X$X&X$X&X*XuXuXuXuXuXdXdXuXdX",
"hX=X3.OX*X&XQ.{.XX1 l r.#X#Xw.7 i ~ ~ ~ ~ R g o           . X o T T R T _ ) ^ _ d w.@X@X@X@Xw.#X#X#X#X#X#X%X&X*XuXuX5.4.uXdXuXhX",
"hX>X=X>X&X&X^.%X5.7.f 7.@X#Xq.i R T ~ R f .       . + 2XNXVX2XK ~ i i ~ I D 2 ^ d w.@X@X@X@X@X@X@X@X@X@X@X#XOX3.+X=XXX=X+XuXhX>X",
"=X*X=X*X=X&XY.{.^.@Xl l @XoX@Xf i y H X   . . @ f L BXVXVXVXVX2XR ~ ~ ~ J D 2 D <X0.@X@X0.@X|.@X@X@X@XoX@X@X5.OX/.+XOX5.=X=X>X=X",
">X=X=X=X&X%X^.*.oXoX;.H 7.@X|.1 T K B   + 2XBXVX6X1XVXVXVXVXVXVXG ~ ~ ~ P / 2 L F @X@X@X@XoX@X@XoXoX|.@X@XoX X3.).3..XOX=X=X*X=X",
"=X=X&X%X%X@X%XoXoXoX0.1 h 0.|.w.8 ~ U j VXVXVXVXVXnXyX8.VXVXVXVXtX~ ~ R P _ _ _ P @X0.0.|.@X|.|.|.oXoX|.oXoXoX5.I._.Y.%X%X=X*X=X",
"=X$X%X#X@XoXoXoXoX@XOX5.H l .X< G ~ ~ tXVXVXVXyXiXnX} ` mXVXVXVXtX~ ~ ~ ^ _ _ _ L 9.|.|.|. X X|.|.0.oXoXoXXX XXXU.K.*.W.Q.J.#X=X",
"=X%X%XOX%XoXoXoXXXoXOX+X;.J :.s 7 ~ ~ tXVXVXVXO =.2X>.` nXVXVXVXtX~ ~ ~ I _ _ _ D 5.).|. XXX X'.0.0.XXXX{.3.I.3.3.Y.T.OX#XOX/.=X",
"%X%XoX%XoXoX.X|.XXXXXX+XXXa 5 5 3 E ~ 3XVXVXVX} } 2X,X&.BXVXVXVXL ~ ~ ~ K ^ 8 _ D 0.|.|..X2.,XP.XXXXXXOXOXW.'.*.J.K.3.^./.5.OX=X",
"%X%XoX|..X.X.X XXXXXXXXX:.5 * 0 * t T 4 x tXVXpXpX2X,XmXVXVXVX1XW ~ ~ ~ K ) 8 _ ^ 5..X|.2.#.%.#.,X{.XXOXOX3.3.`.(.Y.3.oX).OXOX#X",
"%XOX|. X.X.X.X'.XXXXXXXX:.= - * ; t J K ~ W x tX2X1XrX1X,X2Xz Y Y E ~ ~ J _ _ _ ) :.|.~.$.2.(.[.@.{.XX.XOXOXXX'.^.Y.Y. XOXXXOX%X",
"%XoX X.X|..X).<.[.[.2.{.(.a = = - t ! 4 ! ~ ~ ~ ~ ( rXrX5X5X4X! ! ! ~ ~ u ^ D ) ) 1 ~.[.%.'.(.{.%.{.{.{.'.{.{.'.^.3.K..X.XXXOXOX",
".X.X X X'.`.{.2.1.2.2.5.~.^.> r 0 t ~ U s f V V S rXrXrXrXrXrXS ~ ~ ~ ~ J 8 2 g L :.~.<.1.(._.8.%.{.'.{.{.{.'.`.~.I._.'.'.XXXXOX",
"OX.X'..X`././.,.<.1.1.~.^.^.5.a 9 w ~ Y Y rXrXrXrXrXrXrXrXrXrXrX( ~ ~ ~ K L 2 6 8 <.8.#.W.^.W.%.2.{.'.'.'.'.'./.^.~.`.`.'..X X X",
".X.X~.`./.,.<.<.<.2.W._.Q.Q.Q.5.j 4 T E ( rXrX5X5X4X5XrXrXrXrXrX4X! i T U _ D D A #.#.%.^.1. .<././././././.`.~.Q.Q.~.`.(.)..X X",
".X.X`.`._.<.,.%.<...,.1.Y.Y.Q.Q._.5.p E rXrXrXrX6XBXMX4X4X5XrXrXrXY u u T ) _ _ _ O.$.1.,.<.1.Y._./././././._.Y.Q.Q.Q.Q.~.(.`..X",
"`.`.`.!.!.W.E.,.<.H.W...Y.Y.Y.Y._.6.E Y rXrXrXrX6XVXVX6XrX4X5XrXrX( W T K I ^ _ ) < W.%.<.Y.Y.U.E.!._././._.Q.Y.Q.Q.Q.Q.'.'.`.`.",
"`.`.!.!.W.E.E.,.,.W.>.L.Y.Y.R.Y.Y.:.! ! rXrXrXrX,XnXBX6XrXrX5X5XrX4X! ~ u H 6 _ P < ..#.W.Y.U.Y.R.U.Y.E.W.E.Y.Y.R.R.Y.Y._.`.`.`.",
"`.!.!.E.E.].U.,.,.R.U.R.R.R.R.R.U.1 R E 5X5XrXrX5X3Xk 3XrXrXrX4XrX4X~ ~ H _ L _ g ..%.#.U.R.R.R.U.R.U.R.Y.I.I.I.R.E.R.E.E._.!.`.",
"!.!.!.E.E.R.I.I.I.R.I.I.I.I.I.I.3.3.i ~ 4XrXrXrXrXrXrXrXrXrXrXrXrX4X~ ~ I _ _ _ L $...+...L.U.L.U.U.I.I.I.I.I.I.I.I.I.R.E.E.!.!.",
"!.!.].E.R.R.T.I.T.T.T.T.I.T.T.T.c.c.K ~ ( rXrXrXrXrXrXrXrXrXrXrXrX( ~ ~ U _ ^ ^ P ,.H.$.+.#.@.@.$...I.I.I.T.T.T.T.I.R.R.E.E.E.!.",
"!.!.E.].].T.T.c.T.T.T.K.A.A.K.T.A.4.T ~ ! 4XrXrXrXrXrXrXrXrXrXrXrX( ~ ~ K _ G W 8 $.#.,.H.P.H.P. .#...K.A.K.T.T.c.T.T.R.].].E.!.",
"!.E.R.T.T.A.A.c.T.c.A.K.c.T.c.A.k.;.~ R T Y eXrXrXrXrXrXrXrXrX5XS ~ ~ ~ J _ x I j #.#.$.>.K.c.K.J. .@.K.c.K.c.K.A.k.A.I.I.I.E.E.",
"].R.I.T.T.A.K.c.k.c.c.c.c.c.c.c.c.;.i i y ~ Y 4XrXrXrXrXrXrXrXS ! ~ ~ E ^ ) x H l #.H.H...K.K.c.c.>.#.K.K.c.c.c.k.A.A.A.A.I.].E.",
"E.].T.A.c.c.c.z.c.c.c.c.c.c.k.c.c.k.H R u ~ ~ ! ( S 4X4XS S Y ~ ~ ~ ~ ~ ^ _ D L x @.J.c.P...B.z.K.| $.K.c.c.c.z.A.c.c.c.c.R.R.R.",
"].].T.c.A.k.c.c.c.c.z.c.z.z.z.x.k.x.K ~ ~ ~ ~ ~ ~ ~ ! ! ! ~ ~ ~ ~ ~ ~ E ^ P x V f $.G.z.m. ...H.H.@.H.z.k.z.z.k.k.c.k.A.c.C.R.].",
"].T.K.c.k.c.K.K.k.k.k.z.z.l.z.z.B.J.u ~ T i Q ~ U u p ! R u u p U t t V 3 $ # g >.@.G.z.l.G... . .| z.m.k.z.z.l.l.c.C.K.c.].T.].",
"].].c.c.z.c.J.K.z.l.z.l.z.l.l.l.z.J.5 3 3 = & 3 3 0 q 3 9 q q 9 9 q q * $ $ # g f.@.z.l.z.g.g.m.m.m.k.m.m.g.z.z.z.K.J.K.c.C.c.].",
"D.].C.c.x.K.K.J.z.l.z.g.l.l.g.g.g.k.% = ; C r q q q = - q q q = = 9 ; % $ $ $ 8 .. .m.g.l.g.g.l.m.m.m.z.m.z.g.m.K.K.J.].c.c.C.].",
"D.c.C.C.z.l.z.z.g.l.l.g.l.g.g.h.g.&.9 - C N = q - = * 0 q q = c C = = % $ ; $ g #.| g.l.g.g.g.g.g.g.g.m.f.l.g.z.K.K.K.J.C.C.c.D.",
"D.C.C.l.z.B.g.m.m.m.g.g.g.d.g.g.f.=.q = M ; 0 q q q q q q = M N N * q % $ c M V ..f.g.g.g.g.s.g.d.g.g.g.g.g.g.m.J.K.K.K.K.m.C.D.",
"D.C.C.c.l.B.z.m.g.g.g.g.g.g.d.f.}.,X= q * q 0 = r = q q q = N N ; q q * $ $ c B [ f.d.d.g.g.g.g.g.g.d.g.g.g.f.f.m.K.K.K.V.C.C.D.",
"D.V.C.m.B.g.g.g.f.g.m.d.d.g.d.f.yX@ M = - = = N N ; q q q = N r q q q % $ $ $ V O f.g.d.m.d.d.g.d.s.d.g.d.d.d.g.G.J.K.K.l.B.V.C.",
"C.V.l.l.B.l.g.g.s.m.d.m.d.d.g.s.[.k N = q q = M c 9 q q q q = 0 = ; q $ $ $ $ B # &.b.d.d.s.d.s.d.a.d.s.s.d.g.m.}.[.m.m.l.B.V.C.",
"V.V.l.l.g.g.g.m.g.g.s.p.s.s.d.d.n.& * q q q q = = q q 9 q 0 q q = = q $ $ $ : h >.p.s.s.d.s.s.d.d.g.s.p.b.d.p.nXaXmX[.n.l.B.V.V.",
"V.V.M.B.g.B.g.d.d.s.s.s.s.d.s.s.@ & } : q w q * @ 9 q @ : a q 9 w q 0 # # : @ x =.p.s.d.s.s.s.p.a.X.G.s.f.s.L.aXs.L.pXg.M.B.V.V.",
"V.B.B.h.l.g.d.g.d.s.f.X.p.g.s.s.a.b.s.| : < & : f.@ : p.p.] % @ } : @ } } j -.z =.o.o.a.s.X.b.s.o.pXNXyXs.b.}.[.d.J.iXn.n.B.B.V.",
"C.B.B.B.d.d.g.d.g.b.p.X.X.X.s.a.v.b.b.s.] d { } p.p.{ s.d.] , a.p.p.v.a.-.C c B a @ { o.s.s.b.b.H.nX>.aXG.b.yXG.a.yX}.n.B.B.B.V.",
"V.M.V.M.M.n.g.d.a.s.s.X.X.X.X.X.a.a.a.X.h ] s.a.a.a.s.s.a.j ' a.s.o.o.m.=.b N f s c v & > > > @ j j | G.yXX.aXf.G.pXg.n.M.N.N.V.",
"V.V.B.M.l.g.s.g.d.b.s.p.s.X.X.X.o.X.a.` J [ a.o.a.a.a.a.[ h *.a.o.o.G.J.J.| s B B M M e v b v n C n v X.aX1.mXX.yXG.n.M.M.N.N.V.",
"V.V.M.M.h.g.d.p.s.b.p.s.f.X.X.b.o.o.o.X.h < s.o.a.a.a.p.' I } o.s.o.J.J.J.m.{ s K s C m v C C C C m c >.}.MXpX}.J.n.n.M.M.N.V.N.",
"V.V.V.V.l.l.h.d.g.b.p.b.X.X.o.o.X.o.o.o.] P } p.a.a.a.a.4., K < X.o.G.J.H.b.s.=.W K s C C c e c b m ; 3X-.[.2.pXn.n.M.B.M.V.N.V.",
"S.V.S.C.B.g.h.d.g.f.X.s.f.o.b.o.o.o.[ < < a U < [ s.p.X.6.] < J h < X.G.m.X.a.] g W B b m n N C N m C C n b 5 k *.p.J.iXiXE.S.S.",
"S.S.V.V.B.B.d.l.d.f.f.s.b.b.b.X.[ < h W R ! ~ W } 6.4.X.} d I ~ Q h p.o.a.a.a.[ + I K e n N c b n b n C C C n C s pXmXiXaXmXC.S.",
"S.S.V.N.V.j.h.d.d.d.s.f.b.b.b.o.} a g W ~ T l ] >.4.-.< J R ! Q < 6.&.o.X.a.o.o.[ } j } c c m m n N m e m C C n r j k.h.x.aX}.F.",
"S.V.V.V.V.j.h.h.g.d.g.f.d.f.X.X.X.' J h ' [ a.a.*.<Xd V Q ! H < 6.6.a.v.o.o.X.o.o.o.o.o.} v m c n b r C n C C C m s x.N.x.iX}.F.",
"S.S.S.V.x.x.l.h.h.g.p.p.p.p.s.p.X.p.[ [ v.a.X.a.a.&.O , f j <X&.[ a.a.a.v.p.m.X.a.a.a.a.b.>.v c b n c w N C C C N N =.j.I.aXI.F.",
"S.S.S.c.z.x.l.g.l.g.l.l.h.d.n.b.s.p.X.s.a.o.o.o.a.X.X.>.:.:.7Xp.a.a.v.a.v.m.L.s.v.a.a.a.o.f.aX@ n e m N r m C N N N 1XaXaXQ.F.F.",
"F.S.S.x.x.x.x.k.g.l.g.p.d.d.n.b.s.s.v.s.a.o.s.o.a.p.o.6.:.7X;.7X4.v.v.a.o.m.J.b.v.a.a.a.s.s.aXmXk C n n C C N N N n -.A.Z.S.S.F.",
"F.S.Z.Z.Z.x.x.x.k.h.g.h.d.d.g.d.s.d.b.b.d.g.m.s.a.a.>.6.6.[ >.p.:.>.v.b.X.s.s.o.a.b.a.v.s.a.f.L.>.: N b m m b b r n >.Z.Z.S.S.F.",
"F.S.D.Z.c.x.x.N.x.g.h.h.M.h.d.d.n.d.b.b.b.G.m.d.a.a.7.;.6.p.4.&.;.>.a.b.b.X.b.b.n.a.a.n.b.b.b.n.d.g.@ m c c N N N j S.Z.Z.S.F.F.",
"F.F.S.D.S.Z.Z.V.x.x.j.l.M.M.M.d.n.n.n.d.n.m.m.a.a.a.&.6.f.a.&.6.7.f.a.b.b.b.b.o.s.b.n.b.b.n.n.n.n.M.n.< v C n M s *.S.S.S.F.S.F.",
"F.F.F.S.F.S.S.Z.c.j.V.l.N.M.M.M.n.n.n.d.n.n.d.b.b.d.b.b.b.b.b.s.f.b.b.b.b.b.s.b.a.b.n.n.h.h.d.M.M.M.M.B.>.A Z j J.Z.S.F.F.F.F.F.",
"F.F.F.F.S.S.Z.Z.Z.x.V.l.N.N.N.M.B.n.n.n.n.n.n.n.d.b.b.b.s.b.b.b.b.b.s.b.b.s.d.b.n.b.n.n.n.n.n.M.M.N.N.M.C.iXiXT.Z.Z.S.S.F.F.F.F."
};
