/* XPM */
static char *result[] = {
/* columns rows colors chars-per-pixel */
"64 64 241 2 ",
"   c #59170E",
".  c #5B170E",
"X  c #62281F",
"o  c #6C342A",
"O  c #73421F",
"+  c #4E5826",
"@  c #535C27",
"#  c #7C4826",
"$  c #774A35",
"%  c #5B6429",
"&  c #666C2A",
"*  c #6C742D",
"=  c #747C31",
"-  c #2D3846",
";  c #53565D",
":  c #72524B",
">  c #4B5662",
",  c #576975",
"<  c #804A27",
"1  c #844F33",
"2  c #8E7632",
"3  c #A37934",
"4  c #8C5546",
"5  c #95705A",
"6  c #8F6E69",
"7  c #AB7C6E",
"8  c #7B8331",
"9  c #798F55",
"0  c #749074",
"q  c #72A87F",
"w  c #848A35",
"e  c #8B8D34",
"r  c #8E9436",
"t  c #89913B",
"y  c #909737",
"u  c #9B9235",
"i  c #9F9438",
"p  c #AB8D37",
"a  c #BA8E38",
"s  c #A99839",
"d  c #B59A3C",
"f  c #BBA33E",
"g  c #C09E3F",
"h  c #C4A13F",
"j  c #8C8E49",
"k  c #BA9B47",
"l  c #AE9256",
"z  c #88A65B",
"x  c #ADA25D",
"c  c #B7A65A",
"v  c #999A69",
"b  c #879675",
"n  c #8F9173",
"m  c #B48B68",
"M  c #AB966A",
"N  c #A88A79",
"B  c #B98D73",
"V  c #BC9275",
"C  c #98AB71",
"Z  c #A6A466",
"A  c #AFA869",
"S  c #C49B52",
"D  c #CAA843",
"F  c #D3AD45",
"G  c #D1A74F",
"H  c #CFB14F",
"J  c #D5B245",
"K  c #DCB446",
"L  c #DCB64A",
"P  c #DCB84A",
"I  c #C6AC53",
"U  c #E1B647",
"Y  c #E4BB4A",
"T  c #E8BF4B",
"R  c #C3967D",
"E  c #C8B373",
"W  c #B8E779",
"Q  c #EDC34C",
"!  c #2D7BBE",
"~  c #367EB7",
"^  c #47778E",
"/  c #5D7CA1",
"(  c #7675B1",
")  c #2A7FC9",
"_  c #2C7FC9",
"`  c #975799",
"'  c #93718E",
"]  c #9158A8",
"[  c #8A6CAB",
"{  c #3987B9",
"}  c #388FB8",
"|  c #578C93",
" . c #6D918C",
".. c #5DA49A",
"X. c #6EAA94",
"o. c #4787A9",
"O. c #5191AE",
"+. c #4597B8",
"@. c #6A8BBA",
"#. c #7585B7",
"$. c #6797BC",
"%. c #7498BA",
"&. c #49A6BC",
"*. c #58A7B3",
"=. c #58B5BC",
"-. c #68ADA6",
";. c #6DAFAE",
":. c #5DC5BB",
">. c #72CCAC",
",. c #7BD3AB",
"<. c #67C8BA",
"1. c #6BD6BD",
"2. c #6DDBBF",
"3. c #75DBBB",
"4. c #6EE0BE",
"5. c #74E3BE",
"6. c #7BE5BE",
"7. c #77E8BD",
"8. c #7BE9BF",
"9. c #2C83C5",
"0. c #2680CE",
"q. c #2A84CD",
"w. c #2C8ACD",
"e. c #3588C7",
"r. c #328DCC",
"t. c #2E93CE",
"y. c #2F98CF",
"u. c #3897C6",
"i. c #3493CC",
"p. c #3994CB",
"a. c #349BCD",
"s. c #3C9CCB",
"d. c #2780D0",
"f. c #2984D0",
"g. c #2B8CD0",
"h. c #388FD0",
"j. c #2D93D1",
"k. c #2F99D2",
"l. c #3296D1",
"z. c #339CD2",
"x. c #3A9DD0",
"c. c #35A2CE",
"v. c #3DA1CC",
"b. c #34A4D2",
"n. c #3BA1D1",
"m. c #35A9D3",
"M. c #4A89C5",
"N. c #469AC9",
"B. c #439BCC",
"V. c #589AC7",
"C. c #609CC2",
"Z. c #45A5C6",
"A. c #4BA5C5",
"S. c #4BACC5",
"D. c #42A3CA",
"F. c #48A7C8",
"G. c #46A9CA",
"H. c #4AADCA",
"J. c #54ABC7",
"K. c #4DB2C6",
"L. c #4EB2CB",
"P. c #4FB9C8",
"I. c #53B4C5",
"U. c #5AB5C5",
"Y. c #54BAC6",
"T. c #5BBCC5",
"R. c #54B4CA",
"E. c #5AB5C9",
"W. c #55BACA",
"Q. c #5BBCC9",
"!. c #41A7D0",
"~. c #68A6C5",
"^. c #64BAC6",
"/. c #72B0CE",
"(. c #5CC7C3",
"). c #5DC5C4",
"_. c #5DC2C9",
"`. c #63C4C5",
"'. c #63CCC3",
"]. c #63C4C9",
"[. c #68CAC8",
"{. c #75C9C5",
"}. c #66D1C2",
"|. c #6AD4C2",
" X c #6DD9C1",
".X c #6CD4CA",
"XX c #73DCC3",
"oX c #7BDCC4",
"OX c #74D7C9",
"+X c #7CDCC9",
"@X c #75E2C1",
"#X c #7BE4C1",
"$X c #7EEAC0",
"%X c #7FE1C9",
"&X c #84928F",
"*X c #8AB28C",
"=X c #B0AC94",
"-X c #8E94A7",
";X c #9EB2A8",
":X c #C79981",
">X c #C99B83",
",X c #C1BA9D",
"<X c #90CD93",
"1X c #99DC96",
"2X c #A6DC8E",
"3X c #9CE18E",
"4X c #99E299",
"5X c #A9E48A",
"6X c #ADE48A",
"7X c #87D9A7",
"8X c #86DEAF",
"9X c #8AE3AD",
"0X c #CDC594",
"qX c #C9C6B7",
"wX c #8DB8CB",
"eX c #87BAD2",
"rX c #84DDC8",
"tX c #94C5D2",
"yX c #ADCBCF",
"uX c #A7CBD5",
"iX c #B8D5D8",
"pX c #83E4C2",
"aX c #8BE4C5",
"sX c #84EAC1",
"dX c #8AECC2",
"fX c #89E5CA",
"gX c #93EAC6",
"hX c #9BECC6",
"jX c #93E8C8",
"kX c #9BEBC9",
"lX c #9DF0C9",
"zX c #A4EEC8",
"xX c #A4EEC9",
"cX c #A6F0CA",
"vX c #ADD8E3",
"bX c #CED8D4",
"nX c #CCE2DB",
"mX c #DEE1DF",
"MX c #D8E6DC",
"NX c #DFE8DA",
"BX c #D2E8E5",
/* pixels */
"xXxXcXcXcXcXzXzXhXhXkXgXdXgXdXdXsXdXsXsXsXsX$XsX$X$X$X$X8.8.$X8.8.8.$XsXsXdX9XfXsXdXsXsXsXsXsXdXdXdXdXdXgXdXfXfXlXcXcXzXzXzXzXcX",
"lXxXcXcXzXzXzXzXhXhXkX9XdXdXdXdXsXsXsXsXsX8.$X8.8.8.8.$X7.7.8.8.8.8.$XsXsXdXdXsXsXfXsX$XsXsXsXsXsXdXdXdXgXpX=.*.jXhXzXzXcXcXzXcX",
"kXxXcXcXzXzXhXhXhXgXgXgXsXdXsXsXsXsXsX$X8.$X7.7.7.7.7.7.7.7.7.7.7.7.8XsXsXfXsXsX8XsXsX$X$X$X$XsXsXdXdXdXdX{.+XfX{.hXjX{.kXxXcXcX",
"zXzXcXzXhXhXhXgXgXjXgXaXsXsXsX$X8.#X#X7.7.7.7.$X7.$X7.7.5.5.5.7.8.7.$XsXsXsXsX4X9XpX$X#X7.#X#X$X$X$XsXsXdXrX`.fX{.jX^.rX/.kXxXxX",
"kXxXxXhXkXhXhXgXgXaXjXaXfX$X#X#X#X#X7.@X@X5.5.4.@X5.4.5.5.5.4.5.5.6.#XsX6.#X4X6X6X9X%X#X#X6.7.7.$X$X$XsXpXsX<.pX^.rXrXjX{.zXhXkX",
"kXkXkXkXjXjXgXgXaXaXaXpX$X#X#X#X@X@X@X@X@X4.@X@X@X4.@X4.@X4. X4.2.#XpXsXoX6.4X8X4X9X#X#X3.5.5.7.@X@XpX$X#XpXfX<.^.J.rX^.jXkXkXkX",
"kXkXkXjXjXjXaXaXaXaXpXaX#X@X#X@X@X4.@X@X@X4.4.4.4.4.4.4.4.4.4.4.5.8X2X6X9X3.9X8X4X8X#X7.3.6.5.5.@X@X#X%X%X$X#X[.^.rXU.pXjXjXjXjX",
"kXjXjXjXjXaXaXaXaXpXpX+X@X@X@XXX@X2.2.4.2. X4.4.4.4.1.4.4.4.4.4.XX9X4X7X5X8X9X9X6X3.3.3X6X5X4.4.@X@X@XR.} S.^.A.Q.Q._.fXfXfXdXjX",
"jXjXjXjXjXjXaXrXpXrXrX3.@X@X X2. X X1.1. X X X1.1. X X X X X X1.3.1X7XoX8X6X6X1X2XoX4X4X4.3X,.4. X X X&.OXXX].E.].].`.U.I.I.fXjX",
"aXjXaXjXfX8XrXrXrX3.oXXX2. X X X X X X X1. X1. X|. X1. X X1.|. X X8X1X8X3.8X1X7X6X6X1X,.,.3X,.4. X X XS.XXOX`.&.A.J.} `.fXOX`.fX",
"rXjXrXaXrXrXrX3.rXoXOXOX X X|. X1.|. X}. X X|.1.|.1.|. X X|.|.1.|.3.7X4X4X1X1X1X1X1X5X6X5X3X1. X X|..X:.&.&.'.OXJ.A.OXU.E.rXT.fX",
"rXrXrXrX=.^.+XoXoX3. X|.|.|.|.|.|.|.|.}.}.}.}.}.1.}.}.1.|.}.}.1.|.|.OX|.XX,.6X1X1XW 1X3.1.}.1.}.}.|.|. X XXX X(.^.S.oX+X[.&.OXfX",
"fXpXrX{.OX`.+X{.&.'..X}.}.}.}.}.}.}.}.}.}.}.'.}.}.}.}.}.|.}.1.|.[.|.|..X|.,.6X1X7XW >.1.}.'.}.}.}.1.}.}.}..X.X=..XU.XXXX+X+XrXpX",
"rX+X%XOX=.[.{.U.[.=.}.}.'.}.}.'.}.'.}.'.}.}.'.}.}.}.'.}.}.'.(.}.1.'..X>.7X6X<XW 5X1X,.}.'.}.}.}.}.'.'.'.}.|.|.I.Q.S.OXXXOX+X+X%X",
"%X+XOXOX[._.+.T.S._.'.}.'.'.'.'.}.'.}.}.'.'.}.'.'.'.'.'.<.}.<.<.'.1.<.3X2X>.7X,.2X>.3X<.'.}.(.'.'.'.'.'.}.'.'.[.} K. X.XOXOX+X+X",
"OXOXOX.X.XH.W.S.=.'.'.'.(.'.'.(.(.'.(.(.'.(.(.'.(.C C :.:.q <.<.0 q ,.3X`.<.7X'.<X>.,.1X(.'.'.'.'.(.'.'.(.'.'.'.}..X.X.XXXOXOXOX",
"OX.X&.S.S.} A.F._.:.'.(.(.'.).).(.(.).).(.(.(.(.>.Q Q p t r t 9 y 8 z q X.<.7X<.>.3X>.5X:.`.(.(.(.(.(.`.`.[.[.'.'.[.}.|..X.XOXOX",
"OXT.]..X].N.S.A.S.A.+.(.[.`.).).).).`.).(.(.).).X.Y U Y s s r * 8 8 % 8 r C >.:.:.<XW 7X:.).(.(.(.(.).<.[.[.[.'.'.'.[.'.'..X.XOX",
"OX[.=.T.I.S.N.N.} Q.J.].`.].`.^.%.-X%.T.).).).^.n i D Q Q Q f e 8 r y y y r e 9 ..-.).=.).).).).).).).`.[.<.].[.(.).`.'.[..X.X.X",
".X[.`.^.`.&.S.Y.Q.V.&.[.[.`.^.-X] [ ] %.T.Y.T.&Xf i Q Q Q Q Q U Y r y y y 8 = w y t = * 9 -...-.).T.Y.).`.`.].].).)._.].(.'.'..X",
".X[.[.`.).&.S.W._.`.].`.`.`./.[ ~.T.%.[ T.=.0 5 p h Q Q Q Q Q Q Q h h h r r & & t y w 8 r w e w 8 -.P.).).T.].^.T._.)._.].[.[..X",
"[.[._.)._.Z.&.I.Y.^.^.^.^.^.`.[ ^.P.U.[ ~.=.f H F Q Q Y h h h h Q Q Q Q Q f h s y y y y w r w r y ..).=.^.%.;.~.#.W._._.(.(.].].",
"`.`._.Q.Q.R.Z.K.T.T.T.T.^.).^.[ ~.I.I.$.[ R. .j J Q Q h h Q Q Q Q Q Q Q Q Q Q h s d w w r y y y t =.P.P.^.%.%.$.$.^.P._._._._..X",
"]._._.Q.W.Y.Y.I.R.^.E.T.T.T.Q.%.[ J.I.X.[ ~.( &Xv l h Y Q Y h h Q Q Q Q Q P h K Q Q e y y y y y j P.P.P.S.$.$.#.@.U.L._._._._._.",
"_._.W.W.Y.P.K.L.I.E.E.U.U.T.E.U.#.( $.U G ` ` ;X; -X,X3 5 p d h Q Q h Y Q f u u Y s y 8 @ * y y t S.K.K.I.E.@.#.#.#.@.U.Q.Q._._.",
"_.W.Q.Y.K.K.L.K.L.I.E.U.E.U.E.I.J.$.( c Q S ' ;X- , bX=X; , qX=Xl s h Q Q h u i Q s y % + + 8 y y 9 K.S.$.@.( #.[ @.@.E.E.W.Y._.",
"W.W.Q.E.K.K.K.K.S.S.R.U.R.R.J.H.H.H.&.&XP Q l bX' ;XqX-X- - mXmXE Q Q Q Q Q Q Q Q J r % + + & r y t A.S.#.F.$.( @.H.J.K.K.W.W.W.",
"Q.Y.R.R.K.S.Z.Z.H.H.S.S.J.S.G.H.F.F.A.J.` G T c bXmX,XyX> &XmXmXE Q Q Q Q Q Q Q Q Q u % + + % r y t A.Z.V.C.D.@.@.S.H.S.L.L.W.W.",
"W.L.L.H.H.H.G.Z.G.Z.Z.Z.Z.S.Z.G.F.H.S.A.] [ m D c A c mXmXmXmXbXP Q Q Q Q Q Q Q Q Q s 8 + + % y y 9 v.K.Z.S.G.$.@.A.H.H.H.L.L.W.",
"L.L.L.H.G.Z.Z.Z.Z.Z.Z.Z.Z.Z.F.F.V.A.J.( ` 7 B R B m g =XmXmXmX,Xh Q Q Q Q Q Q Q Q Q u y * @ 8 y y 0 G.v.Z.Z.Z.Z.D.G.G.G.H.L.L.L.",
"L.L.H.H.G.G.D.Z.D.Z.D.Z.v.N.( ] ] ] ] ` 7 >X>X:X>X:X:X7 =X,XM k Y Q Q Q Q Q Q Q Q K r y y y y y y 9 v.Z.D.B.Z.D.Z.D.D.G.H.L.H.L.",
"L.H.!.!.D.D.v.Z.D.D.s.D.D.@.] ( / ' N m B 7 7 7 m :X:X>XV S Q L K h Q Q Q Q Q Q Q h y y y y y w y e &.v.D.D.s.Z.s.D.D.D.!.!.H.L.",
"L.H.Z.D.v.Z.s.s.N.u.v.B.s.] [ / :X5 5 -X. . . . X qX1 7 >XR D U Q Q Q Q Q Q Q Q Q Q u y y y e + 8 y | v.B.s.v.Z.s.s.Z.D.D.G.H.L.",
"!.G.D.D.s.v.s.s.v.s.s.B.B.] 6 :X4   4 ' . . . . : 6 . . 1 R m U Q h Q Q Q Q Q Q Q Q h y y y e + % r 0 c.s.s.s.u.v.N.u.v.D.D.!.H.",
"G.!.D.s.s.s.s.s.s.s.p.s.B.] :X:Xo . 4 4 . . . . X o o o . o R l Q Q Q Q Q Q Q Q Q Q h e h h u & * y | c.s.B.s.s.u.s.s.v.v.!.G.!.",
"!.D.Z.v.s.s.p.p.u.u.p.u.p.M.7 >X:X4 o o X o o o $ 7 >X>X7 4 $ R F Q f s Q Q Q Q Q Q h e Q Q Q f r r } y.s.p.u.u.u.s.s.s.s.B.!.H.",
"!.D.n.s.B.x.x.p.p.h.p.p.u.p./ N :X:X:X:X>X>X>X>X>X>X>X>X>X>X:X>Xc Q h y h Q Q Q Q Q s y f U Y T J j p.i.p.u.p.u.B.B.s.s.s.v.D.!.",
"!.D.B.s.B.B.B.p.p.p.p.r.r.p.l.p./ &Xm :X>X>X>X>X>X>X>X>X>X>X>X>XV Q Q Q Q Q Q Q Q Q d y y y y r J Y b p.p.p.i.p.B.B.s.p.s.s.n.!.",
"!.x.s.s.V.!.B.B.r.i.r.r.h.r.r.i.e.e.N :X>X>X>X>X>X>X>X>X>X>X:XB l Y Q Q Q Q Q Q Q Q Y e y y y y e f Q v } i.i.p.N.B.B.p.s.B.s.!.",
"n.s.z.x.B.N.B.N.p.r.h.r.i.r.i.w.| I S >X>X>X>X>X>X>X>X>X>X>X>XB J Q Q Q Q Q Q Q Q Q Q y y 8 y y y e v Y Z M.r.p.p.p.l.s.x.x.x.n.",
"c.x.u.x.B.B.B.B.h.e.r.r.r.w.e.b Y I  .R :X>X>X>X>X>X>X>X>X>X>XR U Q Q Q Q Q Q Q Q Q Q i y + * y r r |  .Y x +.h.h.r.r.x.i.s.x.x.",
"n.x.a.x.B.B.h.B.p.r.r.r.r.| I T Z e.e.N >X>X>X>X>X>X>X>X>X>X>XR U Q Q Q Q Q Q Q Q Q Q y y % @ y r w 0 e.| L c e.r.h.l.i.i.x.x.n.",
"z.s.l.a. .M I I M  .{ o.v Q H | e.w.q. .>X>X>X>X>X>X>X>X>X>X>XS Q Q Q Q Q Q Q Q Q Q Y r y w & y r y | 9.h.o.H c e.r.r.i.h.x.x.x.",
"z.z.l. .P h D T Q T L U T n { q.f.g.g.e.N >X>X>X>X>X>X>X>X>X>XG Q Q Q Q Q Q Q Q Q Q U e y y y y y y | f.h.h.O.H x u.i.l.l.a.z.z.",
"z.z.i.b F Q D Y U F T T n _ q.) q.f.h.q.~ B >X>XR R >X>X>X>Xl T Q Q Q Q Q Q Q P Q Q Q d y y y r 8 r 9 { e.q.w.o.H Z r.l.i.i.l.z.",
"z.z.i.I Q k Q n yXC.o.c K  ._ ) q.f._ q._ ~ n >XR R >X>X>Xm K Q Q Q Q Q Q Q i u h Q Q h y y y r % r e o.q.f.q.e.o.H v g.l.l.z.z.",
"z.l.l. .k T v w.J./.q.w.c L yX! q.q.q.q.q.q._ k m R R R l K Q Q Q Q Q Q Q Q u i f Q Q f y y y y * e r o.q.e.q.g.g.o.F b } l.l.z.",
"z.l.l.r.A H ;.w.M.eXq.M.0XT bXV.q.q.q.q._ _ ~ U T h h h 2 3 g h K Q Q Q Q Q h h Q Q Q y y y y y e * % ! _ e.f.r.0 G T Q Y c | z.",
"z.k.k.j.e.} uXh.e.uX_ eXV P wX~.d.d.d.d.d.0. .i P Q Y K < < < # a p p p p p p p p p p & & & & & & e 8 w._ q.q.n Y c A Y Q Q T b ",
"z.k.j.j.j.j.p.eX_ nX%.yXb n iXe.) d.d.d.0.9.P Q Q Q s u # < < # K Q Q Q Q Q Q Q Q Q Y u y y y y y y t q.q._ e.L b w.r. .Y Q L L ",
"b.l.l.k.j.w.g.B.eXyXNX/.M.BX~._ d.d.) ) 0.9.b F Q Q u p # < < # U Q Q Q Q Q Q F f Q Q f y e t r y y r { q.) { U  .w.p.j. .Z Z D ",
"z.l.k.k.j.j.g.w.yX~.~.%.BXC._ _ d.d.d.) 0.0.0 l x Q c 3 < < < # Y Q Q Q Q Q Q f i h Q f y & % t y r r ~ q.9.w.c { g.p.r.u.I +.I ",
"b.z.S.tXtXN.w.} bXwX~.bXV._ _ ) ) ) ) ) ~ v b 9.e.{ ) : O O < # v c Q Q Q Q Q Q h Q Q f y r t t 9 ^ ^ e.f.q.e.e.t.w.r.z.s.A &Xb ",
"b.n.nXiXuXnXiXbXNXyXwX/.uX_ _ _ ) ) ) o.k | ) 0.) ) ! # # # # # O.*.0 P T A *Xn P Q Q r y i r 9 0.0.q.g.q.e.e.w.w.r.t.z.z.C C ..",
"b./.iXy.j.u.J.uX%./.uX{ wXnXmXBXiXO.v x { ) 0.0.) 0., $ # # < $ ;.*XX.| X.....+.!  .D 9 , H l q.0.q.0.f.e.r.g.w.i.t.y.k.a.Z C m.",
"b./.tXc.k.k.i./.NXwXV.bX&Xb n x H P n ) d.) 0.0.) ) $ O # # < $ *.X...<X..&.*X} 0.) ! ) 0.o.U  .9.0.q.w.q.e.w.r.t.t.y.k.a.&XX.m.",
"b.Z.iXZ.a.B.tX^.tXbXwXqXh Q Q Q Q Q ~ _ q.) d.0.) h., : # < < $ { *X*XX.1X-.} 0.) ) ) d.d.d.0 Y o.q.9.9.9.e.r.w.r.t.a.a.a.z.b.b.",
"m.c.S.vXvXvXN.j./.yXyX=Xh Q Q Q L H ~ e.) ) 0.d._ B.g.) _ ^ ; ; { <XX.*Xo.0.9.0.) ) ) d.d.d.9.c c w.w.e.w.r.t.i.i.a.a.a.a.a.b.b.",
"m.b.a.c.Z.u.k.k.tX/.uX=XU x | yXMXuXg.0.d.d.f.d.f.N.e.q.0.0.q.O.X...<XX.-.) ) 0.) f.q.q.d.d.f.o.L 0 r.r.r.i.w.i.i.u.a.c.z.n.b.m.",
"m.b.b.b.b.b.a.y.uXA.tX-. .r.t.e.V.e.0.0.d.d.f.f._ f.q.0.q.0.} *X} *.! -.-.+.q.0.q.h.r.q.f.f.9.c Y T c 0 } r.a.p.p.a.a.c.c.c.m.m.",
"m.m.b.b.b.k.b.a.vXx./.~.j.j.g.g.g.g.0.g.f.f.q.f.f._ d.d.f.) +.-._ -.9.-...;._ q.f.h.h.w.q.f.w.Z Y Q Q Q L b O.z.z.a.c.s.c.c.m.m.",
"m.m.m.b.b.b.k.a.nXx.tXE.j.j.g.j.g.f.g.f.f.g.f.q.f.f.f.f.f.q.e.-.-.e.q.e.-._ f._ q.h.h.q.w.g.q.g.{  .I Q Q F j x.z.a.c.b.n.n.n.m.",
"m.m.m.m.b.b.b.b.yXuXnXJ.j.j.j.j.j.g.g.g.g.f.f.f.f.f.f.f.f.f.f.q.q.0.f.f.f.f.f.f.f.w.g.w.g.g.g.j.j.j.j. .H D  .a.b.c.c.m.m.m.m.m.",
"m.b.m.b.b.b.b.c.Z.tXtXa.k.j.y.j.j.g.t.j.w.g.g.g.f.g.f.f.f.g.q.0.w.q.q.f.q.q.g.f.g.w.g.g.g.j.j.j.j.k.k.k.+.C } a.c.b.c.m.m.m.m.m."
};
