/* XPM */
static char *result[] = {
/* columns rows colors chars-per-pixel */
"64 64 254 2 ",
"   c #1C3509",
".  c #2F2D0B",
"X  c #4C300E",
"o  c #583A16",
"O  c #683A10",
"+  c #563F25",
"@  c #2B4910",
"#  c #385816",
"$  c #3C6A22",
"%  c #524718",
"&  c #684717",
"*  c #764A10",
"=  c #79571B",
"-  c #4C731D",
";  c #696112",
":  c #5D4623",
">  c #674826",
",  c #775728",
"<  c #715630",
"1  c #4A7228",
"2  c #547A26",
"3  c #68722D",
"4  c #5E6857",
"5  c #72674F",
"6  c #6E7671",
"7  c #8A4D0F",
"8  c #875819",
"9  c #975916",
"0  c #A85812",
"q  c #8A6318",
"w  c #996B15",
"e  c #AF7116",
"r  c #875B24",
"t  c #985F2A",
"y  c #886628",
"u  c #986926",
"i  c #997827",
"p  c #8A6736",
"a  c #977735",
"s  c #A87A29",
"d  c #B27129",
"f  c #A77A39",
"g  c #C67117",
"h  c #CB7A29",
"j  c #8E744B",
"k  c #AA7D47",
"l  c #4A862B",
"z  c #578929",
"x  c #578E2F",
"c  c #599534",
"v  c #6D9232",
"b  c #679A36",
"n  c #77A32E",
"m  c #69A33A",
"M  c #76A73C",
"N  c #599152",
"B  c #6A964F",
"V  c #77A847",
"C  c #7BB44B",
"Z  c #70AC51",
"A  c #5B9668",
"S  c #739171",
"D  c #78A969",
"F  c #70AC72",
"G  c #B2881E",
"H  c #8D8632",
"J  c #A98539",
"K  c #B38B31",
"L  c #CD8D14",
"P  c #DFA619",
"I  c #C78529",
"U  c #C98E30",
"Y  c #CDA737",
"T  c #938A52",
"R  c #B0904D",
"E  c #8CB251",
"W  c #9B9064",
"Q  c #8AB469",
"!  c #85B677",
"~  c #B6AC73",
"^  c #CA984A",
"/  c #D0AC51",
"(  c #E4B248",
")  c #D5B66C",
"_  c #9DD06C",
"`  c #ABD077",
"'  c #E0C46A",
"]  c #E7C86D",
"[  c #397CB4",
"{  c #52738E",
"}  c #657D88",
"|  c #507CB7",
" . c #7A6FAE",
".. c #7869B3",
"X. c #6779BA",
"o. c #7679B5",
"O. c #2A7EC9",
"+. c #287FD0",
"@. c #92639C",
"#. c #8A5DAB",
"$. c #9555A6",
"%. c #9554A8",
"&. c #8965AB",
"*. c #8971AC",
"=. c #3B8DBB",
"-. c #578A82",
";. c #748D8F",
":. c #69B28D",
">. c #5C86BD",
",. c #5093B6",
"<. c #7198A5",
"1. c #688ABB",
"2. c #7585B7",
"3. c #6797BC",
"4. c #7498BA",
"5. c #5AA8A2",
"6. c #49A6BC",
"7. c #56AABA",
"8. c #58B5BC",
"9. c #6DABB4",
"0. c #77C79A",
"q. c #5DC5BC",
"w. c #74CEAA",
"e. c #67C8BA",
"r. c #6CD5BA",
"t. c #6EDBBF",
"y. c #75DBB9",
"u. c #6EE0BE",
"i. c #75E3BE",
"p. c #7BE5BE",
"a. c #7BE9BF",
"s. c #2E84C5",
"d. c #2680CE",
"f. c #2B84CD",
"g. c #2D8ACD",
"h. c #3687C8",
"j. c #328DCC",
"k. c #2E92CE",
"l. c #2F98CF",
"z. c #3996C6",
"x. c #3493CC",
"c. c #3A94CB",
"v. c #349BCD",
"b. c #3C9CCB",
"n. c #2780D0",
"m. c #2A85D0",
"M. c #2B8CD0",
"N. c #358ED0",
"B. c #2D93D1",
"V. c #2F99D2",
"C. c #3196D1",
"Z. c #339CD2",
"A. c #3A9DD0",
"S. c #35A2CE",
"D. c #3DA1CC",
"F. c #34A4D2",
"G. c #3BA1D1",
"H. c #35A9D3",
"J. c #448BC6",
"K. c #578BC2",
"L. c #4798C9",
"P. c #439BCC",
"I. c #5799C6",
"U. c #4A97D0",
"Y. c #6291C1",
"T. c #45A6C6",
"R. c #4BA5C4",
"E. c #46A9C6",
"W. c #4BACC6",
"Q. c #42A3CA",
"!. c #4AA3CA",
"~. c #46A9CA",
"^. c #4AADCA",
"/. c #54ABC7",
"(. c #4EB2C6",
"). c #4EB2CB",
"_. c #4FB9C8",
"`. c #54B4C6",
"'. c #5AB5C6",
"]. c #54BAC6",
"[. c #5BBCC6",
"{. c #54B4C9",
"}. c #5AB5C9",
"|. c #55BACA",
" X c #5BBCC9",
".X c #41A7D0",
"XX c #68A6C6",
"oX c #76AACA",
"OX c #63BAC6",
"+X c #71B3D0",
"@X c #5CC7C3",
"#X c #5DC4C4",
"$X c #5DC2C9",
"%X c #63C4C6",
"&X c #63CCC4",
"*X c #63C4C9",
"=X c #68CAC8",
"-X c #75C9C5",
";X c #66D1C2",
":X c #6AD4C3",
">X c #6EDAC1",
",X c #6CD4CA",
"<X c #73DCC3",
"1X c #7BDCC4",
"2X c #74D7C9",
"3X c #7CDCC9",
"4X c #70D0D2",
"5X c #75E2C1",
"6X c #7BE4C2",
"7X c #7EEAC0",
"8X c #7FE1C9",
"9X c #8B938F",
"0X c #91AC8F",
"qX c #97A1A9",
"wX c #8ECF92",
"eX c #98DB96",
"rX c #AFD19B",
"tX c #9CE18E",
"yX c #9BE398",
"uX c #A9E489",
"iX c #B0E485",
"pX c #86D8A6",
"aX c #83DCB1",
"sX c #8DE3A6",
"dX c #83E4BA",
"fX c #E4D390",
"gX c #87B6CC",
"hX c #8EB6CA",
"jX c #87BAD2",
"kX c #84DDC8",
"lX c #93C4D2",
"zX c #98C5D3",
"xX c #ACCDD2",
"cX c #A8CBD5",
"vX c #B8D4D9",
"bX c #83E4C3",
"nX c #8BE4C5",
"mX c #84EAC1",
"MX c #8AECC2",
"NX c #89E5CA",
"BX c #93EAC6",
"VX c #9BECC6",
"CX c #93E8C8",
"ZX c #9BEBC9",
"AX c #9DF0C9",
"SX c #A4EEC8",
"DX c #A4EEC9",
"FX c #A6F0CA",
"GX c #ADD8E3",
"HX c #C6D9D6",
"JX c #CCE2DB",
"KX c #D6E5DC",
"LX c #E1E9DC",
"PX c #D2E7E4",
/* pixels */
"DXDXFXFXFXFXSXSXVXVXVXBXBXMXMXMXMXMXmXMXmXmXmX7X7X7X7X7X7X7X7X7Xa.a.dXmXmXmXMXMXMXnXmXmXmXMXMXMXmXMXMXMXBXBXNXCXVXFXSXSXSXSXFXFX",
"AXDXFXFXSXSXSXSXVXVXVXdXMXMXMXMXmXmXmX7X7Xa.mXdX7X7Xa.7X7X5X7Xa.a.a.mXMXMXMXMXdXbXmXmXdX7X7XmXmXmXmXMXMXBXkX8.7.nXVXZXDXSXSXSXFX",
"ZXDXFXFXSXSXVXVXVXBXBXBXMXMXMXdXmX7XmXa.a.a.a.wXwXa.aXa.pX_ i.D y.i.a.dXwXMXmXdXmXdXmXp.7X7X7XmXmXmXMXMXMXr.kXbX-XVXnX-XZXDXDXDX",
"SXSXFXSXVXVXVXBXBXCXBXnXmXmXmX7X7X7Xa.i.a.a.i.i.! 0.y.pXE ` 0.T F a.dXF pXnX! yXsXbXmXp.7X7X5X7X7X7XmXMXnX1X=XNX-XZX-XkX-XDXDXDX",
"ZXDXDXVXZXVXVXBXBXBXnXnXmX7X6X6X6X6Xi.6X5Xi.i.i.dXE 0XwXD E _ V A aXw._ aXD wXiXiXdXbX5Xp.i.p.a.7X7X7XmXbXNXOXNXOXkXkXCX+XZXZXZX",
"ZXZXZXZXCXCXBXBXMXnXnXnX8X7X6X5X5X5X5X5X5X5Xu.5Xy.wXM H E n E M B pXE ! S D yXaXyXsX6X8Xi.i.i.i.5X6XbX7X7X7XbXe.OX/.kXOXCXZXZXZX",
"ZXZXZXCXCXCXnXnXnXbXbXbX6X5X6X5Xi.5X5X>X5Xu.u.u.t.y.E E z 2 E M z Q E _ 2 w.yXaXyXdXp.p.y.i.i.i.5X5X6X8X3X7X7X,XOXkX}.NXMXCXBXBX",
"ZXCXCXCXCXnXnXnXnXbXkXbX5X5X5X<X5Xt.u.u.>Xu.w.r.t.t.F Q 2 - n n - n Q v E aXsXaXuXy.y.yXiXuXu.u.5X5X5X{.=.6.[.R.}.OX$XNXNXNXCXCX",
"CXCXCXCXnXnXnXkXkXkXkXy.<Xt.t.<X>X>Xu.t.t.r.t.w.r.r.r.C z l b n $ M M v wXtXiXeXtXy.eXeXr.tXw.u.>X>X>X6.2X1X%X}.*X*X*X'.7.`.NXNX",
"CXnXCXCXnXdXkXkXbX1X1X<Xt.<X>Xt.>X>X>X>X>X;Xt.w.D r.u.F M l m c l m c - w.pXeX! iXuXeXaXy.tXsXu.>X>X>XW.<X<X%XE.!./.=.=XNX2X%XNX",
"kXCXNXkXkXkXkXy.1X3X2X<X>X>X:X>X>X;X;X>X;X>X;Xr.0.C u.A C M z b x M - # Q Q v wXsXuXtXuXuXtXr.>X>X:X:X@X6.6.&X2XW.T.2X`. X3XOXNX",
"NXkXkXkX9.OX3XkX1Xy.:X:X:X:X:X:X>X:X;X;X;X>X;X;Xt.C Z w.m C l z m z # @ ! x ` yXeX` yXw.r.;X;X;Xr.:X:X:X<X>X>X%XOX8.1X1X=X6.2XNX",
"NX1XkX2X2X%XkX-X6.&X,X;X;X;X;X;X;X;X;X;X;X;X;X;Xr.0.M Z c C l l V #   b E F ` yXpX` r.r.e.&Xr.;X&X;X;X:X:X:X:X8.=X`.<X<X1X3XkXNX",
"3X3X3X2X8.=X=X'.=X8.;X;X&X;X;X&X&X;X;X&X;X;X;X;X:X:.c m c C x $ x @ - E 2 ` eX` iXuXpX;X&X;X;X;X;X&X&X;X&X;X;X`.*XW.2X<X3X2X3X8X",
"3X1X2X<X=X X6.8.W.$Xr.&X&X&X&X&X;X;X&X&X@X;X;X@X5.0.c c m Z l # 1 - V v D w.D 0.rXy.uXe.&X&X&X&X&X;X&X@X;X;X;X=X=.(.,X2X2X2X2X8X",
"3X2X2X,X:X^.{.T.[.&X&X&X@X&X@X&X@X&X@X@X;X@X@X;XA F F z c C l # B b c D :.A pXe.sXw.w.eX@X&X&X@X@X@X&X&X@X&X&X=X&X:X:X>X,X2X2X5X",
"2X=XT.W.6.z.L.R.*X#X%X@X@X&X&X@X@X@X&X@X@X%Xq.@Xe.m N l l l l l B z 2 Z N F F #Xw.tXw.` e.@X@X@X@X&X@X@Xe.=X=X&X&X&X=X:X,X,X,X2X",
"2X[.*X:X=X!.7.T.6.T.6.$X%X%X8.].@X%XOX%X#X#X@X@X@X9.x l $ l c c # # @ % 1 Q e.@X@XwXiXpX#X#X#X@X@X@Xq.%X=X=X&X%X=X&X&X;X=X:X>X2X",
"2X=X7.[.8.W.Q.L.z.'./.*X%X%X%XOX4.9XY.=X$X$X$XOX9X*.S x l c l c 2       A :.q.@X@X@Xq.8.$X#X#X#X#X#X#X%X=X=X%X%X#X@X&X&X=X=X,X,X",
",X=X=XOX#X6.E.].}.6.7.=X=X%X%XqX$.*.%.Y.[.|.|.9X@.S @.A c l m C v @   $ A  X].q._.#X#XOX%X%X[.#X].#X].%X%X%X%X%X#X$X$X*X@X&X,X,X",
"=X=X&X%X$X6.(.].$X%X*X%X*XOX-X@.XX[.4.&. X].[.&.XX9.M F M c c M - @ @ l [.8.[.[.].].$X%X*X%XOX[.].]._.#X$X%X*X*X|.[.$X$X@X&X=X,X",
"=X=X*X$X$XP.6.`.[.OXOXOX XOXOX*.OX_.].*.XX].'. .{._.9Xm n M c x @ - b N N 8.].].].$XOX%X%XOX$X[.].].#X8.OX4.9.XX2.|.#X@X$X*X*X&X",
"=X#X$X$X[.{.Q.`.].[.OX[.OX$XOX*.XX`.`.3.*.(.3.2.{.9.W Z b C b 2 2 c # 1 A 8.].].]. X*XOXOX XOX[.].].].].9.XX4.3.4.'.$X_.$X$X$X4X",
"*X$X$X[.|.].].(. X}.[.}.[. X}.4.&.'.`.'.&.XX2.4.{.&.;.N x m V v 1 % 1 1 5.`.(.(.|. XOX}.[.OX X}.].`.(.(._.3.1.2.1.'.).$X$X$X$X$X",
"$X$X|.|.].(._.).{.'.'.}.'. X'.'.2. .XX/.*.$.$.3.2.#.9.:.z - v n 1 # 2 N -.8.(.).{.'.'.'.'.[.'.}.`.(.(.(./.}.2.2.2.4.1.'. X X X$X",
"$X|. X|.(.(.(.W.(.{.'.'.}.'.}.`./.3.o.1.I.#.&.3.%.3.9.! B z z E - # 1 4 ).W.W.W.(.'.'.{.'.}.'.'.(.(.E.(.3.1.2.2. .2.2.`.|.|.|.$X",
"|.|. X}.).(.E.(.W./.{.'.{./.{.^.W.E.6.2.*.XX/.o.&.7.W.7.Q E v E 3 1 # 3 W.(.W.W.W.`.'.`./.}.`.{.W.E.(.W.1.R.3.o.1././.)._.|.|.$X",
"|.|.{.{.(.(.E.W.T.^.W.W./.W.^.E.E.W.R./.%.o.o.&.$.o.3.*.T 3 3 v 3 % % < E.E.~.E.E./././.`././.W.W.E.E.E.I.1.R.3.1.E.W.{.).).).|.",
"|.{.).^.^.E.T.E.~.E.T.E.E.T.E.E.E.E.E.W.%.*.o. .o.&.&.o.<.H ; ; q X o -.7.W.W.T.T.E.{.`./.W.W.W.T.E.E.E.T.!.T.>.1.E.^.~.^.).).|.",
").).).^.E.E.T.T.E.E.T.T.E.T.T.!.I.R.I.o.%.o. .o.I.o.1./.T.W = G K a y : i ;.7.E.T.T.T.!.E.R.T.T.E.E.E.Q.T.T.T.T.!.Q.Q.~.~.).).).",
").)..X^.~.~.Q.Q.Q.Q.Q.T.T.T.X.#.#.#.$.%.&.Y.Y.K.$.%.%.$.o.W K / fXY = R R & j 6.Q.T.Q.Q.Q.Q.Q.Q.Q.T.D.Q.Q.T.Q.Q.Q.T.~.~..X^.).).",
").^.^..XQ.Q.Q.D.D.Q.Q.b.D.X.$.*.1.K.K.K.X.%.&.K.%.#.o.*.k ) J / ) H p K K & a <.Q.Q.P.Q.Q.Q.Q.Q.D.P.D.Q.Q.Q.Q.b.Q.Q.~.~..X~.^.).",
"^.~.Q.Q.T.b.D.b.b.b.b.b.P.&...P.P.P.b.K.#.%.%.K.$.>.T.~ / ( / K i R ' p : & = j ,.b.b.Q.b.P.D.b.Q.b.Q.b.P.b.Q.b.b.T.Q.Q.Q.E.^.).",
"^.~.E.T.D.Q.b.b.P.b.P.P.P.$.K.P.b.b.P.o.J.K.%.K.#.I.W.Y G Y ] Y H G / 8 j ~ & & S D.b.b.b.b.b.b.b.b.b.b.b.b.b.b.b.z.b.Q.Q.Q..X^.",
"^.G.Q.Q.b.b.b.b.z.b.c.b.c.#.| c.b.b.X.K.b.U.#.U...X.:./ Y G K H fXT ; o q ^ , p T ,.b.c.b.b.b.b.b.c.b.b.b.b.b.b.z.b.b.D.P.~.~..X",
".X.XD.b.D.z.c.z.z.b.c.c.c.K.#.>.K.....c.c.J.#.J.>...J / Y J J K ] ^ < T + & o s R vXqXc.z.z.c.c.c.c.c.z.b.c.z.b.b.b.z.b.b.Q..X.X",
".XQ.G.b.b.b.c.v.z.c.c.x.c.c.| ....X.h.c.x.J...c.=.#.W J i ) / y a p , R y % > & u ] fX~ +XlXc.c.v.c.c.x.c.c.z.c.P.P.b.b.D.b..X.X",
".XQ.A.b.P..XP.c.x.c.c.j.z.c.c.j.j.x.c.x.c.c.#.c.c.#.9Xa G ' G W j y K a s & ) R ' ) / p 9.gXL.c.x.x.x.x.c.c.x.c.P.P.P.c.b.b.D..X",
".XA.b.b.U.U.U.P.c.j.j.N.N.N.N.j.x.h.N.j.N.j...X.h.$.J.c.S e * r , w s ^ / J R i * 8 f p 3.hXc.j.x.x.x.x.x.c.x.c.P.P.b.x.A.A.A.G.",
"S.b.A.A.!.L.P.P.N.j.h.c.x.j.j.j.j.c.N.j.N.m.X.%.#.%.J.N.5 * y ^ i y u ^ R > ) R > , > 8 qXL.j.C.j.j.j.j.j.x.j.x.c.c.c.b.A.P.D.G.",
"A.A.x.A.L.P.U.c.N.j.j.j.j.j.j.j.g.j.j.j.j.j.h.X.o.>.9.fXR J K ^ 8 W R = O f / I : ^ , 8 9XI.I.h.j.j.g.j.j.j.c.N.N.j.x.c.x.A.A.G.",
"G.A.v.b.Q.P.c.U.j.j.h.j.j.j.g.j.g.j.j.s.g.g.g.g.U.qX] fX' / s i q / ) q j < t 9 8 J 0X<.hXoXgX+Xs.g.j.g.j.g.j.j.c.N.C.x.c.A.A.A.",
"Z.v.x.x.P.L.c.c.h.j.g.g.g.g.g.g.g.g.g.g.g.g.s.c.I.<.J / s Y Y K / / q > X O o X 7 O rXcXhXzXh.gXh.g.j.j.g.h.j.g.j.N.g.x.N.A.A.F.",
"Z.A.Z.x.C.N.oXoXh.m.g.j.f.g.O.g.g.g.g.g.m.g.g.L./.9X^ / 8 y r a / / , j p . X o r O qXhXj.J.zXXXg.g.g.m.N.N.j.h.j.j.x.C.C.c.Z.Z.",
"Z.Z.C.C.N.XXKXvXvXh.m.m.f.h.f.f.f.f.f.g.f.g.f.L.U.0Xu K a / p = R J > W K , + o X o ^ ~ | O.f.g.g.g.f.f.h.g.f.g.M.j.C.j.x.x.Z.Z.",
"Z.C.C.N.M.zXI.f.vXI.g.O.f.J.O.m.f.f.m.m.f.f.O.c.I.I.9Xa J / w j < % 8 u I r k d t d Y k ;.O.f.f.f.g.f.f.f.f.f.g.g.N.j.j.C.C.C.Z.",
"Z.C.C.B.N.zXL.s.XXoXf.+.hXLXcXO.f.f.O.m.m.O.+.f.U.I.J.W * 9 q p / a w q 9 w u ^ h 5 p 7 } m.m.f.f.f.s.h.h.f.f.g.j.j.x.C.x.C.C.Z.",
"Z.C.B.B.M.XXgXN.J.jXm.J.vXJ.JXK.m.f.f.f.f.m.m.h.f.h.f.S f , & K ) I < W 5 O r t t < k * 6 m.f.d.d.O.O.O.O.f.m.g.g.j.g.g.C.C.Z.Z.",
"Z.V.B.B.M.g.cXc.h.cXO.jXJ.O.hXXXd.d.d.d.f.f.d.d.J.9.rXR K U = , f , j ^ ^ > > > o u f < -.f.d.d.d.f.O.O.O.h.m.f.g.N.M.B.k.C.C.Z.",
"Z.Z.V.B.B.M.c.jXO.KX3.cXO.h.HXJ.+.d.d.d.d.d.d.d.S ] fX' ( / R R r O t ^ f > k f * p } | +.d.d.d.d.O.O.m.f.O.m.g.f.f.j.k.B.C.Z.Z.",
"F.V.C.B.B.B.M.L.gXcXLXoXI.JXY.+.d.d.+.d.d.d.d.d.;.u 0 ( Y q y s w & t g O X X . 9 6 O.O.+.+.d.d.+.O.O.O.f.O.m.g.s.g.c.g.B.C.Z.Z.",
"Z.V.Z.C.C.M.M.g.xXoXY.oXJXY.+.+.d.d.d.d.d.d.d.d.;.d u ) f W ) < o % w 0 X o 7 X X 5 ,.f.+.+.d.d.+.m.O.f.O.O.N.g.g.M.c.x.C.Z.Z.F.",
"F.Z.W.zXlXP.c.=.HXhXoXHXI.O.O.+.+.+.+.d.d.d.d.d.4.J k u , f / s < p > X . 7 7 . O u Y k d.d.d.d.+.n.f.f.f.O.j.s.g.k.j.C.Z.A.Z.F.",
"F.S.KXvXzXJXvXHXLXzXhXoXcXO.h.O.O.+.O.d.d.d.d.d.f.s.<.s e U ^ 8 T f a 9 w e 9 e d 8 d j d.d.d.+.d.d.f.g.g.s.s.g.j.j.k.Z.Z.Z.Z.F.",
"F.+XvXv.v.z./.zX4.oXcX=.gXHXKXPXvXJ.n.d.d.d.d.d.d.d.d.T I 7 8 o O X t d h 8 * X O 9 d j +.d.+.O.m.f.f.m.h.j.M.j.k.k.V.V.Z.Z.F.F.",
"F.+XlXV.V.l.c.+XLXlXK.HXxX,.O.h.oXvXf.d.d.d.d.d.d.d.s.f 9 & s s & o t 7 0 = ^ u o 9 t } d.d.f.O.O.f.f.m.f.h.j.j.x.k.B.Z.Z.Z.F.F.",
"F.6.GX6.v.b.lX+XzXHXhXLXKXKXI.O.m.xXJ.+.+.+.d.d.O.N.0X( 7 * I I J X + o 7 e g h o O 8 } +.+.O.f.d.d.d.=.s.s.j.k.k.x.v.v.v.Z.F.F.",
"H.S.(.GXvXGXL.l.oXxXxXoXh.oXJXoXs.cXJ.+.d.+.d.d.h.I./ ( P K G e 8 & f d 9 e g 9 7 j +.+.n.+.O.O.f.M.d.g.j.j.k.j.x.k.c.v.v.S.F.H.",
"H.F.V.D.D.S.V.V.lX+XzX/.g.g.I.HXKXcXf.d.d.d.d.n.m.U.S U P L P 7 s ^ t X 0 0 O 7 9 [ +.m.m.m.O.g.g.M.k.g.j.z.x.j.z.v.v.S.v.G.F.H.",
"H.H.F.S.S.S.V.v.xX6.lX/.B.M.M.s.I.j.g.d.d.m.m.d.O.m.,.I L G e e G I d 7 7 7 7 0 6 N.j.O.m.m.g.f.g.g.s.g.k.j.k.z.v.v.v.v.F.A.H.H.",
"H.H.F.F.F.V.F.l.vXA.jXXXB.B.M.m.M.M.d.d.m.d.m.d.m.m.f.k L h h e h 0 7 7 O 7 0 0 h.N.N.g.f.M.M.g.g.g.B.k.k.k.c.v.Z.v.S.b.S.G.H.H.",
"F.H.F.F.F.F.F.V.JXZ.jX}.B.B.B.B.M.M.M.M.m.M.m.m.+.m.m.m.T e ( g 0 O 0 0 O 0 0 { m.j.c.g.g.m.M.M.g.B.B.B.x.l.l.v.Z.v.S.S.D.F.F.H.",
"H.H.F.H.F.F.F.F.xXzXJX/.B.B.M.B.B.M.M.M.m.M.f.m.m.m.m.m.d.j g h g 0 g d 4 4 [ +.m.M.g.M.M.M.M.B.B.k.B.V.x.V.V.b.F.F.S.H.H.H.H.H.",
"H.H.H.H.F.F.F.S.E.zXlXv.V.V.l.B.B.k.M.M.M.M.M.M.g.m.m.m.d.| { [ { | O.+.+.+.+.+.m.g.M.M.M.M.B.B.B.B.V.V.v.v.v.v.S.F.S.H.H.H.H.H."
};
