/* XPM */
static char *result[] = {
/* columns rows colors chars-per-pixel */
"64 64 255 2 ",
"   c #1B7338",
".  c #277638",
"X  c #4C5A2B",
"o  c #4C6B32",
"O  c #257C42",
"+  c #745369",
"@  c #6D6067",
"#  c #D63C2A",
"$  c #E63C27",
"%  c #BA5533",
"&  c #B27837",
"*  c #D94827",
"=  c #CB572D",
"-  c #D8572A",
";  c #E74F28",
":  c #CA672A",
">  c #D86828",
",  c #D8762A",
"<  c #D06E37",
"1  c #D97A34",
"2  c #E9692C",
"3  c #E7782C",
"4  c #EE6E30",
"5  c #E67834",
"6  c #9E5D57",
"7  c #B2554E",
"8  c #B37150",
"9  c #906F72",
"0  c #AD6D69",
"q  c #CC6E46",
"w  c #C47B70",
"e  c #35893B",
"r  c #538E3A",
"t  c #6D9E3D",
"y  c #348A45",
"u  c #3B9544",
"i  c #328B51",
"p  c #348D63",
"a  c #4D944F",
"s  c #469A48",
"d  c #689A50",
"f  c #4BA248",
"g  c #53A053",
"h  c #72A251",
"j  c #519C6E",
"k  c #56A571",
"l  c #70A86E",
"z  c #B88A39",
"x  c #94AF3C",
"c  c #A8B93B",
"v  c #D78735",
"b  c #EA822E",
"n  c #E78737",
"m  c #F38935",
"M  c #EB953A",
"N  c #F69839",
"B  c #D6A53B",
"V  c #F8A63C",
"C  c #FAA63D",
"Z  c #8DAB43",
"A  c #B88A71",
"S  c #A5A162",
"D  c #D18E4D",
"F  c #EE9346",
"G  c #EB9746",
"H  c #F49942",
"J  c #DDA359",
"K  c #F6A646",
"L  c #F9A542",
"P  c #F3AC4F",
"I  c #FAAC4D",
"U  c #F7AB52",
"Y  c #FAB153",
"T  c #F8B459",
"R  c #C7906C",
"E  c #CDA76E",
"W  c #F8B765",
"Q  c #BFC257",
"!  c #5D7394",
"~  c #7272B2",
"^  c #777AB5",
"/  c #2B7EC8",
"(  c #287FD0",
")  c #A67686",
"_  c #9E4FA5",
"`  c #8A5CAA",
"'  c #9656A6",
"]  c #8965AB",
"[  c #8A70AD",
"{  c #C27F84",
"}  c #3B8EBB",
"|  c #758D98",
" . c #58A88F",
".. c #6AAF8F",
"X. c #78B797",
"o. c #518DB9",
"O. c #7788A6",
"+. c #698ABB",
"@. c #7585B7",
"#. c #6796BC",
"$. c #7697BA",
"%. c #49A6BB",
"&. c #52AAB8",
"*. c #57B4BC",
"=. c #6DB1B0",
"-. c #5DC7BE",
";. c #73C8B6",
":. c #6BD6BC",
">. c #6EDBBF",
",. c #75DCBD",
"<. c #75E3BE",
"1. c #79E6BE",
"2. c #7BE9BF",
"3. c #2E83C5",
"4. c #2680CE",
"5. c #2B84CC",
"6. c #2D8ACD",
"7. c #3788C8",
"8. c #328DCC",
"9. c #2E92CE",
"0. c #2F98CF",
"q. c #3A97C6",
"w. c #3493CC",
"e. c #3A95CB",
"r. c #349BCD",
"t. c #3C9CCB",
"y. c #2B85D0",
"u. c #2B8CD1",
"i. c #338DD1",
"p. c #2D93D1",
"a. c #2F99D2",
"s. c #3296D1",
"d. c #339CD2",
"f. c #3A9CD0",
"g. c #35A2CE",
"h. c #3DA1CC",
"j. c #34A4D2",
"k. c #39A3D3",
"l. c #35A9D3",
"z. c #39B2DF",
"x. c #32AFE0",
"c. c #4E8BC4",
"v. c #4798C8",
"b. c #439BCC",
"n. c #5799C6",
"m. c #6E98C5",
"M. c #45A5C6",
"N. c #49A6C6",
"B. c #4BACC5",
"V. c #42A3CA",
"C. c #46A9CA",
"Z. c #4AADCA",
"A. c #56AAC7",
"S. c #4DB2C6",
"D. c #4EB2CB",
"F. c #4FBBCB",
"G. c #53B4C5",
"H. c #5AB5C6",
"J. c #54BAC5",
"K. c #5BBCC5",
"L. c #54B4CA",
"P. c #5AB4C9",
"I. c #55BACA",
"U. c #5BBCC9",
"Y. c #50ADD3",
"T. c #68A6C6",
"R. c #77AACA",
"E. c #64BAC7",
"W. c #71B0D2",
"Q. c #5EB6E2",
"!. c #5CC7C3",
"~. c #5DC4C4",
"^. c #5CC2C9",
"/. c #63C4C6",
"(. c #63CCC4",
"). c #63C4C9",
"_. c #69CAC8",
"`. c #76C8C6",
"'. c #66D1C2",
"]. c #6AD4C2",
"[. c #6EDAC1",
"{. c #6CD4CA",
"}. c #74DCC3",
"|. c #7BDCC4",
" X c #77D9C9",
".X c #73CFD6",
"XX c #75E2C1",
"oX c #7BE4C2",
"OX c #7EEAC0",
"+X c #7FE1C9",
"@X c #5CC4EC",
"#X c #918A8A",
"$X c #B4958D",
"%X c #B6AE8E",
"&X c #888DAF",
"*X c #A992AA",
"=X c #8AB6B5",
"-X c #ACABB2",
";X c #C5A696",
":X c #94DB95",
">X c #B7D297",
",X c #9AE296",
"<X c #ABE589",
"1X c #86C7BB",
"2X c #8BD2B3",
"3X c #A9D4B7",
"4X c #8AE4AE",
"5X c #D6D299",
"6X c #CBD2AD",
"7X c #E8DBAC",
"8X c #889CC7",
"9X c #8AA4CA",
"0X c #95A9CA",
"qX c #8DB6CC",
"wX c #97ABD3",
"eX c #88B8D4",
"rX c #9BB3D8",
"tX c #AAB3CA",
"yX c #B6B9CA",
"uX c #A5B9D9",
"iX c #A7BBE2",
"pX c #93CFCC",
"aX c #85DBC7",
"sX c #98C5D4",
"dX c #AACECF",
"fX c #A8CAD5",
"gX c #B5C8D9",
"hX c #B7D4D9",
"jX c #83E4C3",
"kX c #8BE4C4",
"lX c #84EAC1",
"zX c #8AECC2",
"xX c #89E5CA",
"cX c #93EAC6",
"vX c #9BECC6",
"bX c #96E9C9",
"nX c #9DF0C9",
"mX c #A4EEC8",
"MX c #A4EEC9",
"NX c #A6F0CA",
"BX c #A7C9E4",
"VX c #ADD3EC",
"CX c #A1D7F1",
"ZX c #CFD4D3",
"AX c #C6D8D9",
"SX c #CDE3D5",
"DX c #D6E5DB",
"FX c #EEEDD0",
"GX c #E8EAD6",
"HX c #D6DCE5",
"JX c #D4E6EA",
"KX c #E8E9E7",
"LX c #ECF1EC",
"PX c #F6F5EA",
"IX c #F9F9F4",
/* pixels */
"MXMXNXNXNXNXNXmXvXvXvX4XnXzXzXzXzXzXlXzXlXOXOXOXOXOXOXOXOXOXOXOXbXX.bX4XlXzXlXzXzXlXlXlXlXlXlXlXzXzXzXcXcXcXxXcXnXMXmXmXmXmXmXMX",
"nXMXNXNXmXmXmXmXvXvXcXcXzXzXzXzXlXlXlXOXOXOX2.2.2.2.OXOX2.2.2.2.pXa dXjXlXlXzXlXlXlXlXlXlXlXlXlXlXzXzXzXzXjX*.&.xXvXmXmXmXmXMXNX",
"nXMXNXNXmXmXvXvXvXcXcXkXzXzXlXlXOXOXOX2.2.2.2.2.<.2.2.2.oX1.2.2.2Xt 2XjXxX4XxXlXlXjXjX2.OX2.OXlXlXlXzXzXzX`. XjX`.vXxX.XbXMXMXMX",
"nXmXNXmXvXvXvXcXcXcXcXkXxXlXlXOXOXOXXX2.2.2.2.2.<.2.2.2.2X<.<.kX..f X.aXaX1XkX,X4X4XjX2.1.oXOXOXOXOXOXzXzX X`.xX`.vX;.aX`.MXMXMX",
"MXvXMXvXvXbXbXcXcXcXkXkXlXOXoXOX2.XXOXXXXX<.<.<.<.<.<.,. .2X,.2X..f X.pX2Xj 3X<X<XjXoXoX1.<.2.2.OXOXOXOXjXlX/.xXE.aXaXbX`.mXbXMX",
"MXbXbXbXbXbXbXbXkXkXkXkXoXoXoXXXXXXXXXXXXX>.<.<.<.<.<.|.k X.bX=.j f X.dX=Xh 3X4X:X4X+XoX<.<.<.<.XXXXjXjXoXjXjX;.E.A.aXE.xXbXbXbX",
"bXMXbXbXbXbXkXkXkXjXjXjXoXoXoXXXXX>.XXXXXX<.>.>.>.1X<.,.j k pXpXs f X.pXZ l 3X1.:X2X<.<.,.,.:.<.XXXXoX+X+XOXoX_.). XG.xXcXbXbXbX",
"bXbXbXbXkXkXkXkXkXjXjX+XXXXX}.}.XX>.>.>.>.>.>.>.XX1X2X}.l u ;.pXf f ..=.h l bXpXj 1X,.<X<X<X<.<.XXXXXXL.} %./.N.H.E.U.xXxXxXbXxX",
"bXbXbXbXkXkXaXjXjXaXaX|.}.XX[.>.>.[.>.[.[.:.[.[.`.X...1X..u ..1Xs f ..X.x l CXaXa X.:X,X<.:X2.:.[.[. X%. X|./.P.).).).G.*.*.xXxX",
"kXkXkXkXkXaXkXoXaX|.|.}.>.>.[.[.[.[.[.:.[.].:.>.:...h ;. .f  .1Xs g ..l c l kXk s 2X:X,.;.,X:X:.[.[.[.%.[.}.(.N.N.A.} _.xX.X/.xX",
"xXkXxXkXaXaXaXaX|.|.|.[.[.[.].[.].].:.].].].].].:.=XZ ....f i ;.s f k h x =XpXs s 3X<X<X<X:X:.:.[.[.].!.%.%._.{.B.%. XH.K..XK.xX",
"xXaXaXaX*.E.|.|.|.}.].].].].].].:.'.'.:.'.:.'.:.:.1Xx h ;.u u *.s r a c c ;...f s >X,X;.:.:.].'.:.'.].].{.}.[.(.E.G.|. X_.&. XxX",
"xXxXaX{. X/. X`.&.(.'.].'.].'.'.'.'.'.].'.'.'.'.]. Xl c ..s s j u f r c x 2Xg f k <X,.:.:.-.'.{.'.'.'.'.'.].{.*.{.G.}.|.oX XjXxX",
" X X|. X*._.`.H.).*.'.'.!.'.(.'.'.'.(.(.(.'.(.'.'.`.l c h j f p u u t c x  .f f  .2X;.(.-.:.'.'.'.(.'.'.'.'.'.G.E.B.{.}. X|. X X",
"|.|. X X_.U.%.K.S.^.'.(.(.(.(.(.(.(.(.(.(.(.(.(._.E...Z x g s e f f r c d s f s k =.<X;.:.'.!.'.(.'.!.'.(.(.'.(.} S.{.}.{. X+X+X",
" X X{.{.].N.L.N.J.(.(.(.!.(.(.!.(.(.!.(.(.!.(._.`.pX).Z x r f y u u f c s s s y d =.1X:X!.!.(.!.(.!.(.!.(.(.(._.'.'.{.[.{. X X X",
" X.X%.B.B.q.v.N./.~./.~.!.!.-.~.!.!.!.!.!.(.~.!.=.j E.k c Z e y u u r Z e f u o t W.;.<X-.~.~.~.~.!.!.!.(._.'.(.(.(._.'.{.{. X X",
" XK.)._./.N.B.%.N.N.%.~./././.-.-./.!.-.!.~.~.-.W.a j =.x Z r y y s t r f s e x d .X2X:X-.-.~.!.~.!.~./.(.`._./.(.(.(._.{.'.{.{.",
"{._.*.K.G.B.v.v.q.H.A.)._././.E.$.[ $.!.~.~.~.E.&X .s j g x r s y e e e u u r x .. . .~./.~.^.!.~.!.~./._./././.~.!.(.(.(.{.{.{.",
"{._./././.%.B.K.P.%.&.)._././.&X` [ ' $.J.~.E.@.] R.p u a t r O e u e f e e c r j f *./.)./.K.~.J.J.~././././.).~.^.^.(.(.!.{.{.",
"_._.(./.~.N.B.J.K./.)././.`.E.] T.K.#.] K.^.J.] E.E.=.O s o a y e   u e e t t a r p /./.).K.E.K.J.J.*.~.~./.).).K.^.^.!.^.(.(.{.",
"_._.^.^.^.%.q.G.K.E.E.).E.E.E.[ E.J.K.[ #.~.*.~ J.I.8X .O s r .     y O o r f e i K.)./.~.^.).K.J.J.J.J.E.$.=.T.@.U.J.^.^.).^._.",
"_.).~.^.J.L.N.J.U.K.E.K.K.K.E.[ T.G.J.#.@.J.#.@.G.T.` R.&.. o X X X X X a e . p G.E.E.E.^.^.A.E.J.J.F.J.E.#.$.#.#.E.F.^.^.^.^._.",
"!.^.^.U.U.G.J.J.G.U.K.K.K.K.U.$.] H.J.T.` T.@.@.G.[ ^ P.=.8 : > : < > > % o %.U.J.U.E.E.T.@.8XH.J.*.S.J.A.#.#.@.+.H.L.^.^.^.^.).",
"^.^.^.I.F.S.S.S.J.P.K.H.H.H.U.H.@.~ #.G.[ ` ' #.@.` W.| < 5 H 1 5 M 4 2 3 = 9 =.L.P.H.U.eXfXiXH.S.S.S.S.D.A.$.@.@.@.+.H.U.U.^.^.",
"^.I.I.L.S.S.S.S.Z.G.H.P.P.H.P.G.A.#.~ #.m.` ] #._ T.#X5 : 3 5 5 N m N 3 = 5 b 0 E.H.P.Y.W.iXeXA.S.C.S.S.#.+.^ ^ ~ @.@.L.I.I.I.^.",
"I.I.U.P.S.S.S.S.B.D.L.P.H.L.A.Z.B.A.B.@.[ &.A.^ &X9 < m M > > N N n N , n > n 1 | U.L.Y.W.gXR.P.B.S.S.S.@.N.+.@.+.A.A.S.L.F.I.I.",
"I.I.I.L.S.S.M.M.N.B.B.B.Z.B.B.C.C.%.N.A.' ^ ^ [ | - 3 m 3 b n , N C 3 n N m > 5 8 P.z.x.Q.HXm.Y.M.N.M.M.n.+.N.m.#.B.Z.A.D.D.I.I.",
"I.L.D.D.C.C.B.C.C.N.C.M.N.C.M.C.Z.N.B.N.' [ ^ +.7 3 m b b L C N , b n K V H m > - #Xx.x.Y.JXo.B.C.C.B.C.N.N.C.o.+.C.C.Z.Z.D.D.I.",
"D.D.Z.Z.C.C.M.M.M.C.M.M.M.M.N.N.v.N.n.^ _ ^ ~ | - m n , L V I Y n : I Y G I H , > 7 k.l.n.gXv.M.M.M.B.h.M.M.M.M.V.C.C.C.C.D.D.D.",
"D.Z.Z.C.C.C.M.M.M.M.V.V.h.v.^ ` ` ' ' _ ] n.c.6 - 3 , C I G T G v G 1 P I I H , 4 % n.s.W.iXn.h.M.M.h.M.M.V.M.M.V.V.C.C.C.Z.D.D.",
"Y.Y.C.C.C.h.h.h.h.h.t.M.M.+.' ~ +.n.c.c.+.' ~ - 3 - n P W T P , K V N 1 I L , m F 0 O.iXHXHXm.M.h.h.h.h.h.V.b.h.b.V.V.V.C.C.Z.D.",
"Y.Z.C.V.M.h.b.t.t.b.b.t.v.` ~ v.b.b.b.c.` ] 9 4 2 D #X$XE G > L V C V M 1 3 b N $XtX0XyXgXiXo.V.t.b.h.b.t.b.h.t.h.b.M.h.V.C.C.Y.",
"C.C.V.M.t.h.t.t.t.t.t.b.v.' c.r.f.b.v.~ c.o.7 4 < *XR.R.&X, M L V V V L n : L L D 8 7 / c.o.v.t.t.t.t.t.t.t.t.t.h.q.t.h.V.C.C.C.",
"C.C.M.t.t.q.b.t.t.t.e.t.t.` ~ a.t.t.~ c.b.+.* - R #.z.Q.rXD K C V M P Y 1 G , I I m = ! q.q.e.t.t.t.t.t.t.b.t.t.q.q.M.h.V.V.C.C.",
"C.k.h.h.h.t.r.e.q.q.t.8.v.c.` c.c.~ ~ b.b.@ * 2 $XR.CXCXm.0 M P U U I n M V n n K m = ! e.e.e.e.q.r.e.q.t.q.q.t.q.t.t.t.f.k.V.C.",
"C.V.b.t.f.e.e.s.q.e.w.e.e.q.~ ~ ~ ~ c.s.7.6 * m -XeXCXCXwXR < P Y Y H v V K V v M 3 - 6 R.sXq.w.w.w.e.w.t.e.e.e.b.b.t.t.f.V.V.V.",
"k.k.k.t.b.b.b.e.8.e.w.7.8.e.p.9.7.i.i.i./ 7 - m -XiXVXVX8XJ N 1 I Y 1 V V V V V > > 4 7 o.eXv.q.w.w.e.w.e.e.w.t.b.b.b.q.t.t.k.V.",
"V.f.t.r.b.Y.v.b.e.w.i.e.w.8.8.e.e.7.i.e.} 7 * m R 0XrX0X#XU V H , n M V K M K I n < 3 = o.sXw.8.w.w.8.i.7.w.8.7.b.b.f.e.f.k.f.V.",
"k.t.f.t.n.b.b.b.e.7.i.i.w.8.8.w.w.i.8.8.o.# 2 > 1 #X&X&XD C K L n : L K U K Y I 1 1 4 - O.v.w.6.8.8.8.s.w.w.e.w.i.e.e.e.f.b.f.k.",
"k.f.r.t.b.b.b.b.i.8.7.8.8.8.8.6.6.8.8.8.! # 4 m = M G G K P U U , M G P Y Y Y F G N > - ! q.c.3.8.8.8.8.8.8.e.i.e.i.i.t.e.f.f.f.",
"f.f.e.r.b.b.e.b.8.8.8.8.8.8.6.8.6.8.6.6.@ * 4 > M > J I U T T n G K 1 F Y Y K , V V 3 * ! R.eXW.8.6.6.6.8.8.8.8.e.i.s.w.w.f.f.k.",
"d.r.e.w.b.b.b.i.8.8.6.6.8.6.6.6.6.6.6.i.@ $ 2 5 C N > U Y T H v K C L , H K n N C N m - ! qXq.R.8.8.8.8.8.5.8.8.8.i.8.w.e.t.f.f.",
"d.d.d.e.i.b.m.R.7.y.5.6.5.5.5.5.5.6.6.8.9 ; - m C C M , K P 1 K C L C L , 5 1 C C M m ; + o.sXW.3.6.6.5.i.i.8.5.8.8.w.s.s.w.d.d.",
"d.d.s.p.i.T.HXhXAX7.5.5.5.5.5.5.5.y.y.y.+ # 2 m N L C N , < M K L K Y Y K : M I C b m - + / 5.5.5.6.5.5.5.8.5.i.6.i.8.w.s.w.s.d.",
"d.s.s.w.i.sXA.5.fXT.5.5.5.7.7.y.5.y.y.i.0 # 4 m M L C P R $XE P T G T T n n > P K V F * + / 5.4.5.6.5.5.7.5.5.6.6.8.s.8.s.s.d.d.",
"d.d.s.6.i.sXv.5.n.W.4.y.qXKXfX( 5.5.( c.w # 4 m n L T ;XuXgXVX;XW W W P 5 I D D P K 5 * + / / 4.5.5.5.5.5.5.5.5.8.6.8.s.w.s.s.d.",
"d.s.a.p.i.T.qX5.v.eXy.c.fXo.ZXn.5.( ( i.R $ 4 m L Y E yX8X9X9XrX;XW W b M J -XfX%XU - ; 6 / / ( 4.3./ / 3.5.y.6.6.8.6.6.s.s.d.d.",
"d.a.p.p.u.6.sXe.7.fX4.eXc./ rXn.4.5.4.6.w $ * m U U $X8XiXiXiX9X-XT F 1 U ;XiXW.9Xw - ; 6 3.4.( 4.5./ / / 5.4.5.6.i.i.p.9.s.s.d.",
"d.a.a.p.p.u.b.eX/ DXm.fX5.3.AX} 4.4.4.y.w $ ; > M n tX8XiXtXiX0XtX1 > L J yXQ.@XR.$X2 ; 0 5.4.( 4.5./ 4.5.5.5.6.5.5.8.6.p.a.a.d.",
"d.d.a.s.p.p.6.v.eXdXGXR.n.AXT.( 4.4.4.4.0 $ ; 2 3 q rXwXuX0XuXuXwXq m K J uX@XCXuX-X4 $ $Xy./ ( ( ( / 4.5.3.5.5.7.6.8.9.p.s.d.d.",
"d.a.a.s.p.p.i.8.fX$.T.T.DXn.( ( 4.4.4.4.) # $ 4 = 8 8X0XfX0X8X0X0X8 m C J 0XW.JXwX$X; # ;X( ( ( ( y./ 5.4.5.6.3.6.9.e.w.p.d.d.j.",
"j.d.Z.sXeXv.w.} hXqXR.AXn./ / ( 4.4.4.4.! $ ; 2 , R 9XrX$.8X0X8XrXR , Y P *XrX9XuXw * # tX( ( ( 4.4.4.7.4.5.8.8.6.6.8.s.d.d.d.k.",
"j.h.DXhXdXSXhXAXFXtXqXR.fX/ / 3.( 4.4.4.[ # ; * 3 $X9XrXm.&XwX8XwXE n G U J -XuX;X4 7 7 gX( ( ( 4.4.4.8.5.7.7.6.9.w.w.a.d.k.d.j.",
"l.W.hX0.a.q.A.sX=.R.fX} qXAXDXKXhXc.6.tX-X7 8 q 3 ;X&X0XuX0X8X8XwXE K , U U 5 w 4 - 0 { yXi.( ( 4.4.y.y.7.8.6.6.9.9.a.a.a.d.j.j.",
"j.W.pX0.a.a.e.W.DXqXc.SXdX} / 7.9XhXeXyX-X9 z q G $X8XwX8X8X0XwX8XE P M , n 2 4 q 0 0 [ yXR.( ( 3.5.5.y.5.5.8.8.9.9.0.d.a.k.d.j.",
"l.M.hXh.g.} sXW.sXAXqXPXSXSXn./ 4.fXAXyX3X#Xz D < $X8XuXiXuXwXwXwXA P V v : 3 3 q $X#X*XyXyXc.( 4.5.3.3.3.3.8.6.9.w.r.r.r.j.j.j.",
"l.l.L.dXhXVXb.a.W.dXdXW.7.R.DXT.3.gXZXyX-XE z z & R 8XuXuXrXrXwXrXD K B z : , 2 D R $XtXyXHXW./ 6.5.u.9.9.8.9.9.w.w.e.r.r.r.j.l.",
"l.j.g.g.h.g.0.a.pXW.fXn.6.u.n.AXDXhXKXHX>X5XE B & D 8XuXuXwXwXwX-Xn b J v & z & q 8 3XyXyXKXwX( y.u.9.3.7.8.w.q.w.q.r.g.r.k.j.l.",
"l.l.l.g.g.g.r.0.dXN.sXA.p.u.6.6.n.8.LXIX>X5XE S z 6 wXrXwXuXwX0X3XD v z z & % R R 5XFXZXZXPXiX7.5.6.3.9.9.8.9.w.r.r.r.g.g.d.l.l.",
"j.l.j.j.j.a.j.0.dXt.eXY.p.u.u.u.u.i.LXIXSX>X5X5X5X6XtX0X0XwX8X-X-Xq & z z & 6 S 7XGXDXGXKXIXBXu.6.6.6.p.9.w.w.r.d.g.g.h.h.h.l.l.",
"l.l.j.j.j.j.a.g.SXt.eXT.p.p.9.u.6.i.LXIXPXFX6X5X7XFXPXHXKXKXKXKXFX7XS Q S >XSXGXFXFXIXIXIXIXBXu.p.p.p.p.w.9.0.r.d.r.g.g.k.j.l.j.",
"l.l.l.l.l.j.j.j.dXfXSXY.a.p.p.p.i.p.PXPXPXFXFXFXPXIXPXPXPXKXIXIXPX7X7X5X6X3XSXSXPXPXIXIXIXIXBXp.p.9.p.a.e.a.r.r.g.j.j.j.l.l.l.l.",
"l.l.l.l.j.j.j.j.C.sXsXr.a.p.a.p.a.f.FXFXPXIXIXPXPXIXKXPXPXPXLXKXPXFXFX6X>X6XSXLXPXKXLXIXIXLXBXp.p.a.a.a.r.a.r.r.g.j.g.j.l.l.l.l."
};
