/* XPM */
static char *result[] = {
/* columns rows colors chars-per-pixel */
"64 64 250 2 ",
"   c #020202",
".  c #090907",
"X  c #0C1115",
"o  c #312C16",
"O  c #1C272C",
"+  c #52361B",
"@  c #4C2E20",
"#  c #515027",
"$  c #6F4F2E",
"%  c #736F39",
"&  c #143047",
"*  c #153E62",
"=  c #184266",
"-  c #2C5869",
";  c #2C5373",
":  c #51524C",
">  c #6A5E55",
",  c #737350",
"<  c #517177",
"1  c #71726C",
"2  c #DB1E23",
"3  c #8B592E",
"4  c #B2492A",
"5  c #956432",
"6  c #A66D32",
"7  c #A96F32",
"8  c #B67734",
"9  c #C37E34",
"0  c #B23E41",
"q  c #866745",
"w  c #95734F",
"e  c #AB7A4D",
"r  c #B27F4F",
"t  c #A77E52",
"y  c #8D6D6C",
"u  c #758859",
"i  c #5C8A74",
"p  c #729277",
"a  c #75A977",
"s  c #B2B322",
"d  c #B4B326",
"f  c #B6B532",
"g  c #C1BF39",
"h  c #C6C43D",
"j  c #918E50",
"k  c #A9934E",
"l  c #99A25D",
"z  c #B1AD4C",
"x  c #A9A659",
"c  c #B2AC55",
"v  c #B9B558",
"b  c #8E906B",
"n  c #AD8E6B",
"m  c #8FAC76",
"M  c #B0B46A",
"N  c #C2BB5A",
"B  c #B2C770",
"V  c #C7C444",
"C  c #CAC55B",
"Z  c #D2CD5C",
"A  c #D8D359",
"S  c #E2DB5F",
"D  c #C9C969",
"F  c #D3CD63",
"G  c #C1D06D",
"H  c #DAD464",
"J  c #E3DC64",
"K  c #E3DD6A",
"L  c #EAE367",
"P  c #ECE569",
"I  c #F4EC6B",
"U  c #FDF46C",
"Y  c #F7F070",
"T  c #235B89",
"R  c #2E688C",
"E  c #266599",
"W  c #296CA5",
"Q  c #3078AE",
"!  c #2A79BB",
"~  c #48738D",
"^  c #696C9C",
"/  c #7374B2",
"(  c #297EC9",
")  c #287FD0",
"_  c #8F628C",
"`  c #8A5CAA",
"'  c #9853A5",
"]  c #8A64A9",
"[  c #8973AE",
"{  c #2B8A96",
"}  c #3785B8",
"|  c #3792B8",
" . c #568995",
".. c #519094",
"X. c #6C9490",
"o. c #58A499",
"O. c #6FAD93",
"+. c #4E92B1",
"@. c #698ABB",
"#. c #7585B7",
"$. c #6796BC",
"%. c #7393B5",
"&. c #5CA6A9",
"*. c #49A6BC",
"=. c #57AEB7",
"-. c #58B6BA",
";. c #69A9A7",
":. c #6EACAD",
">. c #71C09E",
",. c #5BC3BF",
"<. c #6FC7A9",
"1. c #7DD2AB",
"2. c #67CABA",
"3. c #6CD5BA",
"4. c #6DDBBF",
"5. c #74DABB",
"6. c #75E4BD",
"7. c #7AE5BE",
"8. c #7BE9BF",
"9. c #2C84C4",
"0. c #2680CD",
"q. c #2A84CD",
"w. c #2D8ACD",
"e. c #3586C6",
"r. c #328DCC",
"t. c #2E92CE",
"y. c #2F98CF",
"u. c #399AC6",
"i. c #3493CD",
"p. c #3A95CB",
"a. c #349BCD",
"s. c #3C9CCB",
"d. c #2A84D0",
"f. c #2B8CD0",
"g. c #358ED0",
"h. c #2D93D1",
"j. c #2F99D2",
"k. c #3196D1",
"l. c #339CD2",
"z. c #3A9DD0",
"x. c #35A2CE",
"c. c #3DA1CC",
"v. c #34A4D2",
"b. c #3BA1D1",
"n. c #35A9D3",
"m. c #4E8DC7",
"M. c #4699C9",
"N. c #439BCC",
"B. c #5799C6",
"V. c #608FC2",
"C. c #45A6C6",
"Z. c #49A6C6",
"A. c #4BACC5",
"S. c #42A3CA",
"D. c #46A9CA",
"F. c #4AADCA",
"G. c #55AAC7",
"H. c #4DB2C6",
"J. c #4EB2CB",
"K. c #49BCC9",
"L. c #53B4C5",
"P. c #5AB5C6",
"I. c #54BAC5",
"U. c #5BBCC5",
"Y. c #54B4CA",
"T. c #5AB5C9",
"R. c #55BACA",
"E. c #5BBCC9",
"W. c #41A7D0",
"Q. c #68A6C6",
"!. c #75ABCA",
"~. c #63B9C6",
"^. c #6FB2D1",
"/. c #3DD6E6",
"(. c #48C0CD",
"). c #5DC5C4",
"_. c #5DC9C2",
"`. c #5DC2C9",
"'. c #63C4C5",
"]. c #63CCC3",
"[. c #67C8C8",
"{. c #75C9C5",
"}. c #66D1C2",
"|. c #6AD4C3",
" X c #6EDAC1",
".X c #6CD4CA",
"XX c #73DCC3",
"oX c #7BDCC4",
"OX c #77D9C9",
"+X c #70D0D2",
"@X c #75E2C1",
"#X c #7BE4C2",
"$X c #7EEAC0",
"%X c #7FE1C9",
"&X c #90978E",
"*X c #9C9492",
"=X c #87AE91",
"-X c #B3B291",
";X c #8FACA4",
":X c #ABB1AE",
">X c #B6B7B6",
",X c #F69C9C",
"<X c #C5A58C",
"1X c #8FCC91",
"2X c #99DC97",
"3X c #A9DD87",
"4X c #9CE18E",
"5X c #99E198",
"6X c #A9E489",
"7X c #ADE489",
"8X c #87DAA7",
"9X c #87DDAD",
"0X c #87E3B1",
"qX c #C6C492",
"wX c #CAC7B0",
"eX c #8AB5CB",
"rX c #86B9D3",
"tX c #A3BFC2",
"yX c #90C3CD",
"uX c #84DDC8",
"iX c #98C6D2",
"pX c #AFCBCF",
"aX c #A8CBD5",
"sX c #B8D4D9",
"dX c #83E3C3",
"fX c #8BE4C5",
"gX c #84EAC1",
"hX c #8BECC3",
"jX c #89E5CA",
"kX c #93EAC6",
"lX c #9BECC6",
"zX c #93E8C8",
"xX c #9BEBC9",
"cX c #9DF0C9",
"vX c #A4EEC8",
"bX c #A4EEC9",
"nX c #A6F0CA",
"mX c #ADD8E3",
"MX c #C8C8C8",
"NX c #CCD4D2",
"BX c #D7D7D6",
"VX c #CCE2DB",
"CX c #D6E5DC",
"ZX c #E8E8DA",
"AX c #CFDEE7",
"SX c #D6E5E3",
"DX c #E9EAE9",
"FX c #EFF0F0",
"GX c #F5F4F4",
"HX c #FDFDFD",
/* pixels */
"nXnXvXnXvXvXvXvXzXjXkXkXhXhXhXhX0Xp 8XgXgX0XO.1X8XgXhXgXgX$X$X$X$X$X8.8.8.8.$X$XgX8.gXgXgXgXgXhXhXhXhXcXkXlXlXlXvXvXnXnXnXnXnXnX",
"nXvXvXvXvXvXlXjX=.=.fXhXhXhXhXhXp r t p O.1XY A c 1XhXgXgX0X#X6.8.8.8.8.8.8.8.8.8.8.8.gXgXgX$XhXgXhXhXgXkXkXlXlX0XvXnXnXnXnXvXvX",
"bXbXvXxX^.xXvX{.uXuX{.hXhXgXgX0XO.w e k 3 5 H C C 2XhXgXgX7.6.6.6.6.8.8.8.8.8.8.8.8.6.$X8.$X$XgXgXgXgXhXhXkXkXkXnXcXvXvXbXnXvXlX",
"xXbXvX{.uX2.lX{.jX[.%XgXgX$X$X$X$X0X:., $ n q , % > O.0XgX8.7.7.6.6.6.6.6.6.8.8.6.6.#X6.8.$X$X$X$XgXgXhXzXkXkXzXcXkXlXlXbXnXbXbX",
"xXxXcX{.zXuXuX~.%X'.jXgX$X$X#X#X7.7.#X#X<.j v P v 3 e , p :.0X@X4.6.>.O.i o.O.6.@X7.6.@X#X6.#X#X$X$XdXgXfXfXzXzXzXzXlXlXxXvXxXbX",
"zXxXcXzX^.jXG.E.2.jX$X$XgXjX#X@X6.6.@X6.7.B S S a u p w 5 t i <.3.u w k k k w , i 4.@X@X@X@X@X@X#X@X#X#XfXfXfXfXfXzXzXlXxXlXxXxX",
"zXzXzXzXuXP.OX'..X#X$X%X%X%X@X@X6.4.5.6.6.m I m 9X5XoX1Xu j w % % r b O.O.O.b t t , 3. X@X4.@X7.@X@X@X#XdXdXfXfXfXzXzXzXzXxXxXxX",
"zXzXjXjXjXI.~.T.Z.~.*.| H.@X@X@X6.6.6X7X6X1XF 6X8X8X0X5X9X5X1X> q r O.4.4.4.4.<.b e u  X6.4.4.4.@X@X@X@X#XdXdXfXfX0XzXjXzXzXzXxX",
"jXjX=.L.P.'.[.'.P.'.@XOX*.XX X X X7.4X3.4XB B 6X2X7X4X0XuX8X2X5.;.q e O.[.|.4.].3.w w |. X X X4. X XXX@X5.uXuXdXuXuXzXzXfXzXzXzX",
"jX~.OXjX[.| G.Z.*.'.XXXXZ. X X X4.1.4X1.6.B B 7X9X2X9X9X9X5X9X|.3.i w e t b b b w r 1  X X X X|. X X X X5.oXoXuXfXuXuXzXfXzXzXfX",
"jX'.+XU.P.+X*.Z.OX].*.*.].|. X|.3.3.4X6X6XB B 8X2X2X5X8X2X9X5.|.3.-.*X:Xy q q q q > ,.3. X3.3.4. X|. X X XOXoXoXuXuXuXuXuXzXfXuX",
"jXOX=.[.oXoXL.U.'.|. X.X|.}.3.}.}.3.3.3.1.B B 5X3X7X1.|.3.|.XX|.}.}.;XBXGXGXDXDXGX;X3.3.}.}.}.}.|.|.|.|.|. XoXoXuXoX-.=.uXuXuXjX",
"uX%X%XOXoXXXL..X-.|.|.|.}.}.}.].|.}.}.}.3.G B 8X2X7X8X{.|.|.|.].}.}.:X>X:XDXGXGX:XpX&X&.].].}.}.}.}.}.}.}.|.[.A.{.OX'.{.{.uXdXjX",
"%X%XOXOXOXXXA.~.L.}.}.].}.}.}.}.}.}.].].].G m 3X7X2X3X8X3.|.}.}.].3.:X:X&XCXGX:XMX*XMXDXX.].}.].}.}.}.}.}.}.-.[.P.[.{.,.OXuX%XOX",
"%XOXOXOX.X.XH.| [.}.].}.].].].].].].}.}.2.Z O.3X1.8X1.2X4X2.].].].}.;.BX>XDXGXHX>XMX>XBX;.}.].}.].]._.}.}.].).*.P.*.E.[.XXOXOXoX",
"OXOXXX.X|..X.X}.].].]._.].]._.]._.]._._.a u O.8X2.8X2.'.4X1._.2.].].,...&X;X;X>XFX>XMX;X=.2._.].]._.]._.].].].U.C.Y.F..X.XOXOXoX",
"OX.X.X}.}.}.].].].].{.[.].,.).).).,.,.o.4X>.a <.'.8X<.2.8X1X,.].).]._.'.).2.,.-.>XHXFX;X,._._._._._._._.'._.).'.Z.Z.u.*.G.*..XOX",
"OX.X.X.X}.[.].[.].[.[.].'._.).)._._.,.o.1X6Xa ,.,.2.4X>.6X3.,.,.)._.).).).].'._.:.GXGXFX:X;.-.`.)._.'.'.'.*.M.*.C.A.Z.'.[.[.U.+X",
".X}.}.].}.].`._.'.'.'.{.'.,._.).).-., u , l u o.O.m u a <.&.-.,.).`.).).).$.] [ $.wXDXHXHXFX&X@.~.[.'.'.~.P.E.| *.M.Z.L.T.-.[.{.",
".X.X[.[.`.`.`.`.'.'.'.'.'.I.U.).U.o.F U I U U S Y U U Z v P c o.o.o.o.).'.' [ ] / =.;XMXDXSX&X` *X[.'.'.[.*.Z.R.Y.Z.*.].'.'.|..X",
".X[._.).`.`.).`.).).~.'.).I.).I.,.=.v L V U U U I U U U U U U Y J Y P b p j < :.] ~.I.=.^ ^ -.:.` ^.'.'.'.[.~.`.L.A.A.).'.'.[..X",
"].[.`.).`.`.P.%.Q.!.%.~.U.I.I.I.U.~.x f V U v U z I I U U U U U U U U I A U c  ./ ~.R.:.[ P.-.~.[ ~.~.U.~.~.'.U.H.*.M.`.`.'.[.[.",
"[.`.`.).E.E.P.%.Q.%.$.-.I.H.I.I.U.U.l V P U j B j x L U C L z I I U Y g s P C C ^ $.J.#.$.U.I.Q.[ ~.P.~.E.~.U.I.L.C.Y.E.`.'.'.[.",
"`.`.`.E.I.T.T.@.#.%.$.H.I.H.H.L.U.P.x U U M O.< ;.*XL U A j , K j U L s s C U U I p Q.` G.A.P.] !.~.T.U.E.E.E.T.L.I.R.E.R.`.`.`.",
"`.`.`.`.Y.@.#.#.#.#.G.F.H.H.H.H.P.=.Z U H :X|   { pX3XJ -X ...=Xz U I f A Z U Y U L _ [ T.Q.] #.P.T.P.P.P.P.U.H.K.H.H.R.(.E.`.`.",
"`.(.R.R.P.#.@./ ;X/ @.V.H.A.H.H.T...Y U qXaX/.{ /.tXBX<X{.O & n.BXA U U U C K s I U N  .@./ G.G.L.T.P.T.P.P.L.H.H.H.H.L.I.P.I.`.",
"R.R.J.Y.H.G.F.@./ $.G./ F.H.A.A.*. .U U qXDX(./.K.DXBXDX~.{ { K.GXB U U P Z N s P U U x / F.F.F.F.Y.L.T.Y.Y.H.H.A.H.H.H.T.E.R.`.",
"R.R.J.J.G.F.F.@.$.Z.B.B.A.C.A.C.A. .Y U wXHXSX:XDXHXMXHXyX/./.eXHXwXA L Z U g s I U U n G.F.Z.A.Z.A.A.F.G.A.c.A.C.A.A.F.Y.R.R.R.",
"R.J.J.F.F.F.Z.@.V.D.C.C.A.D.D.D.*.+.I S l M GXHXHXHXMXGXGXpXpXHXHXwXA S H U d f U U J _ A.C.C.N.D.D.D.C.*.D.D.A.D.D.D.D.F.H.J.R.",
"R.J.F.F.F.D.C.C.Z.C.C.C.C.C.C.C.c...Y k Y Y qXHXHXHX:XHXHXHXHXFXwXb U Y J U f A U U l ' / B.Z.B.Z.Z.D.C.C.C.c.A.C.C.D.F.F.J.J.J.",
"J.J.J.F.D.D.S.C.S.S.S.S.S.S.S.C.c.i U z F U Y wXHXNXN DXHXHXHXM K F N Y H U Y U Z U &X] ' ' ` ` ` @.M.C.c.C.S.C.C.D.S.D.W.F.F.J.",
"J.W.W.W.W.S.S.s.N.S.S.N.c.S.S.c.c.l U Y % U U L b H U -XHXHXFXC P Y H J Z U U I f Y y @.m.V.V.V./ ' / S.M.S.s.S.c.N.D.F.W.F.W.J.",
"F.F.D.D.S.S.S.s.c.N.s.S.s.S.s.S.c.x U U L j H U I Z U I -XNXCXx I P P C J U U U A v ` ` m.S.s.N.M./ ` u.N.c.s.u.S.s.c.S.C.C.D.F.",
"W.D.S.S.S.s.s.S.u.s.s.s.p.s.s.s.c.l U U L c % k Z U U U U J F L v P P C U U U U U n B.m./ M.M.p.s.@.` N.s.N.s.N.s.u.s.C.c.D.D.F.",
"W.F.S.s.s.s.p.p.s.N.W.p.s.s.p.s.a.p U U v % J U I U U U U U U z c U U v U U U I F y +.M.V./ u.M.r.V.` p.s.p.s.p.s.p.c.s.S.W.W.D.",
"W.W.S.c.s.u.s.s.u.u.p.s.p.p.p.p.u.X.U U I L , , v P U U I Z % . P U I F U U I -XDXGX*X . .^ ^ m.V./ / p.u.p.p.p.u.u.s.s.s.S.S.W.",
"W.S.N.s.p.s.N.N.s.p.u.p.i.p.i.p.p.=XU U U U wXGX1 : b *Xo     o U U S L U U D HXHXwXP I I I H b ^ / e.p.p.p.p.p.z.p.p.z.s.b.S.W.",
"W.W.s.s.u.N.N.N.p.i.p.p.p.i.p.k.u.M S V U U wXHX1 1 HXFX.     j U U L S U U K DXHX>XX.~ +. .&XK M X.X.X.+.r.p.i.p.N.N.N.p.c.S.W.",
"b.b.b.s.i.s.M.u.r.p.r.p.r.i.r.i.r.M h s U U x : @ : MXNX.     J L L L S N I U D MXAX} } q.r.g. .I U P D M g.i.r.N.N.B.W.p.N.z.W.",
"b.N.z.z.p.p.p.p.p.r.i.r.i.r.r.r.r.u V g U U F     . X       # U h h L Z s J Y P > #.Q r.r.r.| M P U D X.~ h.g.p.N.M.N.Z.z.a.a.b.",
"b.W.z.p.z.p.g.r.g.p.r.r.r.r.i.r.r.p I U U U P   . ,X,Xq n @ N U A A Z A s A U v / w.r.w.r.r. .H  .M ..G X.r.r.g.M.N.N.N.N.g.z.b.",
"z.z.p.k.r.k.p.g.r.r.r.f.w.w.r.9.^.-XU Y U U U o X ,X,X,X,Xn U I U U C A s I U a f.f.w.w.q.r.r.Q w.=X=XX.H e.r.r.g.N.N.N.l.z.z.b.",
"z.a.z.z.r.r.r.r.e.r.r.w.r.r.r.r.!.=XU V S U U c . n ,X,Xn Y I d N U A L z I U &XM.9.w.w.r.f.r.r.w. .&X}  .w.w.r.N.m.g.N.i.z.l.z.",
"l.l.i.p.k.k.i.w.q.g.g.w.q.w.w.q.Q.M U L U U U U N j k N qXU L s d U C U Y V K  .M.w.q.w.w.q.d.q.w.q.w.q.w.w.d.e.!.Q.g.z.i.k.l.l.",
"l.k.k.r.r.g.r.r.r.q.r.e.q.w.q.w.( < H N v K U U N v H U U U Y d h J L U U L D B.M.0.e.q.q.d.d.q.q.w.q.q.d.q.e.VXaXCXQ.r.k.k.k.l.",
"l.k.k.k.r.k.r.f.w.q.q.q.q.q.r.q.q.Q E Q ;X1 b l k Z N Z I U U P U J H U Y P M B.p.0.q.q.w.q.q.e.d.q.} w.e.q.B.pXq.B.aXf.r.k.l.l.",
"l.k.k.i.r.r.r.r.w.q.e.( e.q.q.q.q.W m.B.rXFX>XBX_ 2 y CX-Xb > *Xl , w j b :X~ B.q.q.q.) q.q.) q.( aXDXeX) 0.rXB.w.M.iXg.k.k.k.l.",
"v.k.k.k.t.f.r.w.d.d.e.( ( ( 0.) e.W *X>XMXBXBXBXwX0 DX>X>X:XGXGXHXNXHXGXHXFX~ ( ) q.q.q.q.q.q.d.V.sX+.sXm.) rXM.d.eX^.f.f.k.k.l.",
"l.k.l.h.t.w.r.r.q.q.) ( ) ( ) ) ) R 9 3 + 6 7 5 0 2 w t n wXBXZXDXMXMX-Xn 3 ; ) q.0.0.0.0.0.0.0.B.eX) m.rXw.aXe.g.aXr.h.h.h.j.l.",
"l.j.k.h.t.g.q.q.d.f.e.( q.( ( ( ) ~ 9 6 $ 6 7 o 4 2 @ $ 9 5 3 3 7 5 9 + o 6 T ( 0.0.0.0.0.0.0.) ( AXm.( pX$.AXe.rXm.h.f.h.h.j.l.",
"l.l.k.k.t.r.w.9.q.d.( q.q.( ) q.) < 9 9 9 9 9 9 4 2 4 5 9 5 + + 9 7 9 5 7 7 W ) 0.0.0.0.0.0.0.) 0.Q.VXm.!.ZXaXrXM.f.h.h.h.a.j.v.",
"v.l.k.j.i.i.t.w.r.f.9.q.e.( 0.) ) W $ 8 6 6 8 8 8 7 9 8 9 9 8 9 9 7 9 9 8 3 ! 0.0.0.0.0.0.0.0.0.0.0.V.VXQ.Q.$.aXw.f.h.h.j.j.j.j.",
"l.l.v.z.k.r.t.w.e.r.( q.e.q.) d.) > 8 9 6 : T ; - : : $ $ 3 5 7 8 6 3 $ $ ; 0.f.0.! E ) ) ) ) ( 0.q.q.B.NX!.eXNX| w.M.yXiXZ.v.v.",
"v.v.l.l.k.k.r.r.d.e.r.q.d.0.) ) ) < 6 7 8 Q 0.q.( ;.&.( &.....< < i $ 9 9 5 W 0.( O   E ) ) ) ( } ( ! aXeXeXiXZXsXsXVXaXsXCXc.l.",
"v.l.l.l.k.j.t.w.r.w.r.W & E 0.d.) ! z k , ( ( 0.+.o.&.;.{ O.1X:.9.:.< 9 8 8 W ( (     * ) ) m.sXDXSXVXeXQ aX!.:.iXQ.u.y.u.sX^.n.",
"v.v.l.l.l.j.y.t.r.r.r.R & * e.( ( X.C > W ( 0.0.+.:.+.;.;XO.;.+.:.O.( 6 6 : ) ) ( W . = ) ) aXeXe.( } pXBXM.eXDX^.i.y.j.j.yX^.v.",
"n.l.v.l.a.a.i.t.t.r.9.Q ; & 9.( Q x  .) ) ) 0.0.( | &.1X=X=X1X} } 0.0.R ; L  .0.T W *   E g.aXq.9.B.VXCXZXeXNXiX^.iXs.a.c.sXc.n.",
"n.n.x.a.u.a.i.i.i.r.t.! E & w.! ; R d.d.0.) ) ) ( 0.9.+.=XO.1X} 0.0.0.0.q.b J  .&XW *   & m.aX9.!.VX!.r.!.aXaX^.h.Z.mXsXsXL.x.n.",
"v.v.b.a.a.a.a.p.r.i.r.} } X E 9.R ( d.0.q.0.q.0.0.( 0.;.O.1Xo.>.+.0.0.0.d.Q D Y m ) & = & ) aXSXNXM.f.f.G.aX^.yXj.j.a.c.x.x.v.n.",
"v.n.x.x.x.a.i.a.i.y.r.| } & X W ! w.d.d.q.r.g.q.0.0.+.;.;.} +.} 1X} 0.0.d.w.Q p } 0.T O W ) q.B.9.w.f.h.G.iXZ.aXk.l.v.x.x.v.n.n.",
"v.n.b.c.a.x.a.a.y.i.i.w.Q &   W w.d.f.q.d.p.g.q.0.q.:.O.;.e.&.e.&.+.0.d.) d.) d.0.0.f.0.0.f.f.d.f.d.h.h.G.rXz.sXa.j.v.v.x.n.n.n.",
"n.n.n.b.b.a.x.l.a.a.y.i.} R O w.f.f.f.w.w.g.g.q.0.q.9.;.9.0.e.;.O.e.0.d.d.d.d.d.f.0.0.f.f.f.f.w.f.k.h.h.G.yXz.VXa.a.v.v.v.n.v.n.",
"n.n.v.n.v.v.x.x.a.a.j.a.h.{ t.f.f.f.f.f.f.w.w.d.q.0.d.d.d.d.d.d.w.d.d.d.d.d.q.d.0.f.f.f.f.f.f.f.h.h.h.k.G.VXaXpXj.n.v.v.n.n.n.n.",
"n.n.n.n.n.n.x.v.a.a.j.h.h.y.y.h.k.f.f.f.f.f.f.f.f.f.0.f.q.d.d.f.d.d.q.d.f.q.q.d.q.f.f.f.f.f.h.h.h.j.h.j.x.iXiXc.x.v.x.v.n.n.n.n."
};
