/* XPM */
static char *result[] = {
/* columns rows colors chars-per-pixel */
"64 64 253 2 ",
"   c #241C18",
".  c #422611",
"X  c #593919",
"o  c #67251D",
"O  c #72612C",
"+  c #473743",
"@  c #354C58",
"#  c #345676",
"$  c #3D7E7E",
"%  c #506D57",
"&  c #63614F",
"*  c #4F5473",
"=  c #70586F",
"-  c #536A78",
";  c #716A78",
":  c #911A1D",
">  c #A21C20",
",  c #A3312B",
"<  c #D81D27",
"1  c #875626",
"2  c #915929",
"3  c #B4423D",
"4  c #94682F",
"5  c #A76A2C",
"6  c #AD6F2F",
"7  c #BA7631",
"8  c #894E50",
"9  c #94725E",
"0  c #8F6D73",
"q  c #7D8747",
"w  c #4F897C",
"e  c #6F946E",
"r  c #72A678",
"t  c #BABD16",
"y  c #97853B",
"u  c #C0C21E",
"i  c #C6C625",
"p  c #D5D339",
"a  c #959350",
"s  c #B2AB4E",
"d  c #A9A855",
"f  c #BCB552",
"g  c #8B8C70",
"h  c #A49662",
"j  c #90AE6E",
"k  c #AEAF6B",
"l  c #C3BA54",
"z  c #DEDA44",
"x  c #CCC659",
"c  c #D4CA5A",
"v  c #DBD45D",
"b  c #E2DD59",
"n  c #ECE555",
"m  c #F3EB5E",
"M  c #D8D16B",
"N  c #E4DB62",
"B  c #EAE264",
"V  c #F4EB67",
"C  c #F9F066",
"Z  c #FEF46C",
"A  c #2D5B8A",
"S  c #376D8F",
"D  c #27669A",
"F  c #366698",
"G  c #1F67A5",
"H  c #256BA6",
"J  c #3078AD",
"K  c #2576B7",
"L  c #465D84",
"P  c #4C678E",
"I  c #576287",
"U  c #776886",
"Y  c #706F91",
"T  c #726CA3",
"R  c #297DC7",
"E  c #267FCD",
"W  c #277FD0",
"Q  c #DD2A82",
"!  c #DF388B",
"~  c #E03E8E",
"^  c #876C87",
"/  c #94748F",
"(  c #9B738B",
")  c #A5758C",
"_  c #A97C97",
"`  c #B27D98",
"'  c #875FAF",
"]  c #E24C96",
"[  c #E45FA1",
"{  c #E66DA9",
"}  c #3E8485",
"|  c #3286B1",
" . c #3887BA",
".. c #3C96BC",
"X. c #4D8F8D",
"o. c #698F95",
"O. c #5BA895",
"+. c #66A886",
"@. c #71AE93",
"#. c #4C94B4",
"$. c #6A8BBA",
"%. c #7585B7",
"&. c #6697BC",
"*. c #7095B5",
"=. c #5AA6A9",
"-. c #49A6BC",
";. c #55ADB1",
":. c #59B6BA",
">. c #6CACAF",
",. c #5DC2B4",
"<. c #65C9BD",
"1. c #6FD3B1",
"2. c #6AD6BD",
"3. c #6DDBBF",
"4. c #6EE0BE",
"5. c #74E3BE",
"6. c #79E6BE",
"7. c #7BE9BF",
"8. c #2C83C6",
"9. c #2680CE",
"0. c #2B84CD",
"q. c #2D8ACD",
"w. c #3587C7",
"e. c #328DCC",
"r. c #2E92CE",
"t. c #2F98CF",
"y. c #3997C6",
"u. c #3493CD",
"i. c #3995CB",
"p. c #349BCD",
"a. c #3C9CCB",
"s. c #2780D0",
"d. c #2A84D0",
"f. c #2B8DD0",
"g. c #338CD1",
"h. c #358CD0",
"j. c #2D93D1",
"k. c #2F99D2",
"l. c #3295D1",
"z. c #339CD2",
"x. c #3A99D1",
"c. c #35A2CE",
"v. c #3DA1CC",
"b. c #34A4D2",
"n. c #3BA1D1",
"m. c #35A9D3",
"M. c #438DC8",
"N. c #4798C9",
"B. c #439ACC",
"V. c #559AC7",
"C. c #5191CC",
"Z. c #609CC2",
"A. c #45A6C6",
"S. c #49A7C6",
"D. c #4AACC6",
"F. c #42A3CA",
"G. c #46A9CA",
"H. c #4AADCA",
"J. c #54ACC7",
"K. c #4EB2C6",
"L. c #4EB2CB",
"P. c #54B4C5",
"I. c #5AB5C6",
"U. c #54BAC5",
"Y. c #5BBCC5",
"T. c #54B5CA",
"R. c #5AB5C9",
"E. c #55BACA",
"W. c #5BBCC9",
"Q. c #41A7D0",
"!. c #68A6C8",
"~. c #77ABCA",
"^. c #62BBC7",
"/. c #7AB2CB",
"(. c #6FB2D1",
"). c #5DC3C4",
"_. c #5DC4C7",
"`. c #63C3C6",
"'. c #63CCC4",
"]. c #63C4C9",
"[. c #68CAC8",
"{. c #75C9C5",
"}. c #67D2C2",
"|. c #6BD4C3",
" X c #6EDAC1",
".X c #6CD4CA",
"XX c #73DCC3",
"oX c #78DAC8",
"OX c #70D0D2",
"+X c #75E2C1",
"@X c #7BE4C2",
"#X c #7EEAC0",
"$X c #7FE1C9",
"%X c #92918D",
"&X c #AD8F8F",
"*X c #B6839B",
"=X c #84BA97",
"-X c #B8AF98",
";X c #8B9DA3",
":X c #BA86A3",
">X c #B492A2",
",X c #85B3A9",
"<X c #B0B2AF",
"1X c #C68CA9",
"2X c #CE91AF",
"3X c #D998B8",
"4X c #EA8DBA",
"5X c #D0A7A3",
"6X c #90C593",
"7X c #82E9BE",
"8X c #D1CD8E",
"9X c #CAC7B2",
"0X c #87B6CB",
"qX c #8FB7CA",
"wX c #87BAD2",
"eX c #E99BC1",
"rX c #D7ABCE",
"tX c #E8A3C5",
"yX c #EEA7CA",
"uX c #EFABCC",
"iX c #F0AFCF",
"pX c #F1B8D4",
"aX c #84DDC8",
"sX c #94C3D1",
"dX c #99C5D3",
"fX c #ADCBD1",
"gX c #A8CAD5",
"hX c #B8D5D9",
"jX c #83E3C3",
"kX c #8BE4C5",
"lX c #84EAC1",
"zX c #8BECC2",
"xX c #89E5CA",
"cX c #93EAC6",
"vX c #9BECC6",
"bX c #93E8C8",
"nX c #9BEBC9",
"mX c #9DF0C9",
"MX c #A4EEC8",
"NX c #A4EEC9",
"BX c #A6F0CA",
"VX c #ADD8E3",
"CX c #CCCAC7",
"ZX c #C7D8D8",
"AX c #D8DAD8",
"SX c #F1C9DC",
"DX c #D2E3DC",
"FX c #E2E9DA",
"GX c #F6D2E4",
"HX c #D4E6E3",
"JX c #E7E8E7",
"KX c #F6F6F6",
"LX c #FEFEFE",
/* pixels */
"NXNXBXBXBXBXMXMXvXvXvXcXzXzXzXzXzXlXlXlXlXlXlXlX7.#XlX#X7.7.e a r r 1.7.7.7X7X7X7X7X7XlXlXlXlXzXzXzXzXzXcXcXxXbXmXBXNXNXBXMXMXBX",
"mXNXBXBXMXMXMXMXvXvXvXzXzXzXzXzXlXlXlXlXlX#X7.7.7.7.7.7.5.1.s m V C s j j 1.zX7X7X7XzX7X7XlXlXlXlXzXzXzXcXjX:.-.xXvXnXMXNXNXBXBX",
"nXNXBXBXMXMXvXvXvXcXcXcXzXzX7XlX7.lX#X7.7.7.7.6.7.7.7.7.7.q i i d n f Z Z x d a +.1.1.7.#X7X7XlXlXlXzXzXzX{.aXxX<.vXbX{.nXMXBXNX",
"MXMXBXMXvXvXvXcXcXbXcXkXjXlXlX7X#X#X#X6.7.6.6.5.5.6.5.7.,.x n x <X<Xk f v v B Z B v l e X.1.7.7.7.lXlXlXlXaX<.bX{.NX/.aX{.nXNXMX",
"nXNXNXvXnXvXvXcXcXcXkXkXjX#X@X@X7.@X+X@X+X6.4.4.5.5.5.1.e z b AX<X;XCXN k k a C Z m z Z b a ,.#X7.#X#XlXjXlX:.xX(.aXaXbX{.nXnXnX",
"nXnXnXnXbXbXcXcXkXkXkXkXjX#X@X+X+X+X+X+X+X4.5.+X4.5.5.r n f Z 9X$ <XJX>XfXAX9Xa Z i i Z C B r 7.+X#XjX@X#XjXjX<.^.J.xX^.bXnXbXnX",
"nXnXnXbXbXbXkXkXkXkXjXjX@X@X@X+X5.+X+X+X+X4.4.4.4.4.4.d n x n M fXLXCXZX@ ZXLXM Z m Z V v Z +.+X+X+X@X$X$X@X@X.X^.oXI.jXbXbXbXbX",
"nXbXbXbXbXkXkXkXjXjXjXjXXX+XXX4. X3.3.4.3. X3.4.4.4.O.n Z Z s Z 9XAX9XAXfXLXLXM Z Z V b m C O.4.+X+X+XP...-.^.S.R.^.Y.xXxXxXbXbX",
"bXbXbXbXkXkXjXjXjXaXjX5.3.3.3.XX3.3.3.3.3.3.2. X4.,.d Z Z s x s V v 8XLXLXFXKXN Z Z N m t z +. X XXX X-.oXXX`.R.].[.[.I.:.:.xXxX",
"bXkXbXbXkXkXaXjXaX6.oXXX3.XX X3.3.4.}.3. X}. X2.3.r Z Z Z V 4 N Z Z v AX5Xl a Z Z b V z t p j 3. X|. XD.oXXX`.A.S.J. .[.aXOX].xX",
"aXkXbXaXaXaXaXaXaXaXXXXX|.|.|. X4.}.}.}.}. X}.2.2.j n p Z B AX%Xa x C N d B l Z B B Z z t n +.2.2. X X).-.-.'.oX-.-.oXR.R.$X^.xX",
"xXaXaXaX;.^.oXoXoX1..X|.|.|.|.|.}.2.}.2.2.}.}.2.w v C V Z s 8 8 CX5Xo o O B l C n Z C m z Z r 2.}.}.}. X X X X).^.K.oXoX[.-.oXxX",
"aXjXaX{.oX^.aX{.D.'.}.}.|.2.'.|.}.}.}.}.}.}.=.<Xa z i m C , > > 8 8 > 1 V Z Z v Z Z p z C Z j |.<.2.}.}.|.;. X:..XP.XXXXoXaXoXxX",
"aXoX$XoX:.[.{.I.].:.}.}.'.}.'.'.}.'.'.'.'.=.AXKXx t t m N o : : > > : c V Z v z z Z p n Z C @.'.e j }.'.e f <.:.^.D..XoXoXoXoX$X",
"$XoXoXXX[.W.-.Y.D.).}.}.}.}.'.'.'.'.'.'.'.;.a g Z n n V N 8 h 8 o : y u i v V i t C Z Z B r ).'.r b w j x % +.Y...K.|.oXoXoXoX$X",
"oXXXOX.X|.G.T.S.:.'.}.).).).<.'.'.'.'.'.,.d a ; d v Z c l s 2XtX1X2 C p n N Z i t N V Z r ).'.'.;.x Z C d s B O.'.}.|..X.X.XXX$X",
"oXOX-.S.K.y.N.S.].).'.).).).).).).).).=.k e =.-XLXg -Xg N a O 9 f m n C N Z Z s -X9X%Xq ;.:.;.;.w v V Z l % w }.[.'.}.}..X|.oXoX",
"oXY.].[.`.S.D.-.-.S.-._.`.'.,.:.,.).+.M e ,.X.g AXJXCX%X, 6 d f Z C m m B Z c JXLX9Xd f x x x c N c B Z v v e [.'.'.'..X'..X.X.X",
".X[.:.Y.:.S.N.-...Y.J.].[.[.>.e a d B % :.).% . X 6 -X*X3 >XFX%Xk k v V C u n g JXZXg - w $ $ $ } X.e r w w <.].`.).'.'.'..X.X.X",
".X[.`.^.).D.S.I.W.N.-.{.[.:.q a x a x 0 = - X 5 X o . < 3 -XCXLXLXLXfXx Z u C B % - X.).).<.Y.).U._.U.W.`.`.^.].).)._._.].[.'..X",
".X[.'.`._.S.-.E.Y.].].`.^.:.O v h 3Xl 2XyXyX1X& 2 7 1 < o X 5 h 9XKXAXk Z Z Z j _.U._._.].^.`.Y._.U.).U.)._.].^._.W._._._.'.[..X",
"[.].]._.W.A.-.U.Y.^.^.^.`.X.) 0 yXiX&XyXyXyXyXyX` 8 2 2 5 1 o   1 2 CXAXN Z h -.U._.^.].`.^.^.Y.U.U.U.U.^.*.>.(.%.W.E._._.]._.'.",
"`.`.].W.E.T.A.P.U.Y.Y.Y.I.= yXSXGXGXpXuXuXuXyXyXyXyX0 1 6 7 7 1 X 5 h LX8Xl -.U.I.W.].^.^.Y.^.Y.U.U.U.).!.&.*.&.*.^.E._._._.].[.",
"]._._.W.E.U.U.K.R.Y.R.Y.X.1XpXGXGXpXiXyXyXuX{ { yXyXyX` X 1 6 7 7 4 X GXfXX.:.K.T.W.^.E.R.^.W.Y.K.K.K.K.U.&.*.%.$.R.E.L._._._._.",
"_._.E.E.E.K.U.K.L.E.Y.R.- yXpXGXiXyXyXyXyX! Q Q ] yXyXyX1X1 2 1 1 7   &X,XK.K.K.T.I.E.R.R.Y.R.R.P.K.K.P.T.R.$.$.%.%.$.P.W.W.W._.",
"_.E.R.E.K.K.L.D.K.T.I.I.^ yXGXGXuXyXyXyXyXQ Q Q Q ~ yXyXyX2X2 7 5 6 1 X X.G.D.K.D.I.I.I.I.I.I.I.K.K.D.D.$.$.%.%.' $.%.I.E.E.E._.",
"E.E.W.R.K.K.D.D.D.P.T.J.) iXGXGXyXyXyXyXyX{ [ Q Q Q { iXyXyX1X2 7 2 5 1 D.D.G.K.D.P.R.P.J.I.I.J.D.D.D.D.%.J.$.T &.H.J.J.L.E.E.E.",
"E.T.E.T.K.D.D.S.S.S.D.-.*XpXGXSXyXyXyXyXyXyXyXyX{ [ yXiXyXyXyX) 7 7 1 @ G.A.D.D.S.J.J.P.J.P.L.D.S.S.D.S.V.C.S.&.$.G.L.L.L.L.E.E.",
"E.T.L.L.H.G.S.G.G.S.A.-.` uXGXiXyXyX{ [ eXyXyXyXiXyXyXyXyXyXyXeX2 7 5 1 | A.A.A.G.S.K.J.J.L.D.S.G.G.G.A.A.S.G.$.$.G.G.H.H.L.L.T.",
"L.L.H.H.G.S.A.A.G.G.A.A.( yXiXyXyXyXQ Q ] yXyXyXyXyXyXyXyXyXyXyX2 2 4 6 $ D.A.A.S.A.A.S.S.S.A.A.G.A.A.A.A.A.A.A.A.S.G.G.H.L.L.L.",
"L.L.H.H.G.G.F.A.v.A.v.A.Y yXSXSXyX4XQ Q Q eXyXyXyXyXyXyX{ [ yXyX0 2 y 9 U ..G.v.A.F.F.A.G.F.F.A.A.A.v.G.F.F.A.A.A.F.G.G.Q.H.L.L.",
"L.H.Q.Q.G.v.A.a.v.A.A.a.S 3XuXiXyXeXQ Q Q ] eXyXyXyXyXeXQ Q [ yXtX` a *XyX- v.A.F.v.B.F.F.B.F.a.a.A.v.v.A.v.B.v.v.B.F.G.Q.G.H.L.",
"H.G.G.F.v.A.a.a.a.B.a.B.h.= yXyXyXyX! Q Q Q ! yXyXyXiX{ Q Q ~ yXyXyX) %XuX2X| B.B.B.v.B.v...a.B.v.A.a.a.B.a.A.a.v.a.v.A.F.G.G.L.",
"G.G.G.A.a.v.a.a.a.a.a.a.C.= ) yXyXyX4XQ Q Q ! yXyXyXuX[ Q Q ! yXyXyX3X%X2XeX@ # y.N.a.a.a.v.a.a.a.a.a.a.a.a.y.a.a.B.a.A.F.F.Q.H.",
"Q.F.G.a.a.a.a.a.a.a.i.B.M.' @ ( yXyXyXeX[ [ eXyXyXyXeXQ Q Q ~ uXyXyXyX&X>X= & Y J J.a.a.a.a.a.a.a.a.a.a.a.x.B.a.y.a.v.v.B.F.Q.H.",
"H.F.v.v.a.a.a.i.y.y.M.h.w.C.= eX4XyXyXyXyXyXyXyXyXyX[ Q Q Q [ yXyXyXyX_ CX. @ %Xo.dX0Xi.y.y.y.i.u.i.i.y.a.y.y.a.y.a.y.a.v.F.Q.Q.",
"Q.Q.a.a.x.x.i.i.y.i.i.i.i.y.- eXyXyXyXuXpXyXyXyXyXyX[ Q Q Q eXyXyXyXyX3X+   - ; >.../.u.(.dXy.u.u.i.l.i.i.i.y.i.B.B.i.a.a.v.Q.Q.",
"n.Q.a.a.B.Q.B.i.i.e.i.e.e.y.F ( eXyXyXyXpXSXiXyXyXyX{ Q ! 4XeXuXyXyXyX5X    - # V.!.~.#././.C.y.u.u.i.i.i.i.e.i.B.B.a.y.a.a.a.Q.",
"n.B.a.x.B.V.B.B.i.e.e.h.u.e.i.H A L * ( ` yXGXpXyXyXiXyXyXyXyXyXyXyXyXyX+ ; *XY e.!./.hX#.dXe.u.u.u.e.e.e.i.u.i.B.B.B.i.a.n.n.n.",
"n.c.x.x.S.N.B.N.h.e.i.h.e.u.e.u.u.h.K _ ( 0 yXpXSXuXyXuXyXyXyXyXyXyXyXyX>X( tX/ y.w.qXV.gXM.u.e.e.e.e.l.e.u.e.i.i.i.l.x.a.a.B.n.",
"c.n.i.a.B.B.B.x.h.e.w.e.e.e.q.e.e.e.e.- tX@ = uXuXrXpXiXyXyXyXyXyXiXuXyXyXyX*Xo.qXgXdX,XqXV.C.e.e.e.e.e.e.e.i.h.h.u.u.x.i.a.x.n.",
"b.x.p.x.B.B.M.B.h.e.e.e.e.e.e.e.q.e.e.D 3XL D ^ yXtXuXpXpXpXyXyXiXiXyX2X= + o.M.M.&.qX0XqX~.wX/.w.q.q.q.q.e.e.e.i.h.l.u.u.i.x.n.",
"n.p.p.y.B.N.B.x.e.e.0.e.e.q.q.q.q.q.q.K ` I w.D = tXuXuXuXyXyXtXyX` ; F = 3XY /.~.&.fXdXqXdXi./.w.q.e.e.e.0.e.e.e.u.r.e.l.x.z.n.",
"z.x.l.u.l.h.!.~.w.d.f.e.0.0.0.0.0.q.0.e.) I 0.N.V.* ^ 3XyX0 # # ` eX- w.J / :X* J R 0X0Xw.M.dX!.q.q.q.q.g.h.h.0.e.e.l.l.i.l.x.b.",
"z.x.k.l.g.!.DXhXZXw.d.d.0.0.w.d.0.0.9.R ) S R M.V.N.V.* yX_ 8.q.# eX1XH e.J ; 3X*X^ Y *.8.8.0.q.8.q.0.0.0.e.0.e.g.f.u.e.u.t.l.z.",
"z.l.l.u.e.dXV.0.gXV.d.0.8.M.W d.0.0.0.H 1XA 0.i.C.J.V.i.^ 3XD 0.K ( yXP 0.e.w.D P / 3X:XF 0.0.d.0.q.8.0.0.0.0.e.q.e.l.u.l.l.l.z.",
"z.k.l.q.f.gXN.e.!.~.0.W qXJXfXR 0.0.W A 3XD d.w.C.C.N.h.# tXP f.0.= uX^ 0.0.0.0.0.R A :X*XR s.0.0.0.q.0.w.0.0.0.e.q.q.u.t.l.l.b.",
"z.k.j.j.f.!.0X0.M.wXw.M.hX .ZXV.d.0.w.A yXD 0.W d.w.R E H 1XY 0.9.A yX2XH R 0.0.0.9.0.K >XP s.0.9.0.R R 8.0.0.q.q.e.q.r.l.l.l.z.",
"z.k.j.j.j.q.gXi.w.gXw.wXM.w.qXZ.E 9.9.P uXF E E W 0.0.8.8.) / 9.0.K 1XyX* E W W s.0.0.0.F ` K d.0.0.R 9.R d.d.f.0.h.g.j.r.z.l.z.",
"z.k.k.j.f.f.i.wX8.AX$.fXW R ZXM.W E 9.P uXI E W E E 0.C.C.( *X9.0.8.I tX2XA W W 9.9.9.9.W U ^ I / T E 0.w.8.0.0.e.0.e.j.r.l.k.z.",
"z.k.k.l.j.j.q.B.wXfXFX!.C.ZXZ.W W E R G 3X/ R W s.W h.V.N.( :X9.R 8.F ( yX1XL E 9.9.9.9.W H 1XyXyX3XH d.0.R f.0.w.q.e.q.j.j.z.z.",
"b.k.k.l.j.j.f.r.gX~.Z.~.HXZ.W W E E E E / yXP W 9.W e.C.N._ *X8.9.#.6XX.U tXyX^ K 9.s.s.W W F ( 1XU R 0.0.R q.0.q.f.i.u.l.z.z.b.",
"b.k.H.dXsXN.e. .ZXqX~.ZXV.R W W W E W E A 2XeXY H 9.s.l.h._ *X .0.=.J >.R A 1XyXU E 9.E 9.s.9.K G E 0.w.d.R e.8.q.r.u.l.z.n.z.b.",
"b.v.DXhXdXDXhXZXFXdXqX/.fXR w.J R W E E d.A 3XyX2XP s.s.E ( *X=X#.=.#.>.R =.e 4X3XD 9.E 9.9.9.9.9.E 0.0.w.0.w.q.q.e.r.l.z.z.z.b.",
"b.(.hXp.t.y.I.dX*./.gX .0XZXHXJXhXM.9.9.W W A ( yX3XH s.E U 2XD >.=X@.X.>.=.X.%XiX* 9.9.9.9.9.d.d.0.d.d.e.e.f.e.u.r.k.k.z.z.b.b.",
"b.(.sXk.k.t.u./.FXsXM.AXgX#.R w.0XhXR W 9.E E K * tX/ s.W # yXI =.@.O.,XO.=.,XS 2X:XA 9.9.9.9.R R 0.0.d.0.w.q.e.r.t.k.z.k.b.z.b.",
"b.-.VX-.p.a.sX(.sXZXqXFXDXDXV.8.W fXM.W W E E 9.R U 1XR E H *X:XS 6X,X@.6X=.| 8.L 3X*XD E W R R 9.0.0.| 8.8.e.r.q.u.t.p.p.b.b.b.",
"b.c.K.VXhXVXB.t.~.gXfX~.e.~.DX!.R VXM.W W E 9.s.0.P 3XK E E A 3X` e +.=X#. .0.9.E A _ 3XI W 8.0.d.d.f.q.e.r.e.u.u.p.i.p.p.c.b.b.",
"m.b.c.p.v.c.t.k.sX(.gXJ.e.h.V.ZXZXgX0.d.0.d.E E 0.N.I R W 9.s.- :X2Xg @.>.R R 9.9.0.H / eXF 8.0.f.f.r.q.w.e.u.e.u.p.p.c.z.b.b.m.",
"m.m.b.c.c.c.p.t.fXA.sXJ.j.e.h.i.V.M.0.d.9.0.d.d.W 8.9.9.9.E #.=XH / tX- =.#.9.9.0.h.e.H 2XY 0.0.0.f.8.q.r.y.r.y.p.y.p.p.c.n.b.m.",
"b.b.b.b.k.b.k.p.hXx.wXJ.j.l.l.h.g.x.h.h.g.d.g.0.0.d.d.w.d.0.#.=.w.X.1X3X- >.0.0.0.h.M.d.Y 1XH f.q.q.q.k.t.r.u.t.z.p.a.c.v.c.b.m.",
"m.m.b.m.b.b.b.c.DXz.wX!.j.l.l.l.e.h.h.g.g.g.h.0.h.w.g.g.g.0.w.@.>.e.= yX%XK 0.d.0.h.x.d.D tX; f.f.j.j.j.u.t.u.p.b.z.c.v.n.m.b.m.",
"m.m.m.m.b.b.b.b.gXdXDXH.l.x.x.h.l.x.x.h.h.h.e.d.d.d.W W d.d.d.9.8.0.A :XY d.d.d.d.f.f.q.K ) tXS f.r.k.k.u.z.p.p.b.p.c.m.m.m.m.m.",
"m.m.m.b.m.b.m.c.G.dXdXx.k.j.z.l.j.f.j.f.f.f.f.f.d.f.d.d.d.0.d.0.d.0.9.H K 0.f.q.f.q.f.f.q.# tXT j.k.j.k.p.l.p.p.c.m.c.m.m.m.m.m."
};
