/* XPM */
static char *result[] = {
/* columns rows colors chars-per-pixel */
"64 64 256 2 ",
"   c #040404",
".  c #18160E",
"X  c #0B2437",
"o  c #112430",
"O  c #292824",
"+  c #502628",
"@  c #38402E",
"#  c #5E541A",
"$  c #0E2C45",
"%  c #153249",
"&  c #123956",
"*  c #363951",
"=  c #5F2F4A",
"-  c #1A4457",
";  c #2D4F53",
":  c #2C6D57",
">  c #154569",
",  c #1A4E76",
"<  c #325A71",
"1  c #377572",
"2  c #52504B",
"3  c #6F7254",
"4  c #595E62",
"5  c #71596D",
"6  c #706C72",
"7  c #79797A",
"8  c #992E3D",
"9  c #BB6F1E",
"0  c #AB4C32",
"q  c #8F6325",
"w  c #AB712D",
"e  c #CA6B26",
"r  c #9C1D41",
"t  c #B11D47",
"y  c #962749",
"u  c #A72447",
"i  c #AE344E",
"p  c #CB1C4D",
"a  c #DD1B52",
"s  c #DA2751",
"d  c #E12852",
"f  c #E63853",
"g  c #975253",
"h  c #B0514C",
"j  c #916C4E",
"k  c #A86959",
"l  c #B26B58",
"z  c #965761",
"x  c #B75579",
"c  c #8A726D",
"v  c #977469",
"b  c #A97269",
"n  c #B87865",
"m  c #D0514D",
"M  c #E94753",
"N  c #EA5553",
"B  c #ED5A54",
"V  c #F05B54",
"C  c #CC6B5C",
"Z  c #EE675C",
"A  c #F1645A",
"S  c #F1695D",
"D  c #C37B67",
"F  c #D87866",
"G  c #F26D61",
"H  c #E87767",
"J  c #F27767",
"K  c #398F72",
"L  c #589A74",
"P  c #738F77",
"I  c #44B87D",
"U  c #B38D15",
"Y  c #AC8E34",
"T  c #AEA032",
"R  c #CA9516",
"E  c #F6911C",
"W  c #CBAD0B",
"Q  c #EFAE14",
"!  c #FCB316",
"~  c #FBBA11",
"^  c #CA8A29",
"/  c #FBC60A",
"(  c #EAD105",
")  c #F8EB06",
"_  c #FEF200",
"`  c #FEF208",
"'  c #F1E72F",
"]  c #8A885E",
"[  c #AA924D",
"{  c #908B73",
"}  c #AD916B",
"|  c #9AAA69",
" . c #B8AF75",
".. c #D2866E",
"X. c #E6846F",
"o. c #F3826E",
"O. c #F48973",
"+. c #EB947A",
"@. c #F5957B",
"#. c #F59A7F",
"$. c #CEAF62",
"%. c #CCB070",
"&. c #BCE775",
"*. c #F0E85C",
"=. c #EAC57C",
"-. c #F6CE7B",
";. c #1D5A89",
":. c #1B5F99",
">. c #255B88",
",. c #1E639C",
"<. c #326B93",
"1. c #2A75AF",
"2. c #755389",
"3. c #4D728D",
"4. c #687488",
"5. c #4A7CA5",
"6. c #7476B5",
"7. c #297DC8",
"8. c #287FD0",
"9. c #956696",
"0. c #9256A7",
"q. c #8B6BAB",
"w. c #339188",
"e. c #18A79A",
"r. c #388FB7",
"t. c #3988BB",
"y. c #02B0A1",
"u. c #12B4A6",
"i. c #4E8F93",
"p. c #778A8D",
"a. c #5FA195",
"s. c #74AD91",
"d. c #4F93B3",
"f. c #698BBB",
"g. c #7685B7",
"h. c #6E95B5",
"j. c #57ABA7",
"k. c #49A6BB",
"l. c #55AABB",
"z. c #58B5BC",
"x. c #6FACB2",
"c. c #68C49A",
"v. c #71CEB6",
"b. c #6CD8BD",
"n. c #6DDBBF",
"m. c #6EE0BE",
"M. c #74E4BE",
"N. c #7AE6BE",
"B. c #7BE9BF",
"V. c #2983C9",
"C. c #2C84CC",
"Z. c #2E8ACD",
"A. c #3688C6",
"S. c #328DCC",
"D. c #2E92CE",
"F. c #2F98CF",
"G. c #3A98C5",
"H. c #3493CC",
"J. c #3A95CB",
"K. c #349BCD",
"L. c #3C9CCB",
"P. c #2B88D0",
"I. c #318DD0",
"U. c #2D93D1",
"Y. c #2F99D2",
"T. c #3196D1",
"R. c #339CD2",
"E. c #3A9DD0",
"W. c #3BA1CC",
"Q. c #34A4D2",
"!. c #3BA1D1",
"~. c #35A9D3",
"^. c #4F8EC4",
"/. c #469AC8",
"(. c #439BCC",
"). c #5898C5",
"_. c #6091C2",
"`. c #45A5C6",
"'. c #49A6C6",
"]. c #4BABC5",
"[. c #42A3CA",
"{. c #46A9CA",
"}. c #4AADCA",
"|. c #53ACC7",
" X c #4EB3C6",
".X c #4DB2CA",
"XX c #54B4C5",
"oX c #5AB5C6",
"OX c #54BBC5",
"+X c #5BBCC6",
"@X c #56B7CA",
"#X c #5BBCC9",
"$X c #41A7D0",
"%X c #6AA7C7",
"&X c #77ABCA",
"*X c #63BAC6",
"=X c #70B1D1",
"-X c #5DC4C4",
";X c #5CC3C8",
":X c #63C3C6",
">X c #63CCC4",
",X c #63C4C9",
"<X c #68CAC9",
"1X c #75C9C5",
"2X c #67D1C2",
"3X c #6BD4C2",
"4X c #6DD9C1",
"5X c #6CD4CA",
"6X c #74DCC3",
"7X c #78DAC8",
"8X c #70CDD5",
"9X c #77E1C2",
"0X c #7CE4C2",
"qX c #7EEAC0",
"wX c #72D0F4",
"eX c #91908D",
"rX c #8FAA8E",
"tX c #B0A999",
"yX c #9B97A0",
"uX c #93B2AB",
"iX c #C6BA95",
"pX c #91D598",
"aX c #AAE488",
"sX c #8ECFA8",
"dX c #91DEA1",
"fX c #F0CC81",
"gX c #FAD180",
"hX c #E7DFAA",
"jX c #A19ED2",
"kX c #87B5CC",
"lX c #8AB9CF",
"zX c #83DDC8",
"xX c #90C6D3",
"cX c #98C6D3",
"vX c #A7CBD5",
"bX c #B1D1D5",
"nX c #83E4C3",
"mX c #8BE4C5",
"MX c #84EAC1",
"NX c #8AEBC2",
"BX c #89E5CA",
"VX c #93EAC6",
"CX c #9BECC6",
"ZX c #96EAC9",
"AX c #9DF0C9",
"SX c #A4EEC8",
"DX c #A4EEC9",
"FX c #A6F0CA",
"GX c #8BD7F1",
"HX c #B2DCF2",
"JX c #B2E2FA",
"KX c #CBD8D5",
"LX c #D2E3DC",
"PX c #F1EFD5",
"IX c #DBE6E3",
"UX c #CEE9F0",
/* pixels */
"DXDXFXFXSXSXSXSXCXCXCXVXNXNXNXNXNXMXMXMXMXMXMXB.MXqXqXqXMXB.B.qXrXk x rXsXMXNXNXMXMXMXMXMXMXMXNXNXNXNXNXVXVXBXBXAXFXSXSXSXSXSXFX",
"AXDXFXFXSXSXSXSXCXCXCXVXNXNXNXNXMXMXMXMXMXB.B.B.B.B.qXB.N.N.B.dXz fXfX9.MXMXNXMXnXNXMXMXMXMXMXMXNXNXNXNXNXnXz.l.mXCXCXSXFXSXSXFX",
"AXDXFXFXSXSXCXCXCXVXVXmXNXNXNXMXMXqXMXB.B.B.B.B.B.B.B.B.N.N.N.rXO.fXo.F v.mXMXnXMXMXnXqXB.qXMXMXNXMXNXNXNX1X7XBXv.DXBXxXZXDXFXDX",
"AXSXFXSXSXCXZXVXVXVXVXmXMXMXMXB.qXqX0XN.B.B.B.M.M.B.M.M.M.M.M.b fXV J D NXmXnXpX{ P v.qXN.N.s.a.B.B.B.NXNXzX<XBX1XZX*XzX1XCXDXSX",
"DXCXDXCXCXZXZXVXmXNXVXmXMXqXqX0XN.0X9XM.9XM.M.M.M.M.M.M.M.M.M.} J V A { MXM.P n +.#.} s.qXs.+.+.{ N.nXMXnXMX:XzX*XzXzXZX1XDXZXZX",
"DXZXZXZXZXZXZXZXmXmXmXmXnX0X0XM.M.9XM.9X9XM.m.9Xm.M.m.m.M.m.m.{ J V m c.N.eX..#.#.#.@.n M.P #.@.+.{ nXMXnXqX0Xv.*X|.zX*XZXZXZXCX",
"ZXDXZXZXZXZXmXmXmXmXnXnX0X0X6X0XM.9X4X9Xn.m.M.m.m.m.m.m.m.m.m.s.S V 0 aXrX..#.o.S G #.X.c.rX+.Z o.l 7X7X7XqXnX1X*XzXoXBXZXZXZXZX",
"ZXZXZXZXmXmXmXmXmXmXzX0X9X9X6Xn.9Xn.m.m.n.n.n.n.m.m.m.n.m.n.m.v.m V v pXk #.J V V V O.v aXaXl B Z n sX@Xr.k.;X'.#X#X+XBXBXBXBXZX",
"ZXZXZXmXBXBXzXnXnXzXzXN.n.n.n.6X4X4X4Xb.4Xb.b.b.n.m.b.b.4X4Xn.4Xv V k s.X.G B V N g | pXm.aX[ N Z ..sXk.7X6X,X@X*X,X,XoXl.XXBXBX",
"zXZXmXZXBXBXsXnXzXN.7X6Xn.6X4Xn.4X4X4X4X4X4Xb.a.P x.b.6X4X3Xb.b.s.C M h A B B h ] aXpXv.v.aXk N Z ..x.k.6X6X:X`.'.|.r.<XBX7X:XBX",
"zXZXmXmXBXzXzXzX7XzX6X4X4X3X4X4Xn.b.2X4X2X4Xj.p a u p.b.4X3Xb.2Xb.{ V V B B m } dXpXaXaXaX| m V X.n 3X-Xk.k.>X7X|.k.7XoX#X7X*XBX",
"BXzXzXzXz.oXzX7X7Xv.6X3X3X3X3X3X2X2Xb.2X2X2XP f f a t 7 2Xb.3X2Xb.x.F V B N h aXpX&.aXrXc h V J fX{ 4X4X5X4X4X-X*X].7X7X<Xk.7XBX",
"BXnXzX1X7X*X7X1X].>X5X2X2X2X3X2X2X2X2X2X2X2Xc V B B d u x.b.b.>X>X<X{ J B B l pXrXh 0 h B V V o.O.a.<X3X2X3X3Xz.5XXX6X6X7X7XBXBX",
"7X7X7X7Xz.<X1XoX,Xz.2X2X>X>X>X>X2X>X>X>X2X2X7 B B V N s 5 b.v.>X>Xb.x.F A B 0  .0 V V V V V A @.b *X>X>X2X2X2X@X#X].5X7X7X7X7X7X",
"7X7X7X6X<X+Xk.+Xk.;X>X2X5X8XGXGX5X>X>X2X>X>XrXm V V V M t x.>X>X>X>Xv.] o.V V g B V V V V G @.n j.>X>X>X>X>X2X>Xr.XX4X7X5X7X7X0X",
"7X7X7X5X3X]..X'.+X>X2X>X8XwXGXwXGX-X>X-X>X-Xx.g B V V V d 6 >X>X-X>Xv.| ..V V V V V V J O...7 z.v.5XGXGX<X<X>X<X2X2X5X5X5X7X7X7X",
"7X8Xk.].].G./.'.;X-X>X-X8XGXJXwXwX;X-X-X-X>X-Xx.g B B B M g >X-X-X-Xc.pXb S V V B J +.n P j.-X-X-XGXwXwXGX<X<X>X<X>X>X2X5X5X7X7X",
"7X+X,X5X:X'.].k.].'.k.;X,XGXwXwX8X;X;X;X-X-X-X>Xz.h B B M u -X;X-Xv.v.aX{ G V V o.b | c.z.-X-X-X,XGXJXwX8X<X>X>X>X>X>X<X<X3X5X5X",
"5X<Xz.oXz.'./.k.G.oX|.<X,X<XxX#Xh.yX_.,X;X;X-Xz.q.0.m V B p j.;X-X-X-Xv.s.X.V A n s.z.v.:X:X-X-X8XwXwXwX8X:X<X:X-X-X>X>X<X2X3X5X",
"5X<X:X;X:X'.'.@X@Xd.l.,X<X:X,XyX0.q.0.h.;XOX@XyXq.q.z V V d i.;X-X-XOX-Xj.F V G b #X+X:X:X:X;X-X;XGXwXwX:X:X:X:X;X;X;X>X;X<X<X5X",
"5X>X>X,X-X'.].OX+X:X,X:X,X,X1Xq.%XoXf.0.OX-X+Xq.%X*Xc V V d i.+XOXOX-XOXz.C B S c +X;X:X:X*X:X+X.X;X8X:X*X:X:X;X;XOX;X;X>X>X<X5X",
"<X,X,X;X+X`.k.XX+X*X*X:X*X*X*Xq.*XOXg.2.d.OXz.6.%XyXb N V s a.+XOXOXOXOXXXl B S 4.:X,X*X:X*X+X+XOXOXOXOX*Xh.%X%Xg.@X;X;X;X;X;X<X",
",X:X,X#X@X@X`. XOX#X+X*X*X#X*Xq.%Xv H O.n p.eXz h k F V V p 6 oX X;X XOX].m V V 4.#X*X*X#X*X*X+XOXOXOXOX%X%Xh.h.h.*X;X;X;X;X;X8X",
",X,X;XOX#XOXOX XoX#X#X#X#X+X*Xh.0.l fXO.fXD l @.O.fXG V V N h d. X X X Xl.m V V P #X*X#X#X*X#X#XXX]. XOXOXh.h.g.f.oX@X.X;X;X;X;X",
";X;X@XOXOX X X X.X@XoXoXoXoXoXoXg.z @.S o.O.J S S Z B B V V V 6  X X X Xi.M V V c #X@XoXoXoXx.6 l k d. X.X|.f.g.g.g.f.oX#XOX;X;X",
";X@XOX@X X X X X X@XoXoXoXoXoX}.|.h.k A V V V Z h z 6 g B B V m j. X.X}.5 M V V 4.oXoX@XoX#Xc @.fXfXP .Xf.f.g.g.6.f.g.oX@X@X@X;X",
"@X@X#X#X X X X].]..X@X@XoX@X@X}.].'.b C B B Z g 9.].k.k.g B V V 6 '.}.}.y N V V 4..X|.oX|.d...#.o.fXp.W.f.|.f.g.f.|.|.}..X.X@X;X",
"@X@X@X@X X].`.'.].'.].]..X'.]..X].`.eX..A H g 0.0.6.f.q.0.h V V h '.'.4.p B V N i..X|.XX|.p.o.S o.H i.].).f.'.f.f.].|..X.X.X@X@X",
"@X.X.X}.}.}.{.{.{.`.`.'.'.{.~.p.k b D O.J g q.q.g.q.q.6.).5.m V h l.l.y f V V z `.}. X].@Xc V V J 9.{.`.'.'.{.f.f.'.{.{..X.X.X@X",
"@X.X.X}.}.[.`.`.`.{.{.`.`.`.h.n #.@.J G l 9.6.6.f.6._.).'.`.z V M d.5 p N V N 3.{.[.`.].}.z V V x ^.].W.`.`.`.`.`.{.{.{.}..X}.@X",
".X.X.X.X[.[.{.`.`.[.[.`.W./.eX..#.S A k n _.f.f.0.0.0.0.6._.4.B N 6 t f V B 6 [.{.d././.[.c V G c [.W.`.[.[.W.`.[.[.{.{.$X$X.X.X",
".X$X$X$X[.[.W.`.L.[.[.L.`.f.0.k @.X.h b g.0.6.^.0.q.6.q.q.0.2.M m 8 f V B 5 (./.c n v d.(.3.V o.4.h.1 p.`.(.[.`.L.[.{.$X}..X$X.X",
"}.{.{.[.`.W.(.L.L.L.L.(.E.0.6._.3.6 g.d.9.x 0.f.0.d.L./.L.d.6.m i s V B 5 G./.p.F J J c E.3.N +.k b @.D h.k.G./.W.L.`.W.[.[.'..X",
"}.{.{.[./.W.L.(.L.(.L.(.(.0.f.(.W.G.G.9.l n b _.0.^.L./.d.d.f.C f N N 4 G.L.!.c fXG A m /.4.N J J G O...h.L.G.G.G.L.L.`.[.{.$X}.",
"$X$X{.L.W.G.L.E.L.G.J.J.J.0._.I.G.G.6.9.O.@.F 6.q.6.6 z k k i C B m 6 G.L.L.!.4.+.O.V B 5 z V V V V O.v /.(.(.G.L.L.L.W.(.[.$X}.",
"$X{.W.L.W.G.J.J.J.G.(.I.J.^.q.=X^.6.6.eXX.J J l k C O.J J @.fXJ V 5 K.K.J.J.K.K.p.n O.A m m V V V S v t.K.E.G.G.G.L.L.L.L.$X$X$X",
"$X[.E.L.(.E.T.I.G.J.J.J.J.(.JXUXjX6.A.).v o.A fX#.o.V V B A o.V m t.G.S.J.J.J.K.kXr.D J V B V H C 6 A.G.K.J.J.J.(.(.(.K.W.[.[.$X",
"$X[.E.L.(.$X(.(.J.H.S.S.I.).UXUXHXT.S.S.eXD V G A V M M B B V V g A.S.G.H.G.H.G.).x.n G V F v 6 t.U.H.H.J.J.H.J.(.(.(.J.L.L.E.$X",
"$X(.L.L.(.)./.(.J.I.I.J.J.I.HXHXHXS.J.I.9.n A V M a t r y B V V 4 t.<.3.6 3.<.<.<.v o.V H 9.^.I.H.H.S.H.A.J.S.J.(.(.L.J.E.[.E.$X",
"!.K.E.E./.(.(./.J.J.S.I.I.I.=XGX(.S.I.5.k J V f a r 3.1.2.m V V 2 g H O.X.@.#.@.O.J B B b d.I.I.Z.H.S.S.H.T.S.J.J.J.J.J.E.E.L.!.",
"!.E.K.E.(.(.(.(.(.C.S.A.S.S.S.Z.I.I.1.h G V f a u 3.1.1.1.5 V V i V V V V V S A V V V A c )./.I.Z.S.S.S.S.S.S.S.I.S.I.J.J.E.(.!.",
"Q.E.G.K.(.(.(.(.S.S.S.S.S.I.Z.S.S.S.2.V V f a t <.5.3.<.,.* f V B V V V V V V V V B M C uX&XlX=XA.S.S.S.S.S.S.S.I.J.T.J.H.E.E.!.",
"E.K.K.H.(.I.(.I.C.I.C.I.C.S.S.Z.C.S.4 a d a t 3.d.5.<.<.>.* d V V V N M m m f m s a i uXlXcXG.&XZ.Z.S.S.I.S.S.S.S.T.S.T.J.E.R.!.",
"R.T.T.H.I.^.%X&XA.I.P.C.C.C.C.P.C.I.1.y r = >.<.i.<.3.>., * d V N d u .   . # R 2 <.uX&XV.^.cX=XC.S.C.C.I.I.S.C.S.S.S.H.T.T.R.R.",
"R.T.T.T.I.%XLXbXKXC.P.C.V.8.C.C.C.C.1.,.;.;.:.<.<.< < < & * a V d t .       W ! Y A.&X%XZ.V.V.C.C.Z.C.C.C.C.S.I.I.S.T.S.T.H.T.E.",
"R.T.T.T.I.vX).P.vX).C.P.C.^.8.P.C.7.7.,.,.:.>.>.< < < ; % = d f a +       . U / Q 3.sX{ 3.<.C.P.C.Z.C.C.C.C.C.Z.Z.S.I.S.I.T.T.R.",
"R.R.T.Z.I.cX/.C.).kX8.8.lXIXvX7.C.C.7.1.1.:.;., , < i.% $ = s d t .         . U E 9 } PXPXPX{ 1.C.C.Z.C.C.A.C.Z.S.Z.S.T.T.T.T.R.",
"R.T.T.I.I.%XkXI.J.lXP.^.bXd.KX).8.C.8.7.1.,.;., > i.K o % t s a 8 O # .       . R E w *.*.hXPXuXV.7.7.7.7.C.P.P.S.S.Z.S.T.T.T.Q.",
"R.Y.U.U.U.C.vXA.S.vX7.lX^.8.vX_.8.V.V.V.7.:., > & e.w.= = p d 0 W / / / W q . 2 Q Q E W ) _ *.PX5.C.7.7.7.C.C.C.C.I.I.U.U.R.T.R.",
"R.R.Y.U.U.P.J.lXA.LX_.vX7.7.KX7.8.8.8.7.,.;.> & % u.w.u a a e Q ~ ! ! ! ~ / Q R U ~ E R _ _ _ hXtXC.8.C.C.C.P.C.C.S.S.Z.D.T.R.R.",
"R.Y.T.Y.U.U.Z./.kXvXPX&X).LX%X8.8.8.8.1.1 P < % X  X~.y a a 0 / ~ Q w } [ Q ! ! R ! E U _ _ _ *.hX1.7.8.C.7.Z.C.C.S.S.U.U.T.R.R.",
"Q.R.T.U.U.U.U.H.vX&X).%XLX_.8.7.8.8.8.,.> s.pX4 % z.u.K u a M q q + KXIXIXR ! ^ q ! E R _ _ _ ' PX1.8.A.C.7.Z.C.S.Z.J.H.R.R.R.R.",
"Q.Y.].cXlX/.J.A.KXkX&XbX^.C.7.8.V.V.8.:.> ; sXsX: w.u.w.2 r d d s + 2 . 3 E Q j g ! E W _ _ _ ' PX5.C.C.C.7.C.S.U.Z.H.T.R.E.R.Q.",
"Q.!.IXbXvXLXbXKXPXvXkXkXvX7.7.A.7.V.1.:.> % K c.P i.e.y.; 2 3 p a + + # ^ ! w n w E 9 ( _ _ _ ' PX<.C.P.C.C.A.Z.Z.H.H.T.R.R.R.Q.",
"Q.=XbXK.F.K.oXcXh.&XcXt.kXKXIXIXeXeX9., > % : I dXK y.y.: s.c a 0 Q / ~ ! ! q h w E U _ _ _ _ ` iX1.P.P.S.S.S.Z.Z.D.Y.Y.R.R.R.Q.",
"Q.=XxXQ.F.F.S.&XIXlX^.LXbXt.7.3.tX{ iX4.$ $ : I c.a.y.y.K pXg a 0 Q U Y U ! # q Q ! 9 ) _ _ _ _ iX1.Z.P.A.C.S.S.D.F.Y.Y.R.R.Q.Q.",
"Q.`.bXW.K.G.xX*XcXKXlXPXLXLX^.p.c v c rX2 c | I a.w.y.y.L s.@ h } iXhX%.U ! Q ! U 9 e ( _ _ ) ( tX6 A.V.A.S.H.D.D.H.H.K.K.Q.Q.Q.",
"~.~.@XbXbXHX/.Y.&XbXvX&XA.&XLXyXc { c { tXhXL I c.K y.K s.P 3 [ [ T T Y Q ! ! ! R 9 9 ) _ _ ) )  .} <.3.3.A.Z.T.H.H.K.K.K.Q.Q.Q.",
"~.Q.Q.G.[.G.F.Y.xX=XvX|.Z.P.d.p.{ 3 } tXyXtXL I I e.y.K s.] U / / / ! R q w R Q U q R _ _ _ ( =.%.-.=.gX=.] r.G.H.K.K.K.K.Q.Q.~.",
"~.~.Q.Q.Q.Q.F.K.vXk.xX|.U.Z.7.; tXc 6 eXeX{ L I K y.y.s.3 W ~ ! ! Q Y %.*.[ U U  .$.Y T  . .| $.-.-.gXgXgXgX<.H.K.G.K.Q.W.W.Q.~.",
"~.~.Q.Q.Q.K.Y.K.bXE.lX|.U.P.<.} | v %.=.%.{ 3 ] j P 3 3 ] / ~ ~ R [ -.-.-.Y Q R gXgXgXgX-.*.-.-.-.fXfXgXgXiXr.F.K.K.W.G.Q.!.~.~.",
"~.Q.Q.Q.Q.Q.Q.K.LXT.xX%XU.U.| %.=.} -.=.-.%.=.-. .[ } [ Y / Q q j =.=.=.[ Q ! Y fX%.%.} ] P 2 % - , D.L.G.F.H.K.Y.K.Q.Q.W.Q.Q.~.",
"~.~.~.~.~.Q.Q.Q.vXcXLX'.U.U.i.} %.=.-.=.%.j ; o o X X X o # @ X X X X X @ W U @ $ $ $ % % % - > ;.1.D.F.H.F.K.K.Q.Q.Q.~.~.~.~.~.",
"~.~.Q.~.Q.Q.Q.Q.{.cXcXK.U.U.t.> X X o X X X X X X $ $ X $ $ $ $ X $ $ % % * ; & & & > > , >.:.1.r.D.F.F.K.K.K.K.Q.Q.W.~.~.~.~.~."
};
